{
.formatVersion = 3;
axes = (
{
name = Weight;
tag = wght;
},
{
name = Width;
tag = wdth;
}
);
familyName = Dinish;
customParameters = (
{
name = glyphOrder;
value = (
.null,
nonmarkingreturn,
space,
exclam,
quotedbl,
numbersign,
dollar,
percent,
ampersand,
quotesingle,
parenleft,
parenright,
asterisk,
plus,
comma,
hyphen,
period,
slash,
zero,
zero.dnom,
zero.numr,
zero.osf,
zero.sups,
zero.tlf,
zero.tosf,
one,
one.dnom,
one.numr,
one.osf,
one.sups,
one.tlf,
one.tosf,
two,
two.dnom,
two.numr,
two.osf,
two.sups,
two.tlf,
two.tosf,
three,
three.dnom,
three.numr,
three.osf,
three.sups,
three.tlf,
three.tosf,
four,
four.dnom,
four.numr,
four.osf,
four.sups,
four.tlf,
four.tosf,
five,
five.osf,
five.tlf,
five.tosf,
six,
six.osf,
six.tlf,
six.tosf,
seven,
seven.osf,
seven.tlf,
seven.tosf,
eight,
eight.osf,
eight.tlf,
eight.tosf,
nine,
nine.osf,
nine.tlf,
nine.tosf,
colon,
semicolon,
less,
equal,
greater,
question,
at,
A,
B,
C,
D,
E,
F,
G,
H,
I,
J,
K,
L,
M,
N,
O,
P,
Q,
R,
S,
T,
U,
V,
W,
X,
Y,
Z,
bracketleft,
backslash,
bracketright,
asciicircum,
underscore,
grave,
a,
b,
c,
d,
e,
f,
g,
h,
i,
j,
k,
l,
m,
n,
o,
p,
q,
r,
s,
t,
t_t,
u,
v,
w,
x,
y,
z,
braceleft,
bar,
braceright,
asciitilde,
uni00A0,
exclamdown,
cent,
sterling,
currency,
yen,
brokenbar,
section,
dieresis,
copyright,
ordfeminine,
guillemotleft,
logicalnot,
uni00AD,
registered,
macron,
degree,
plusminus,
twosuperior,
threesuperior,
acute,
mu,
paragraph,
periodcentered,
cedilla,
onesuperior,
ordmasculine,
guillemotright,
onequarter,
onehalf,
threequarters,
questiondown,
Agrave,
Aacute,
Acircumflex,
Atilde,
Adieresis,
Aring,
AE,
Ccedilla,
Egrave,
Eacute,
Ecircumflex,
Edieresis,
Igrave,
Iacute,
Icircumflex,
Idieresis,
Eth,
Ntilde,
Ograve,
Oacute,
Oacute.loclPLK,
Ocircumflex,
Otilde,
Odieresis,
multiply,
Oslash,
Ugrave,
Uacute,
Ucircumflex,
Udieresis,
Yacute,
Thorn,
germandbls,
agrave,
aacute,
acircumflex,
atilde,
adieresis,
aring,
ae,
ccedilla,
egrave,
eacute,
ecircumflex,
edieresis,
igrave,
iacute,
icircumflex,

glyphs = (
{
glyphname = exclam;
layers = (
{
layerId = "8252F75B-64DB-41DD-8CF8-30E5C2E9A516";
shapes = (
{
closed = 1;
nodes = (
(80,236,l),
(175,236,l),
(200,707,l),
(55,707,l)
);
},
{
closed = 1;
nodes = (
(60,0,l),
(195,0,l),
(195,133,l),
(60,133,l)
);
}
);
width = 254;
},
{
layerId = "DC39735F-7E79-401F-A303-677125EC6CF0";
shapes = (
{
closed = 1;
nodes = (
(89,211,l),
(157,211,l),
(174,707,l),
(71,707,l)
);
},
{
closed = 1;
nodes = (
(71,0,l),
(174,0,l),
(174,106,l),
(71,106,l)
);
}
);
width = 244;
},
{
layerId = "CF6BFDE9-2838-4146-85B5-55FAC6F26460";
shapes = (
{
closed = 1;
nodes = (
(80,236,l),
(175,236,l),
(200,707,l),
(55,707,l)
);
},
{
closed = 1;
nodes = (
(60,0,l),
(195,0,l),
(195,133,l),
(60,133,l)
);
}
);
width = 254;
},
{
layerId = "17EBA7C1-94C5-4917-BF04-666E42EA2D32";
shapes = (
{
closed = 1;
nodes = (
(94,201,l),
(152,201,l),
(166,707,l),
(80,707,l)
);
},
{
closed = 1;
nodes = (
(77,0,l),
(168,0,l),
(168,95,l),
(77,95,l)
);
}
);
width = 244;
},
{
layerId = "0E6BC793-ECDE-4AD7-84CA-C7A783A2BC64";
shapes = (
{
closed = 1;
nodes = (
(67,225,l),
(146,225,l),
(171,707,l),
(42,707,l)
);
},
{
closed = 1;
nodes = (
(50,0,l),
(162,0,l),
(162,130,l),
(50,130,l)
);
}
);
width = 212;
},
{
layerId = "D32B31B9-0BB7-473D-9726-FC40C81139B8";
shapes = (
{
closed = 1;
nodes = (
(75,201,l),
(133,201,l),
(148,707,l),
(60,707,l)
);
},
{
closed = 1;
nodes = (
(65,0,l),
(144,0,l),
(144,99,l),
(65,99,l)
);
}
);
width = 208;
}
);
unicode = 33;
},
{
glyphname = quotedbl;
layers = (
{
layerId = "8252F75B-64DB-41DD-8CF8-30E5C2E9A516";
shapes = (
{
closed = 1;
nodes = (
(39,401,l),
(159,401,l),
(159,707,l),
(39,707,l)
);
},
{
closed = 1;
nodes = (
(248,401,l),
(367,401,l),
(367,707,l),
(248,707,l)
);
}
);
width = 405;
},
{
layerId = "DC39735F-7E79-401F-A303-677125EC6CF0";
shapes = (
{
closed = 1;
nodes = (
(49,450,l),
(132,450,l),
(132,707,l),
(49,707,l)
);
},
{
closed = 1;
nodes = (
(213,450,l),
(297,450,l),
(297,707,l),
(213,707,l)
);
}
);
width = 345;
},
{
layerId = "CF6BFDE9-2838-4146-85B5-55FAC6F26460";
shapes = (
{
closed = 1;
nodes = (
(39,401,l),
(159,401,l),
(159,707,l),
(39,707,l)
);
},
{
closed = 1;
nodes = (
(232,401,l),
(351,401,l),
(351,707,l),
(232,707,l)
);
}
);
width = 390;
},
{
layerId = "17EBA7C1-94C5-4917-BF04-666E42EA2D32";
shapes = (
{
closed = 1;
nodes = (
(54,471,l),
(122,471,l),
(122,707,l),
(54,707,l)
);
},
{
closed = 1;
nodes = (
(194,471,l),
(261,471,l),
(261,707,l),
(194,707,l)
);
}
);
width = 315;
},
{
layerId = "0E6BC793-ECDE-4AD7-84CA-C7A783A2BC64";
shapes = (
{
closed = 1;
nodes = (
(30,408,l),
(145,408,l),
(145,707,l),
(30,707,l)
);
},
{
closed = 1;
nodes = (
(214,408,l),
(330,408,l),
(330,707,l),
(214,707,l)
);
}
);
width = 359;
},
{
layerId = "D32B31B9-0BB7-473D-9726-FC40C81139B8";
shapes = (
{
closed = 1;
nodes = (
(42,469,l),
(112,469,l),
(112,707,l),
(42,707,l)
);
},
{
closed = 1;
nodes = (
(175,469,l),
(245,469,l),
(245,707,l),
(175,707,l)
);
}
);
width = 286;
}
);
unicode = 34;
},
{
glyphname = numbersign;
layers = (
{
layerId = "8252F75B-64DB-41DD-8CF8-30E5C2E9A516";
shapes = (
{
closed = 1;
nodes = (
(98,0,l),
(204,0,l),
(231,209,l),
(346,209,l),
(318,0,l),
(425,0,l),
(453,209,l),
(569,209,l),
(569,303,l),
(465,303,l),
(479,416,l),
(598,416,l),
(598,510,l),
(492,510,l),
(517,707,l),
(412,707,l),
(386,510,l),
(271,510,l),
(297,707,l),
(191,707,l),
(166,510,l),
(47,510,l),
(47,416,l),
(154,416,l),
(138,303,l),
(18,303,l),
(18,209,l),
(126,209,l)
);
},
{
closed = 1;
nodes = (
(244,303,l),
(259,416,l),
(374,416,l),
(358,303,l)
);
}
);
width = 616;
},
{
layerId = "DC39735F-7E79-401F-A303-677125EC6CF0";
shapes = (
{
closed = 1;
nodes = (
(111,0,l),
(185,0,l),
(214,221,l),
(345,221,l),
(316,0,l),
(391,0,l),
(420,221,l),
(550,221,l),
(550,290,l),
(428,290,l),
(446,433,l),
(575,433,l),
(575,501,l),
(455,501,l),
(481,707,l),
(408,707,l),
(381,501,l),
(250,501,l),
(276,707,l),
(203,707,l),
(176,501,l),
(48,501,l),
(48,433,l),
(167,433,l),
(148,290,l),
(24,290,l),
(24,221,l),
(139,221,l)
);
},
{
closed = 1;
nodes = (
(223,290,l),
(242,433,l),
(373,433,l),
(354,290,l)
);
}
);
width = 598;
},
{
layerId = "CF6BFDE9-2838-4146-85B5-55FAC6F26460";
shapes = (
{
closed = 1;
nodes = (
(67,0,l),
(172,0,l),
(200,209,l),
(308,209,l),
(281,0,l),
(387,0,l),
(415,209,l),
(508,209,l),
(508,303,l),
(427,303,l),
(441,416,l),
(534,416,l),
(534,510,l),
(454,510,l),
(479,707,l),
(374,707,l),
(348,510,l),
(240,510,l),
(265,707,l),
(160,707,l),
(134,510,l),
(44,510,l),
(44,416,l),
(122,416,l),
(106,303,l),
(18,303,l),
(18,209,l),
(94,209,l)
);
},
{
closed = 1;
nodes = (
(212,303,l),
(227,416,l),
(336,416,l),
(321,303,l)
);
}
);
width = 551;
},
{
layerId = "17EBA7C1-94C5-4917-BF04-666E42EA2D32";
shapes = (
{
closed = 1;
nodes = (
(80,0,l),
(141,0,l),
(171,226,l),
(312,226,l),
(283,0,l),
(344,0,l),
(374,226,l),
(473,226,l),
(473,284,l),
(381,284,l),
(401,440,l),
(498,440,l),
(498,497,l),
(409,497,l),
(436,707,l),
(375,707,l),
(347,497,l),
(206,497,l),
(233,707,l),
(173,707,l),
(145,497,l),
(50,497,l),
(50,440,l),
(138,440,l),
(118,284,l),
(26,284,l),
(26,226,l),
(110,226,l)
);
},
{
closed = 1;
nodes = (
(178,284,l),
(199,440,l),
(340,440,l),
(319,284,l)
);
}
);
width = 523;
},
{
layerId = "0E6BC793-ECDE-4AD7-84CA-C7A783A2BC64";
shapes = (
{
closed = 1;
nodes = (
(55,0,l),
(150,0,l),
(172,218,l),
(263,218,l),
(241,0,l),
(334,0,l),
(356,218,l),
(439,218,l),
(439,302,l),
(366,302,l),
(378,420,l),
(459,420,l),
(459,504,l),
(386,504,l),
(408,707,l),
(313,707,l),
(293,504,l),
(202,504,l),
(222,707,l),
(129,707,l),
(108,504,l),
(35,504,l),
(35,420,l),
(99,420,l),
(87,302,l),
(14,302,l),
(14,218,l),
(78,218,l)
);
},
{
closed = 1;
nodes = (
(180,302,l),
(193,420,l),
(284,420,l),
(271,302,l)
);
}
);
width = 473;
},
{
layerId = "D32B31B9-0BB7-473D-9726-FC40C81139B8";
shapes = (
{
closed = 1;
nodes = (
(67,0,l),
(133,0,l),
(159,228,l),
(280,228,l),
(254,0,l),
(321,0,l),
(346,228,l),
(432,228,l),
(432,290,l),
(353,290,l),
(370,436,l),
(453,436,l),
(453,498,l),
(376,498,l),
(399,707,l),
(332,707,l),
(309,498,l),
(188,498,l),
(212,707,l),
(144,707,l),
(122,498,l),
(42,498,l),
(42,436,l),
(115,436,l),
(98,290,l),
(20,290,l),
(20,228,l),
(92,228,l)
);
},
{
closed = 1;
nodes = (
(166,290,l),
(182,436,l),
(302,436,l),
(286,290,l)
);
}
);
width = 473;
}
);
unicode = 35;
},
{
glyphname = dollar;
layers = (
{
layerId = "8252F75B-64DB-41DD-8CF8-30E5C2E9A516";
shapes = (
{
closed = 1;
nodes = (
(226,-61,l),
(317,-61,l),
(317,33,l),
(443.804,46.49,o),
(515,116.966,o),
(515,229,cs),
(515,332.788,o),
(456.942,393.196,o),
(342,409,cs),
(262,420,ls),
(197.939,428.808,o),
(169,453.08,o),
(169,498,cs),
(169,547.262,o),
(205.237,574,o),
(272,574,cs),
(343.897,574,o),
(379.659,547.416,o),
(385,490,c),
(505,490,l),
(497.027,600.296,o),
(430.716,666.96,o),
(317,679,c),
(317,758,l),
(226,758,l),
(226,678,l),
(111.533,663.359,o),
(45,593.517,o),
(45,488,cs),
(45,385.64,o),
(107.014,325.972,o),
(230,310,cs),
(307,300,ls),
(365.066,292.459,o),
(390,268.426,o),
(390,220,cs),
(390,167.038,o),
(350.193,139,o),
(275,139,cs),
(191.43,139,o),
(153.914,166.046,o),
(146,232,c),
(29,232,l),
(34.316,115.053,o),
(104.264,44.04,o),
(226,32,c)
);
}
);
width = 547;
},
{
layerId = "DC39735F-7E79-401F-A303-677125EC6CF0";
shapes = (
{
closed = 1;
nodes = (
(226,-60,l),
(295,-60,l),
(295,30,l),
(419.038,40.786,o),
(489,107.863,o),
(489,216,cs),
(489,315.428,o),
(433.466,372.922,o),
(319,392,cs),
(261.707,401.549,ls),
(168.747,417.042,o),
(133,445.219,o),
(133,503,cs),
(133,567.369,o),
(177.492,601.822,o),
(260.613,601.822,cs),
(343.869,601.822,o),
(386.844,567.795,o),
(393,497,c),
(478,497,l),
(471.439,604.601,o),
(407.477,667.514,o),
(295,677,c),
(295,759,l),
(226,759,l),
(226,676,l),
(111.721,665.369,o),
(45,599.017,o),
(45,496,cs),
(45,401.216,o),
(98.15,348.377,o),
(216,326,cs),
(295,311,ls),
(372.346,296.314,o),
(401,269.012,o),
(401,210,cs),
(401,141.284,o),
(354.436,104.377,o),
(267.736,104.377,cs),
(172.34,104.377,o),
(124.685,140.616,o),
(117,219,c),
(32,219,l),
(38.668,102.985,o),
(104.682,38.332,o),
(226,29,c)
);
}
);
width = 531;
},
{
layerId = "CF6BFDE9-2838-4146-85B5-55FAC6F26460";
shapes = (
{
closed = 1;
nodes = (
(199,-61,l),
(304,-61,l),
(304,35,l),
(408.33,55.833,o),
(463,122.538,o),
(463,229,cs),
(463,376.083,o),
(365.916,395.595,o),
(283.136,412.658,cs),
(263.491,416.795,ls),
(194.15,431.395,o),
(168,453.633,o),
(168,498,cs),
(168,547.079,o),
(195.983,574,o),
(247,574,cs),
(300.774,574,o),
(327.036,548.348,o),
(333,490,c),
(454,490,l),
(448.148,589.81,o),
(395.364,655.262,o),
(304,676,c),
(304,758,l),
(199,758,l),
(199,677,l),
(101.15,656.639,o),
(45,587.728,o),
(45,488,cs),
(45,386.788,o),
(90.088,337.222,o),
(202.87,314.45,cs),
(228.25,309.326,ls),
(309.917,292.836,o),
(338,269.724,o),
(338,219,cs),
(338,165.907,o),
(308.402,139,o),
(250,139,cs),
(185.33,139,o),
(154.639,166.711,o),
(147,232,c),
(30,232,l),
(35.917,119.156,o),
(95.286,49.247,o),
(199,33,c)
);
}
);
width = 514;
},
{
layerId = "17EBA7C1-94C5-4917-BF04-666E42EA2D32";
shapes = (
{
closed = 1;
nodes = (
(198,-60,l),
(257,-60,l),
(257,30,l),
(359.816,40.05,o),
(421,100.736,o),
(421,204.159,cs),
(421,289.86,o),
(372.203,340.53,o),
(248.977,382.788,cs),
(215.404,394.301,ls),
(148.378,417.285,o),
(117,450.221,o),
(117,510.939,cs),
(117,579.932,o),
(152.426,612.5,o),
(227.5,612.5,cs),
(298.32,612.5,o),
(335.173,575.647,o),
(341,499,c),
(412,499,l),
(402.558,603.274,o),
(347.894,665.696,o),
(257,676,c),
(257,759,l),
(198,759,l),
(198,675,l),
(101.862,664.578,o),
(45,602.646,o),
(45,509.466,cs),
(45,432.797,o),
(94.704,370.166,o),
(195.813,335.581,cs),
(226.983,324.92,ls),
(323.693,291.839,o),
(349,267.175,o),
(349,206,cs),
(349,129.731,o),
(308.587,91.492,o),
(227.983,91.492,cs),
(153.791,91.492,o),
(110.604,134.165,o),
(104,214,c),
(34,214,l),
(41.964,104.074,o),
(99.647,39.005,o),
(198,29,c)
);
}
);
width = 467;
},
{
layerId = "0E6BC793-ECDE-4AD7-84CA-C7A783A2BC64";
shapes = (
{
closed = 1;
nodes = (
(172,-46,l),
(259,-46,l),
(259,35,l),
(339.033,53.007,o),
(385,119.04,o),
(385,216,cs),
(385,317.163,o),
(347.914,372.221,o),
(255,409,cs),
(207,428,ls),
(165.619,444.38,o),
(147,469.206,o),
(147,508,cs),
(147,551.489,o),
(166.526,573,o),
(206,573,cs),
(245.641,573,o),
(260.936,551.803,o),
(263,494,c),
(378,494,l),
(376.004,589.792,o),
(333.161,654.956,o),
(259,675,c),
(259,773,l),
(172,773,l),
(172,679,l),
(78.879,663.981,o),
(26,599.873,o),
(26,502,cs),
(26,410.018,o),
(57.107,362.285,o),
(142,324,cs),
(193,301,ls),
(243.929,278.032,o),
(263,254.057,o),
(263,213,cs),
(263,158.803,o),
(243.848,134,o),
(202,134,cs),
(161.333,134,o),
(140.025,161.537,o),
(137,218,c),
(19,218,l),
(23.995,103.124,o),
(75.896,39.011,o),
(172,29,c)
);
}
);
width = 438;
},
{
layerId = "D32B31B9-0BB7-473D-9726-FC40C81139B8";
shapes = (
{
closed = 1;
nodes = (
(163,-74,l),
(217,-74,l),
(217,28,l),
(300.286,39.898,o),
(344,99.79,o),
(344,202,cs),
(344,294.107,o),
(305.444,349.967,o),
(217,386,cs),
(163,408,ls),
(116.919,426.774,o),
(97,458.162,o),
(97,512,cs),
(97,575.108,o),
(129.563,613.02,o),
(183.766,613.02,cs),
(240.956,613.02,o),
(270.497,576.268,o),
(273,502,c),
(337,502,l),
(331,605.333,o),
(291,662.667,o),
(217,674,c),
(217,771,l),
(163,771,l),
(163,675,l),
(77.529,665.35,o),
(29,602.697,o),
(29,502,cs),
(29,417.704,o),
(61.121,373.308,o),
(152,332,cs),
(201.582,309.463,l),
(256.852,279.146,o),
(275,250.358,o),
(275,193,cs),
(275,118.978,o),
(245.977,84.808,o),
(183.106,84.808,cs),
(127.974,84.808,o),
(101.176,120.659,o),
(97,200,c),
(27,200,l),
(31,91.333,o),
(76.333,33.667,o),
(163,27,c)
);
}
);
width = 380;
}
);
unicode = 36;
},
{
glyphname = percent;
layers = (
{
layerId = "8252F75B-64DB-41DD-8CF8-30E5C2E9A516";
shapes = (
{
closed = 1;
nodes = (
(218,0,l),
(322,0,l),
(776,712,l),
(672,712,l)
);
},
{
closed = 1;
nodes = (
(297.667,270,o),
(349,326,o),
(349,438,cs),
(349,553,ls),
(349,659.669,o),
(299,713,o),
(197,713,cs),
(93.988,713,o),
(40,657.981,o),
(40,553,cs),
(40,438,ls),
(40,326,o),
(91.667,270,o),
(195,270,cs)
);
},
{
closed = 1;
nodes = (
(158.374,361,o),
(146,381.293,o),
(146,443,cs),
(146,540,ls),
(146,602.093,o),
(158.594,623,o),
(196,623,cs),
(231.349,623,o),
(244,601.125,o),
(244,540,cs),
(244,443,ls),
(244,383.611,o),
(230.764,361,o),
(196,361,cs)
);
},
{
closed = 1;
nodes = (
(901.481,-7.107,o),
(952.814,48.893,o),
(952.814,160.893,cs),
(952.814,275.893,ls),
(952.814,382.561,o),
(902.814,435.893,o),
(800.814,435.893,cs),
(697.801,435.893,o),
(643.814,380.873,o),
(643.814,275.893,cs),
(643.814,160.893,ls),
(643.814,48.893,o),
(695.481,-7.107,o),
(798.814,-7.107,cs)
);
},
{
closed = 1;
nodes = (
(762.188,83.893,o),
(749.814,104.186,o),
(749.814,165.893,cs),
(749.814,262.893,ls),
(749.814,324.986,o),
(762.408,345.893,o),
(799.814,345.893,cs),
(835.163,345.893,o),
(847.814,324.018,o),
(847.814,262.893,cs),
(847.814,165.893,ls),
(847.814,106.504,o),
(834.578,83.893,o),
(799.814,83.893,cs)
);
}
);
width = 993;
},
{
layerId = "DC39735F-7E79-401F-A303-677125EC6CF0";
shapes = (
{
closed = 1;
nodes = (
(233,0,l),
(308,0,l),
(698,709,l),
(623,709,l)
);
},
{
closed = 1;
nodes = (
(285.079,272,o),
(335,328.667,o),
(335,440,cs),
(335,551,ls),
(335,659.669,o),
(285.333,714,o),
(188,714,cs),
(92.896,714,o),
(42,657.178,o),
(42,551,cs),
(42,440,ls),
(42,329.466,o),
(91.599,272,o),
(187,272,cs)
);
},
{
closed = 1;
nodes = (
(141.045,341,o),
(121,372.114,o),
(121,445,cs),
(121,543,ls),
(121,614.871,o),
(140.791,645,o),
(188,645,cs),
(235.209,645,o),
(255,614.871,o),
(255,543,cs),
(255,445,ls),
(255,373.131,o),
(234.3,341,o),
(188,341,cs)
);
},
{
closed = 1;
nodes = (
(846.079,-6,o),
(896,50.667,o),
(896,162,cs),
(896,273,ls),
(896,381.669,o),
(846.333,436,o),
(749,436,cs),
(653.896,436,o),
(603,379.178,o),
(603,273,cs),
(603,162,ls),
(603,51.466,o),
(652.599,-6,o),
(748,-6,cs)
);
},
{
closed = 1;
nodes = (
(702.045,63,o),
(682,94.114,o),
(682,167,cs),
(682,265,ls),
(682,336.871,o),
(701.791,367,o),
(749,367,cs),
(796.209,367,o),
(816,336.871,o),
(816,265,cs),
(816,167,ls),
(816,95.131,o),
(795.3,63,o),
(749,63,cs)
);
}
);
width = 938;
},
{
layerId = "CF6BFDE9-2838-4146-85B5-55FAC6F26460";
shapes = (
{
closed = 1;
nodes = (
(214,0,l),
(314,0,l),
(710,712,l),
(608,712,l)
);
},
{
closed = 1;
nodes = (
(278.044,270,o),
(315,329.426,o),
(315,423,cs),
(315,568,ls),
(315,662.129,o),
(275.067,713,o),
(178,713,cs),
(83.94,713,o),
(40,659.142,o),
(40,568,cs),
(40,423,ls),
(40,328.453,o),
(77.332,270,o),
(178,270,cs)
);
},
{
closed = 1;
nodes = (
(147.654,361,o),
(145,387.32,o),
(145,412.33,cs),
(145,569.607,ls),
(145,597.104,o),
(147.655,623,o),
(178,623,cs),
(208.346,623,o),
(210,597.104,o),
(210,569.607,cs),
(210,412.33,ls),
(210,386.538,o),
(208.345,361,o),
(178,361,cs)
);
},
{
closed = 1;
nodes = (
(845.044,-7,o),
(882,52.426,o),
(882,146,cs),
(882,291,ls),
(882,385.129,o),
(842.067,436,o),
(745,436,cs),
(650.94,436,o),
(607,382.142,o),
(607,291,cs),
(607,146,ls),
(607,51.453,o),
(644.332,-7,o),
(745,-7,cs)
);
},
{
closed = 1;
nodes = (
(714.654,84,o),
(712,110.32,o),
(712,135.33,cs),
(712,292.607,ls),
(712,320.104,o),
(714.655,346,o),
(745,346,cs),
(775.346,346,o),
(777,320.104,o),
(777,292.607,cs),
(777,135.33,ls),
(777,109.538,o),
(775.345,84,o),
(745,84,cs)
);
}
);
width = 922;
},
{
layerId = "17EBA7C1-94C5-4917-BF04-666E42EA2D32";
shapes = (
{
closed = 1;
nodes = (
(201,0,l),
(265,0,l),
(647,707,l),
(583,707,l)
);
},
{
closed = 1;
nodes = (
(263.339,273,o),
(291,338.36,o),
(291,425,cs),
(291,567,ls),
(291,653.27,o),
(260.911,714,o),
(166,714,cs),
(73.086,714,o),
(42,650.911,o),
(42,567,cs),
(42,425,ls),
(42,339.217,o),
(69.306,273,o),
(166,273,cs)
);
},
{
closed = 1;
nodes = (
(111.572,333,o),
(112,387.255,o),
(112,428,cs),
(112,561,ls),
(112,601.933,o),
(111.862,653,o),
(166,653,cs),
(218.385,653,o),
(220,600.894,o),
(220,561,cs),
(220,428,ls),
(220,387.072,o),
(220.49,333,o),
(166,333,cs)
);
},
{
closed = 1;
nodes = (
(778.339,-7,o),
(806,58.36,o),
(806,145,cs),
(806,287,ls),
(806,373.27,o),
(775.911,434,o),
(681,434,cs),
(588.086,434,o),
(557,370.911,o),
(557,287,cs),
(557,145,ls),
(557,59.217,o),
(584.306,-7,o),
(681,-7,cs)
);
},
{
closed = 1;
nodes = (
(626.572,53,o),
(627,107.255,o),
(627,148,cs),
(627,281,ls),
(627,321.933,o),
(626.862,373,o),
(681,373,cs),
(733.385,373,o),
(735,320.894,o),
(735,281,cs),
(735,148,ls),
(735,107.072,o),
(735.49,53,o),
(681,53,cs)
);
}
);
width = 848;
},
{
layerId = "0E6BC793-ECDE-4AD7-84CA-C7A783A2BC64";
shapes = (
{
closed = 1;
nodes = (
(215,0,l),
(299,0,l),
(565,715,l),
(481,715,l)
);
},
{
closed = 1;
nodes = (
(221,272,o),
(259,310,o),
(259,387,cs),
(259,598,ls),
(259,675,o),
(221,713,o),
(145,713,cs),
(70,713,o),
(32,675,o),
(32,598,cs),
(32,387,ls),
(32,310,o),
(70,272,o),
(145,272,cs)
);
},
{
closed = 1;
nodes = (
(120.763,347.911,o),
(116,369.074,o),
(116,399,cs),
(116,586,ls),
(116,613.839,o),
(118.074,637,o),
(145,637,cs),
(171.926,637,o),
(176,613.839,o),
(176,586,cs),
(176,399,ls),
(176,367.069,o),
(169.237,348.089,o),
(145,348,cs)
);
},
{
closed = 1;
nodes = (
(710,-8,o),
(748,30,o),
(748,107,cs),
(748,318,ls),
(748,395,o),
(710,433,o),
(634,433,cs),
(559,433,o),
(521,395,o),
(521,318,cs),
(521,107,ls),
(521,30,o),
(559,-8,o),
(634,-8,cs)
);
},
{
closed = 1;
nodes = (
(609.763,67.911,o),
(605,89.074,o),
(605,119,cs),
(605,306,ls),
(605,333.839,o),
(607.074,357,o),
(634,357,cs),
(660.926,357,o),
(665,333.839,o),
(665,306,cs),
(665,119,ls),
(665,87.069,o),
(658.237,68.089,o),
(634,68,cs)
);
}
);
width = 780;
},
{
layerId = "D32B31B9-0BB7-473D-9726-FC40C81139B8";
shapes = (
{
closed = 1;
nodes = (
(196,0,l),
(260,0,l),
(514,707,l),
(450,707,l)
);
},
{
closed = 1;
nodes = (
(214.887,270,o),
(249,311.062,o),
(249,400,cs),
(249,586,ls),
(249,672.123,o),
(213.667,714,o),
(141,714,cs),
(68.776,714,o),
(34,672.399,o),
(34,586,cs),
(34,400,ls),
(34,313.185,o),
(69.545,270,o),
(141,270,cs)
);
},
{
closed = 1;
nodes = (
(114.212,334,o),
(104,352.216,o),
(104,400,cs),
(104,586,ls),
(104,632.396,o),
(114.177,650,o),
(141,650,cs),
(168.49,650,o),
(178,633.55,o),
(178,586,cs),
(178,400,ls),
(178,354.204,o),
(166.673,334,o),
(141,334,cs)
);
},
{
closed = 1;
nodes = (
(640.887,-9,o),
(675,32.062,o),
(675,121,cs),
(675,307,ls),
(675,393.123,o),
(639.667,435,o),
(567,435,cs),
(494.776,435,o),
(460,393.399,o),
(460,307,cs),
(460,121,ls),
(460,34.185,o),
(495.545,-9,o),
(567,-9,cs)
);
},
{
closed = 1;
nodes = (
(540.212,55,o),
(530,73.216,o),
(530,121,cs),
(530,307,ls),
(530,353.396,o),
(540.177,371,o),
(567,371,cs),
(594.49,371,o),
(604,354.55,o),
(604,307,cs),
(604,121,ls),
(604,75.204,o),
(592.673,55,o),
(567,55,cs)
);
}
);
width = 709;
}
);
unicode = 37;
},
{
glyphname = ampersand;
layers = (
{
layerId = "8252F75B-64DB-41DD-8CF8-30E5C2E9A516";
shapes = (
{
closed = 1;
nodes = (
(465,236,l),
(352,367,l),
(452.962,431.615,o),
(490,481,o),
(490,551,cs),
(490,652.312,o),
(412.827,721,o),
(299,721,cs),
(185.643,721,o),
(110,652.962,o),
(110,551,cs),
(110,499.091,o),
(128.237,459.12,o),
(183,391,c),
(88.35,331.011,o),
(47,268.681,o),
(47,186,cs),
(47,64.049,o),
(131.293,-14,o),
(263,-14,cs),
(338.226,-14,o),
(397.189,10.746,o),
(456,67,c),
(459,63,ls),
(495.726,14.033,o),
(528.619,0,o),
(579,0,cs),
(634,0,l),
(634,110,l),
(611,110,ls),
(582.917,110,o),
(565.496,117.405,o),
(545,142,cs),
(535,154,l),
(636,267,l),
(557,339,l)
);
},
{
closed = 1;
nodes = (
(242.501,496.226,o),
(228,524.211,o),
(228,556,cs),
(228,597.759,o),
(255.124,623,o),
(300,623,cs),
(344.831,623,o),
(374,595.802,o),
(374,554,cs),
(374,515.266,o),
(349.762,485.854,o),
(285,446,c)
);
},
{
closed = 1;
nodes = (
(387,150,l),
(345.232,110.843,o),
(311.242,95,o),
(269,95,cs),
(206.104,95,o),
(168,131.218,o),
(168,191,cs),
(168,235.463,o),
(190.979,267.092,o),
(253,308,c)
);
}
);
width = 681;
},
{
layerId = "DC39735F-7E79-401F-A303-677125EC6CF0";
shapes = (
{
closed = 1;
nodes = (
(462,205,l),
(319,376,l),
(421.967,440.047,o),
(456,485.755,o),
(456,560,cs),
(456,653.741,o),
(387.268,718,o),
(287,718,cs),
(188.681,718,o),
(117,651.8,o),
(117,561,cs),
(117,511.211,o),
(139.28,465.293,o),
(199,392,c),
(99.34,328.218,o),
(53,260.612,o),
(53,179,cs),
(53,64.703,o),
(134.679,-11,o),
(258,-11,cs),
(334.971,-11,o),
(396.449,17.566,o),
(456,81,c),
(475,57,l),
(514.671,13.225,o),
(541.585,0,o),
(591,0,cs),
(626,0,l),
(626,80,l),
(605,80,ls),
(577.069,80,o),
(559.279,89.157,o),
(537,115,cs),
(512,144,l),
(612,261,l),
(554,312,l)
);
},
{
closed = 1;
nodes = (
(239.702,470.357,o),
(203,521.099,o),
(203,562,cs),
(203,611.698,o),
(236.703,645,o),
(287,645,cs),
(337.667,645,o),
(371,611.667,o),
(371,561,cs),
(371,508.918,o),
(315.477,464.318,o),
(270,434,c)
);
},
{
closed = 1;
nodes = (
(407,140,l),
(358.556,88.937,o),
(316.972,68,o),
(264,68,cs),
(188.117,68,o),
(139,112.795,o),
(139,182,cs),
(139,236.333,o),
(172.722,283.481,o),
(247,333,c)
);
}
);
width = 678;
},
{
layerId = "CF6BFDE9-2838-4146-85B5-55FAC6F26460";
shapes = (
{
closed = 1;
nodes = (
(416,252,l),
(327,372,l),
(384.734,420.328,o),
(442,474.104,o),
(442,555,cs),
(442,653.438,o),
(365.383,718,o),
(270,718,cs),
(175.237,718,o),
(97,651.691,o),
(97,554,cs),
(97,494.067,o),
(138.36,436.851,o),
(172,390,c),
(102.818,332.861,o),
(46,270.057,o),
(46,175,cs),
(46,59.034,o),
(117.599,-11,o),
(233,-11,cs),
(306.589,-11,o),
(358.099,13.422,o),
(406,69,c),
(413.909,57.074,ls),
(438.277,20.328,o),
(468.36,0,o),
(516,0,cs),
(565,0,l),
(565,110.039,l),
(559.781,110.039,ls),
(530.117,110.039,o),
(513.044,120.242,o),
(490.234,150.679,cs),
(481,163,l),
(566,269,l),
(486,340,l)
);
},
{
closed = 1;
nodes = (
(237.51,490.412,o),
(216,526.602,o),
(216,559,cs),
(216,592.395,o),
(235.435,620,o),
(271,620,cs),
(305.071,620,o),
(326,591.182,o),
(326,559,cs),
(326,519.943,o),
(294.836,486.069,o),
(262,461,c)
);
},
{
closed = 1;
nodes = (
(341,158,l),
(315.469,127.091,o),
(286.745,98,o),
(244,98,cs),
(191.068,98,o),
(167,134.665,o),
(167,184,cs),
(167,233.548,o),
(203.532,268.519,o),
(238,299,c)
);
}
);
width = 612;
},
{
layerId = "17EBA7C1-94C5-4917-BF04-666E42EA2D32";
shapes = (
{
closed = 1;
nodes = (
(412,201,l),
(285,382,l),
(341.91,432.575,o),
(404,488.783,o),
(404,571,cs),
(404,656.71,o),
(343.809,717,o),
(258,717,cs),
(172.163,717,o),
(110,654.837,o),
(110,569,cs),
(110,506.211,o),
(153.753,441.017,o),
(196,391,c),
(131.354,331.987,o),
(60,260.791,o),
(60,167,cs),
(60,60.005,o),
(121.678,-10,o),
(231,-10,cs),
(309.504,-10,o),
(360.903,28.677,o),
(408,88,c),
(420.652,68.868,ls),
(444.444,32.075,o),
(480.416,0,o),
(531.498,0,cs),
(551,0,l),
(551,67.041,l),
(544.777,67.041,ls),
(514.352,67.041,o),
(489.829,84.072,o),
(468.155,118.082,cs),
(451,145,l),
(534,257,l),
(485,299,l)
);
},
{
closed = 1;
nodes = (
(211.897,476.058,o),
(179,527.774,o),
(179,571,cs),
(179,618.737,o),
(208.354,655,o),
(258,655,cs),
(306.048,655,o),
(336,618.34,o),
(336,572,cs),
(336,514.592,o),
(286.627,471.222,o),
(247,436,c)
);
},
{
closed = 1;
nodes = (
(369,143,l),
(336.05,99.493,o),
(295.009,54,o),
(236,54,cs),
(166.254,54,o),
(130,103.758,o),
(130,170,cs),
(130,237.141,o),
(185.956,296.187,o),
(233,338,c)
);
}
);
width = 611;
},
{
layerId = "0E6BC793-ECDE-4AD7-84CA-C7A783A2BC64";
shapes = (
{
closed = 1;
nodes = (
(414,161,l),
(487,275,l),
(402,334,l),
(355,258,l),
(293,362,l),
(364,440,o),
(395,501,o),
(395,561,cs),
(395,655,o),
(333,717,o),
(238,717,cs),
(143,717,o),
(79,655,o),
(79,561,cs),
(79,494.583,o),
(107.029,436.553,o),
(153,377,c),
(72,289,o),
(39,225,o),
(39,155,cs),
(39,55,o),
(102,-10,o),
(199,-10,cs),
(263,-10,o),
(311,12,o),
(346,58,c),
(352.143,49.398,ls),
(375.291,17.394,o),
(392.397,0,o),
(437,0,cs),
(486,0,l),
(486,103,l),
(474,103,ls),
(455.194,103,o),
(441.133,114.272,o),
(432,130,cs)
);
},
{
closed = 1;
nodes = (
(217.456,489.345,o),
(193,533.644,o),
(193,567,cs),
(193,596.322,o),
(204.97,624,o),
(238,624,cs),
(266,624,o),
(282,603,o),
(282,567,cs),
(282,530,o),
(269,502,o),
(233,461,c)
);
},
{
closed = 1;
nodes = (
(290,152,l),
(263,115,o),
(240,99,o),
(213,99,cs),
(173.26,99,o),
(158,131.661,o),
(158,167,cs),
(158,205,o),
(174,239,o),
(211,281,c)
);
}
);
width = 526;
},
{
layerId = "D32B31B9-0BB7-473D-9726-FC40C81139B8";
shapes = (
{
closed = 1;
nodes = (
(361,212,l),
(265,376,l),
(341.863,456.643,o),
(373,514.016,o),
(373,575,cs),
(373,659.211,o),
(316.432,717,o),
(234,717,cs),
(152.824,717,o),
(96,658.529,o),
(96,575,cs),
(96,513.133,o),
(143.931,435.311,o),
(176,384,c),
(84.431,281.332,o),
(51,219.016,o),
(51,151,cs),
(51,52.576,o),
(109.689,-10,o),
(202,-10,cs),
(266.884,-10,o),
(313.907,17.176,o),
(356,79,c),
(377,45,ls),
(398.853,9.618,o),
(411.667,-1,o),
(446,-1,cs),
(480,-1,l),
(480,69,l),
(469,69,ls),
(451.565,69,o),
(441.317,76.499,o),
(428,99,cs),
(399,148,l),
(472,268,l),
(417,304,l)
);
},
{
closed = 1;
nodes = (
(193.201,478.857,o),
(171,533.514,o),
(171,578,cs),
(171,623.744,o),
(196.356,653,o),
(236,653,cs),
(275.493,653,o),
(299,625.016,o),
(299,578,cs),
(299,536.788,o),
(280.258,500.867,o),
(227,440,c)
);
},
{
closed = 1;
nodes = (
(318,142,l),
(280.934,83.205,o),
(249.805,60,o),
(208,60,cs),
(156.772,60,o),
(126,95.65,o),
(126,155,cs),
(126,205.364,o),
(149.613,249.906,o),
(214,321,c)
);
}
);
width = 531;
}
);
unicode = 38;
},
{
glyphname = quotesingle;
layers = (
{
layerId = "8252F75B-64DB-41DD-8CF8-30E5C2E9A516";
shapes = (
{
closed = 1;
nodes = (
(39,401,l),
(159,401,l),
(159,707,l),
(39,707,l)
);
}
);
width = 197;
},
{
layerId = "DC39735F-7E79-401F-A303-677125EC6CF0";
shapes = (
{
closed = 1;
nodes = (
(49,450,l),
(132,450,l),
(132,707,l),
(49,707,l)
);
}
);
width = 181;
},
{
layerId = "CF6BFDE9-2838-4146-85B5-55FAC6F26460";
shapes = (
{
closed = 1;
nodes = (
(39,401,l),
(159,401,l),
(159,707,l),
(39,707,l)
);
}
);
width = 197;
},
{
layerId = "17EBA7C1-94C5-4917-BF04-666E42EA2D32";
shapes = (
{
closed = 1;
nodes = (
(54,471,l),
(122,471,l),
(122,707,l),
(54,707,l)
);
}
);
width = 176;
},
{
layerId = "0E6BC793-ECDE-4AD7-84CA-C7A783A2BC64";
shapes = (
{
closed = 1;
nodes = (
(30,408,l),
(145,408,l),
(145,707,l),
(30,707,l)
);
}
);
width = 175;
},
{
layerId = "D32B31B9-0BB7-473D-9726-FC40C81139B8";
shapes = (
{
closed = 1;
nodes = (
(42,469,l),
(112,469,l),
(112,707,l),
(42,707,l)
);
}
);
width = 153;
}
);
unicode = 39;
},
{
glyphname = parenleft;
layers = (
{
layerId = "8252F75B-64DB-41DD-8CF8-30E5C2E9A516";
shapes = (
{
closed = 1;
nodes = (
(284,-86,l),
(211.324,35.567,o),
(173,181.267,o),
(173,336,cs),
(173,489.488,o),
(211.741,635.457,o),
(285,758,c),
(191,758,l),
(96.166,640.459,o),
(47,496.718,o),
(47,337,cs),
(47,181.167,o),
(96.014,36.182,o),
(190,-86,c)
);
}
);
width = 330;
},
{
layerId = "DC39735F-7E79-401F-A303-677125EC6CF0";
shapes = (
{
closed = 1;
nodes = (
(267,-86,l),
(186.047,34.08,o),
(140,187.087,o),
(140,336,cs),
(140,482.913,o),
(186.404,637.106,o),
(267,758,c),
(195,758,l),
(101.678,635.348,o),
(53,490.685,o),
(53,336,cs),
(53,182.781,o),
(101.143,38.694,o),
(194,-86,c)
);
}
);
width = 320;
},
{
layerId = "CF6BFDE9-2838-4146-85B5-55FAC6F26460";
shapes = (
{
closed = 1;
nodes = (
(271,-86,l),
(208.129,41.735,o),
(172,193.664,o),
(172,336,cs),
(172,479.842,o),
(205.786,629.506,o),
(271,758,c),
(179,758,l),
(91.017,631.489,o),
(46,490.187,o),
(46,336,cs),
(46,182.625,o),
(92.201,40.725,o),
(178,-86,c)
);
}
);
width = 317;
},
{
layerId = "17EBA7C1-94C5-4917-BF04-666E42EA2D32";
shapes = (
{
closed = 1;
nodes = (
(234,-86,l),
(166.908,44.19,o),
(131,189.404,o),
(131,336,cs),
(131,482.301,o),
(167.894,627.77,o),
(234,758,c),
(182,758,l),
(103.173,629.563,o),
(60,487.039,o),
(60,336,cs),
(60,185.155,o),
(103.16,42.751,o),
(181,-86,c)
);
}
);
width = 294;
},
{
layerId = "0E6BC793-ECDE-4AD7-84CA-C7A783A2BC64";
shapes = (
{
closed = 1;
nodes = (
(240,-86,l),
(185,50,o),
(156,195,o),
(156,336,cs),
(156,477,o),
(185,622,o),
(240,758,c),
(138,758,l),
(73,635,o),
(39,488,o),
(39,336,cs),
(39,185,o),
(74,36,o),
(138,-86,c)
);
}
);
width = 278;
},
{
layerId = "D32B31B9-0BB7-473D-9726-FC40C81139B8";
shapes = (
{
closed = 1;
nodes = (
(214,-86,l),
(154.398,46.448,o),
(122,195.058,o),
(122,336,cs),
(122,476.275,o),
(154.118,623.597,o),
(214,758,c),
(154,758,l),
(86.294,626.571,o),
(51,481.968,o),
(51,336,cs),
(51,190.821,o),
(86.66,44.719,o),
(154,-86,c)
);
}
);
width = 265;
}
);
unicode = 40;
},
{
glyphname = parenright;
layers = (
{
layerId = "8252F75B-64DB-41DD-8CF8-30E5C2E9A516";
shapes = (
{
closed = 1;
nodes = (
(141,-86,l),
(235.843,35.559,o),
(285,179.958,o),
(285,337,cs),
(285,494.43,o),
(235.416,638.394,o),
(140,758,c),
(47,758,l),
(120.259,635.457,o),
(159,489.488,o),
(159,336,cs),
(159,185.279,o),
(120.018,38.402,o),
(47,-86,c)
);
}
);
width = 330;
},
{
layerId = "DC39735F-7E79-401F-A303-677125EC6CF0";
shapes = (
{
closed = 1;
nodes = (
(127,-86,l),
(219.536,38.262,o),
(267,181.333,o),
(267,336,cs),
(267,491.669,o),
(218.736,636.118,o),
(126,758,c),
(53,758,l),
(134.083,638.369,o),
(180,485.795,o),
(180,336,cs),
(180,184.216,o),
(134.437,32.818,o),
(53,-86,c)
);
}
);
width = 320;
},
{
layerId = "CF6BFDE9-2838-4146-85B5-55FAC6F26460";
shapes = (
{
closed = 1;
nodes = (
(139,-86,l),
(224.799,40.725,o),
(271,182.625,o),
(271,336,cs),
(271,490.187,o),
(225.983,631.489,o),
(138,758,c),
(46,758,l),
(111.214,629.506,o),
(145,479.842,o),
(145,336,cs),
(145,189.934,o),
(110.488,44.984,o),
(46,-86,c)
);
}
);
width = 317;
},
{
layerId = "17EBA7C1-94C5-4917-BF04-666E42EA2D32";
shapes = (
{
closed = 1;
nodes = (
(114,-86,l),
(191.881,42.821,o),
(234,185.198,o),
(234,336,cs),
(234,487.305,o),
(192.516,629.419,o),
(113,758,c),
(60,758,l),
(126.101,627.763,o),
(165,482.452,o),
(165,336,cs),
(165,189.707,o),
(126.877,43.813,o),
(60,-86,c)
);
}
);
width = 294;
},
{
layerId = "0E6BC793-ECDE-4AD7-84CA-C7A783A2BC64";
shapes = (
{
closed = 1;
nodes = (
(140,-86,l),
(205,38,o),
(240,184,o),
(240,336,cs),
(240,488,o),
(205,634,o),
(140,758,c),
(39,758,l),
(95,621,o),
(123,478,o),
(123,336,cs),
(123,191,o),
(95,48,o),
(39,-86,c)
);
}
);
width = 278;
},
{
layerId = "D32B31B9-0BB7-473D-9726-FC40C81139B8";
shapes = (
{
closed = 1;
nodes = (
(112,-86,l),
(178.709,46.084,o),
(214,192.092,o),
(214,336,cs),
(214,480.575,o),
(178.402,627.851,o),
(112,758,c),
(51,758,l),
(111.169,621.618,o),
(143,475.609,o),
(143,336,cs),
(143,192.766,o),
(111.571,48.602,o),
(51,-86,c)
);
}
);
width = 265;
}
);
unicode = 41;
},
{
glyphname = asterisk;
layers = (
{
layerId = "8252F75B-64DB-41DD-8CF8-30E5C2E9A516";
shapes = (
{
closed = 1;
nodes = (
(77,452,l),
(177,503,l),
(177,398,l),
(248,398,l),
(248,502,l),
(347,452,l),
(378,507,l),
(285,554,l),
(377,601,l),
(348,656,l),
(248,605,l),
(248,707,l),
(177,707,l),
(177,606,l),
(77,656,l),
(47,601,l),
(139,554,l),
(47,507,l)
);
}
);
width = 423;
},
{
layerId = "DC39735F-7E79-401F-A303-677125EC6CF0";
shapes = (
{
closed = 1;
nodes = (
(77,468,l),
(183,522,l),
(183,417,l),
(238,417,l),
(238,522,l),
(344,468,l),
(368,514,l),
(263,565,l),
(367,614,l),
(344,660,l),
(238,606,l),
(238,707,l),
(183,707,l),
(183,607,l),
(77,660,l),
(53,614,l),
(158,564,l),
(53,514,l)
);
}
);
width = 420;
},
{
layerId = "CF6BFDE9-2838-4146-85B5-55FAC6F26460";
shapes = (
{
closed = 1;
nodes = (
(78,452,l),
(158,498,l),
(158,398,l),
(228,398,l),
(228,497,l),
(307,452,l),
(340,507,l),
(257,554,l),
(339,601,l),
(308,656,l),
(228,610,l),
(228,707,l),
(158,707,l),
(158,611,l),
(78,656,l),
(46,601,l),
(128,554,l),
(46,507,l)
);
}
);
width = 386;
},
{
layerId = "17EBA7C1-94C5-4917-BF04-666E42EA2D32";
shapes = (
{
closed = 1;
nodes = (
(82,480,l),
(170,531,l),
(170,425,l),
(216,425,l),
(216,531,l),
(305,480,l),
(326,517,l),
(236,569,l),
(326,621,l),
(305,657,l),
(216,606,l),
(216,707,l),
(170,707,l),
(170,606,l),
(82,657,l),
(60,621,l),
(151,569,l),
(60,517,l)
);
}
);
width = 386;
},
{
layerId = "0E6BC793-ECDE-4AD7-84CA-C7A783A2BC64";
shapes = (
{
closed = 1;
nodes = (
(70,463,l),
(138,503,l),
(138,401,l),
(206,401,l),
(206,501,l),
(274,461,l),
(305,514,l),
(232,557,l),
(304,598,l),
(274,650,l),
(206,610,l),
(206,707,l),
(138,707,l),
(138,612,l),
(70,652,l),
(39,598,l),
(111,556,l),
(40,515,l)
);
}
);
width = 344;
},
{
layerId = "D32B31B9-0BB7-473D-9726-FC40C81139B8";
shapes = (
{
closed = 1;
nodes = (
(75,479,l),
(153,524,l),
(153,419,l),
(204,419,l),
(204,524,l),
(282,479,l),
(305,519,l),
(224,565,l),
(304,611,l),
(282,651,l),
(204,606,l),
(204,707,l),
(153,707,l),
(153,607,l),
(75,652,l),
(51,611,l),
(131,565,l),
(51,519,l)
);
}
);
width = 356;
}
);
unicode = 42;
},
{
glyphname = plus;
layers = (
{
layerId = "8252F75B-64DB-41DD-8CF8-30E5C2E9A516";
shapes = (
{
closed = 1;
nodes = (
(49,224,l),
(213,224,l),
(213,60,l),
(330,60,l),
(330,224,l),
(493,224,l),
(493,341,l),
(330,341,l),
(330,505,l),
(213,505,l),
(213,341,l),
(49,341,l)
);
}
);
width = 541;
},
{
layerId = "DC39735F-7E79-401F-A303-677125EC6CF0";
shapes = (
{
closed = 1;
nodes = (
(54,242,l),
(219,242,l),
(219,76,l),
(302,76,l),
(302,242,l),
(467,242,l),
(467,324,l),
(302,324,l),
(302,489,l),
(219,489,l),
(219,324,l),
(54,324,l)
);
}
);
width = 521;
},
{
layerId = "CF6BFDE9-2838-4146-85B5-55FAC6F26460";
shapes = (
{
closed = 1;
nodes = (
(49,224,l),
(213,224,l),
(213,60,l),
(330,60,l),
(330,224,l),
(493,224,l),
(493,341,l),
(330,341,l),
(330,505,l),
(213,505,l),
(213,341,l),
(49,341,l)
);
}
);
width = 541;
},
{
layerId = "17EBA7C1-94C5-4917-BF04-666E42EA2D32";
shapes = (
{
closed = 1;
nodes = (
(58,249,l),
(228,249,l),
(228,79,l),
(296,79,l),
(296,249,l),
(466,249,l),
(466,316,l),
(296,316,l),
(296,486,l),
(228,486,l),
(228,316,l),
(58,316,l)
);
}
);
width = 524;
},
{
layerId = "0E6BC793-ECDE-4AD7-84CA-C7A783A2BC64";
shapes = (
{
closed = 1;
nodes = (
(33,225,l),
(158,225,l),
(158,100,l),
(271,100,l),
(271,225,l),
(396,225,l),
(396,339,l),
(271,339,l),
(271,464,l),
(158,464,l),
(158,339,l),
(33,339,l)
);
}
);
width = 429;
},
{
layerId = "D32B31B9-0BB7-473D-9726-FC40C81139B8";
shapes = (
{
closed = 1;
nodes = (
(41,249,l),
(182,249,l),
(182,109,l),
(249,109,l),
(249,249,l),
(390,249,l),
(390,316,l),
(249,316,l),
(249,457,l),
(182,457,l),
(182,316,l),
(41,316,l)
);
}
);
width = 430;
}
);
unicode = 43;
},
{
glyphname = comma;
layers = (
{
layerId = "8252F75B-64DB-41DD-8CF8-30E5C2E9A516";
shapes = (
{
closed = 1;
nodes = (
(39,-166,l),
(159,-65,l),
(159,140,l),
(39,140,l)
);
}
);
width = 197;
},
{
layerId = "DC39735F-7E79-401F-A303-677125EC6CF0";
shapes = (
{
closed = 1;
nodes = (
(49,-148,l),
(132,-74,l),
(132,110,l),
(49,110,l)
);
}
);
width = 181;
},
{
layerId = "CF6BFDE9-2838-4146-85B5-55FAC6F26460";
shapes = (
{
closed = 1;
nodes = (
(39,-166,l),
(159,-65,l),
(159,140,l),
(39,140,l)
);
}
);
width = 197;
},
{
layerId = "17EBA7C1-94C5-4917-BF04-666E42EA2D32";
shapes = (
{
closed = 1;
nodes = (
(54,-140,l),
(122,-77,l),
(122,95,l),
(54,95,l)
);
}
);
width = 176;
},
{
layerId = "0E6BC793-ECDE-4AD7-84CA-C7A783A2BC64";
shapes = (
{
closed = 1;
nodes = (
(30,-164,l),
(145,-71,l),
(145,136,l),
(30,136,l)
);
}
);
width = 175;
},
{
layerId = "D32B31B9-0BB7-473D-9726-FC40C81139B8";
shapes = (
{
closed = 1;
nodes = (
(42,-144,l),
(112,-84,l),
(112,95,l),
(42,95,l)
);
}
);
width = 153;
}
);
unicode = 44;
},
{
glyphname = hyphen;
layers = (
{
layerId = "8252F75B-64DB-41DD-8CF8-30E5C2E9A516";
shapes = (
{
closed = 1;
nodes = (
(47,295,l),
(364,295,l),
(364,413,l),
(47,413,l)
);
}
);
width = 409;
},
{
layerId = "DC39735F-7E79-401F-A303-677125EC6CF0";
shapes = (
{
closed = 1;
nodes = (
(53,313,l),
(379,313,l),
(379,396,l),
(53,396,l)
);
}
);
width = 432;
},
{
layerId = "CF6BFDE9-2838-4146-85B5-55FAC6F26460";
shapes = (
{
closed = 1;
nodes = (
(60,295,l),
(342,295,l),
(342,413,l),
(60,413,l)
);
}
);
width = 402;
},
{
layerId = "17EBA7C1-94C5-4917-BF04-666E42EA2D32";
shapes = (
{
closed = 1;
nodes = (
(60,322,l),
(342,322,l),
(342,389,l),
(60,389,l)
);
}
);
width = 402;
},
{
layerId = "0E6BC793-ECDE-4AD7-84CA-C7A783A2BC64";
shapes = (
{
closed = 1;
nodes = (
(39,298,l),
(321,298,l),
(321,411,l),
(39,411,l)
);
}
);
width = 359;
},
{
layerId = "D32B31B9-0BB7-473D-9726-FC40C81139B8";
shapes = (
{
closed = 1;
nodes = (
(51,323,l),
(333,323,l),
(333,389,l),
(51,389,l)
);
}
);
width = 384;
}
);
unicode = 45;
},
{
glyphname = period;
layers = (
{
layerId = "8252F75B-64DB-41DD-8CF8-30E5C2E9A516";
shapes = (
{
closed = 1;
nodes = (
(39,0,l),
(181,0,l),
(181,145,l),
(39,145,l)
);
}
);
width = 220;
},
{
layerId = "DC39735F-7E79-401F-A303-677125EC6CF0";
shapes = (
{
closed = 1;
nodes = (
(49,0,l),
(154,0,l),
(154,110,l),
(49,110,l)
);
}
);
width = 202;
},
{
layerId = "CF6BFDE9-2838-4146-85B5-55FAC6F26460";
shapes = (
{
closed = 1;
nodes = (
(39,0,l),
(181,0,l),
(181,145,l),
(39,145,l)
);
}
);
width = 220;
},
{
layerId = "17EBA7C1-94C5-4917-BF04-666E42EA2D32";
shapes = (
{
closed = 1;
nodes = (
(54,0,l),
(144,0,l),
(144,94,l),
(54,94,l)
);
}
);
width = 198;
},
{
layerId = "0E6BC793-ECDE-4AD7-84CA-C7A783A2BC64";
shapes = (
{
closed = 1;
nodes = (
(30,0,l),
(150,0,l),
(150,135,l),
(30,135,l)
);
}
);
width = 179;
},
{
layerId = "D32B31B9-0BB7-473D-9726-FC40C81139B8";
shapes = (
{
closed = 1;
nodes = (
(42,0,l),
(122,0,l),
(122,91,l),
(42,91,l)
);
}
);
width = 163;
}
);
unicode = 46;
},
{
glyphname = slash;
layers = (
{
layerId = "8252F75B-64DB-41DD-8CF8-30E5C2E9A516";
shapes = (
{
closed = 1;
nodes = (
(47,-10,l),
(154,-10,l),
(410,712,l),
(302,712,l)
);
}
);
width = 455;
},
{
layerId = "DC39735F-7E79-401F-A303-677125EC6CF0";
shapes = (
{
closed = 1;
nodes = (
(53,-10,l),
(128,-10,l),
(385,709,l),
(310,709,l)
);
}
);
width = 438;
},
{
layerId = "CF6BFDE9-2838-4146-85B5-55FAC6F26460";
shapes = (
{
closed = 1;
nodes = (
(46,-10,l),
(152,-10,l),
(369,712,l),
(262,712,l)
);
}
);
width = 414;
},
{
layerId = "17EBA7C1-94C5-4917-BF04-666E42EA2D32";
shapes = (
{
closed = 1;
nodes = (
(60,-10,l),
(122,-10,l),
(341,707,l),
(280,707,l)
);
}
);
width = 401;
},
{
layerId = "0E6BC793-ECDE-4AD7-84CA-C7A783A2BC64";
shapes = (
{
closed = 1;
nodes = (
(39,-10,l),
(132,-10,l),
(266,715,l),
(172,715,l)
);
}
);
width = 305;
},
{
layerId = "D32B31B9-0BB7-473D-9726-FC40C81139B8";
shapes = (
{
closed = 1;
nodes = (
(51,-10,l),
(118,-10,l),
(252,707,l),
(185,707,l)
);
}
);
width = 303;
}
);
unicode = 47;
},
{
glyphname = zero;
layers = (
{
layerId = "8252F75B-64DB-41DD-8CF8-30E5C2E9A516";
shapes = (
{
closed = 1;
nodes = (
(451.418,-11,o),
(531,75.969,o),
(531,248,cs),
(531,467,ls),
(531,633.686,o),
(451.389,718,o),
(294,718,cs),
(137.615,718,o),
(56,631.927,o),
(56,467,cs),
(56,248,ls),
(56,75.333,o),
(135.333,-11,o),
(294,-11,cs)
);
},
{
closed = 1;
nodes = (
(221.216,105,o),
(191,150.178,o),
(191,259,cs),
(191,447,ls),
(191,555.466,o),
(220.98,600,o),
(294,600,cs),
(367.02,600,o),
(397,555.466,o),
(397,447,cs),
(397,259,ls),
(397,151.673,o),
(365.784,105,o),
(294,105,cs)
);
}
);
width = 577;
},
{
layerId = "DC39735F-7E79-401F-A303-677125EC6CF0";
shapes = (
{
closed = 1;
nodes = (
(426.765,-10,o),
(502,78.23,o),
(502,248,cs),
(502,464,ls),
(502,630.9,o),
(427.13,717,o),
(282,717,cs),
(136.87,717,o),
(62,630.9,o),
(62,464,cs),
(62,248,ls),
(62,78.612,o),
(137.56,-10,o),
(282,-10,cs)
);
},
{
closed = 1;
nodes = (
(194.154,73,o),
(156,128.111,o),
(156,255,cs),
(156,452,ls),
(156,578.889,o),
(194.154,634,o),
(282,634,cs),
(370.194,634,o),
(409,578.388,o),
(409,452,cs),
(409,255,ls),
(409,130.613,o),
(368.798,73,o),
(282,73,cs)
);
}
);
width = 562;
},
{
layerId = "CF6BFDE9-2838-4146-85B5-55FAC6F26460";
shapes = (
{
closed = 1;
nodes = (
(418.603,-11,o),
(473,88.233,o),
(473,232,cs),
(473,482,ls),
(473,624.535,o),
(414.571,718,o),
(262,718,cs),
(112.315,718,o),
(51,621.936,o),
(51,482,cs),
(51,232,ls),
(51,88.233,o),
(105.397,-11,o),
(262,-11,cs)
);
},
{
closed = 1;
nodes = (
(194.38,105,o),
(186,188.058,o),
(186,244,cs),
(186,463,ls),
(186,519.132,o),
(194.477,600,o),
(262,600,cs),
(329.523,600,o),
(339,520.297,o),
(339,463,cs),
(339,244,ls),
(339,187.044,o),
(329.62,105,o),
(262,105,cs)
);
}
);
width = 524;
},
{
layerId = "17EBA7C1-94C5-4917-BF04-666E42EA2D32";
shapes = (
{
closed = 1;
nodes = (
(394.274,-10,o),
(437,89.74,o),
(437,216,cs),
(437,495,ls),
(437,621.022,o),
(392.572,717,o),
(252,717,cs),
(111.908,717,o),
(68,620.213,o),
(68,495,cs),
(68,216,ls),
(68,90.556,o),
(110.225,-10,o),
(252,-10,cs)
);
},
{
closed = 1;
nodes = (
(149.15,57,o),
(142,150.261,o),
(142,230,cs),
(142,476,ls),
(142,555.751,o),
(149.155,649,o),
(252,649,cs),
(354.845,649,o),
(362,555.751,o),
(362,476,cs),
(362,230,ls),
(362,150.249,o),
(354.845,57,o),
(252,57,cs)
);
}
);
width = 504;
},
{
layerId = "0E6BC793-ECDE-4AD7-84CA-C7A783A2BC64";
shapes = (
{
closed = 1;
nodes = (
(323,-10,o),
(380,56,o),
(380,190,cs),
(380,518,ls),
(380,652,o),
(323,718,o),
(209,718,cs),
(95,718,o),
(39,652,o),
(39,518,cs),
(39,190,ls),
(39,56,o),
(95,-10,o),
(209,-10,cs)
);
},
{
closed = 1;
nodes = (
(169.024,103.387,o),
(165,159.031,o),
(165,191,cs),
(165,517,ls),
(165,550.96,o),
(167.288,604.387,o),
(209,604,cs),
(250.712,603.613,o),
(255,551.823,o),
(255,517,cs),
(255,191,ls),
(255,157.147,o),
(248.976,102.613,o),
(209,103,cs)
);
}
);
width = 418;
},
{
layerId = "D32B31B9-0BB7-473D-9726-FC40C81139B8";
shapes = (
{
closed = 1;
nodes = (
(308.333,-9,o),
(359,53.333,o),
(359,178,cs),
(359,529,ls),
(359,653.668,o),
(309,716,o),
(207,716,cs),
(104.331,716,o),
(53,653,o),
(53,529,cs),
(53,178,ls),
(53,53.333,o),
(104.333,-9,o),
(207,-9,cs)
);
},
{
closed = 1;
nodes = (
(148.54,57,o),
(128,91.321,o),
(128,189,cs),
(128,517,ls),
(128,614.679,o),
(148.54,649,o),
(207,649,cs),
(265.091,649,o),
(285,615.308,o),
(285,517,cs),
(285,189,ls),
(285,95.135,o),
(262.466,57,o),
(207,57,cs)
);
}
);
width = 412;
}
);
unicode = 48;
},
{
glyphname = zero.dnom;
layers = (
{
layerId = "8252F75B-64DB-41DD-8CF8-30E5C2E9A516";
shapes = (
{
closed = 1;
nodes = (
(40,149.899,ls),
(40,49.978,o),
(93.76,-7,o),
(208.109,-7,cs),
(321.196,-7,o),
(375,50.359,o),
(375,149.899,cs),
(375,286.219,ls),
(375,380.418,o),
(321.112,435,o),
(208.109,435,cs),
(96.779,435,o),
(40,378.351,o),
(40,286.219,cs)
);
},
{
closed = 1;
nodes = (
(162.885,84,o),
(145,109.277,o),
(145,148.206,cs),
(145,281.24,ls),
(145,319.692,o),
(163.475,345,o),
(208.462,345,cs),
(253.05,345,o),
(270,320.542,o),
(270,281.24,cs),
(270,148.206,ls),
(270,108.054,o),
(254.044,84,o),
(208.462,84,cs)
);
}
);
width = 415;
},
{
layerId = "DC39735F-7E79-401F-A303-677125EC6CF0";
shapes = (
{
closed = 1;
nodes = (
(281.541,-6,o),
(329,51.715,o),
(329,149.864,cs),
(329,283.304,ls),
(329,379.225,o),
(282.592,434,o),
(183.92,434,cs),
(89.152,434,o),
(40,376.173,o),
(40,283.304,cs),
(40,149.864,ls),
(40,52.199,o),
(87.556,-6,o),
(183.92,-6,cs)
);
},
{
closed = 1;
nodes = (
(129.357,53,o),
(110,84.304,o),
(110,144.444,cs),
(110,285.84,ls),
(110,344.18,o),
(129.059,374,o),
(184,374,cs),
(237.9,374,o),
(258,343.074,o),
(258,285.84,cs),
(258,144.444,ls),
(258,84.857,o),
(238.14,53,o),
(184,53,cs)
);
}
);
width = 369;
},
{
layerId = "CF6BFDE9-2838-4146-85B5-55FAC6F26460";
shapes = (
{
closed = 1;
nodes = (
(272.832,-7,o),
(317,42.004,o),
(317,145,cs),
(317,291,ls),
(317,388.503,o),
(272.764,435,o),
(180,435,cs),
(88.61,435,o),
(42,386.364,o),
(42,291,cs),
(42,145,ls),
(42,41.609,o),
(86.132,-7,o),
(180,-7,cs)
);
},
{
closed = 1;
nodes = (
(156.3,84,o),
(147,100.064,o),
(147,141,cs),
(147,288,ls),
(147,328.406,o),
(156.607,345,o),
(180,345,cs),
(203.186,345,o),
(212,329.3,o),
(212,288,cs),
(212,141,ls),
(212,98.779,o),
(203.703,84,o),
(180,84,cs)
);
}
);
width = 359;
},
{
layerId = "17EBA7C1-94C5-4917-BF04-666E42EA2D32";
shapes = (
{
closed = 1;
nodes = (
(250.11,-6,o),
(291,43.395,o),
(291,145,cs),
(291,288,ls),
(291,387.297,o),
(251.015,434,o),
(166,434,cs),
(84.349,434,o),
(42,384.137,o),
(42,288,cs),
(42,145,ls),
(42,43.896,o),
(82.974,-6,o),
(166,-6,cs)
);
},
{
closed = 1;
nodes = (
(126.126,53,o),
(112,75.235,o),
(112,138,cs),
(112,292,ls),
(112,352.881,o),
(125.908,374,o),
(166,374,cs),
(205.332,374,o),
(220,351.727,o),
(220,292,cs),
(220,138,ls),
(220,75.812,o),
(205.508,53,o),
(166,53,cs)
);
}
);
width = 333;
},
{
layerId = "0E6BC793-ECDE-4AD7-84CA-C7A783A2BC64";
shapes = (
{
closed = 1;
nodes = (
(221.165,-6,o),
(259,32.167,o),
(259,109,cs),
(259,320,ls),
(259,396,o),
(221,434,o),
(145,434,cs),
(69.333,434,o),
(32,396.336,o),
(32,320,cs),
(32,109,ls),
(32,32.336,o),
(69.67,-6,o),
(145,-6,cs)
);
},
{
closed = 1;
nodes = (
(124.604,70,o),
(116,82.164,o),
(116,111,cs),
(116,318,ls),
(116,347.645,o),
(124.032,359,o),
(145,359,cs),
(166.581,359,o),
(176,346.543,o),
(176,318,cs),
(176,111,ls),
(176,83.266,o),
(165.969,70,o),
(145,70,cs)
);
}
);
width = 291;
},
{
layerId = "D32B31B9-0BB7-473D-9726-FC40C81139B8";
shapes = (
{
closed = 1;
nodes = (
(214.887,-6,o),
(249,35.062,o),
(249,124,cs),
(249,310,ls),
(249,396.123,o),
(213.667,438,o),
(141,438,cs),
(68.776,438,o),
(34,396.399,o),
(34,310,cs),
(34,124,ls),
(34,37.185,o),
(69.545,-6,o),
(141,-6,cs)
);
},
{
closed = 1;
nodes = (
(114.212,58,o),
(104,76.216,o),
(104,124,cs),
(104,310,ls),
(104,355.73,o),
(114.562,374,o),
(141,374,cs),
(168.49,374,o),
(178,357.55,o),
(178,310,cs),
(178,124,ls),
(178,77.171,o),
(167.252,58,o),
(141,58,cs)
);
}
);
width = 283;
}
);
},
{
glyphname = zero.numr;
leftMetricsKey = zero.dnom;
rightMetricsKey = zero.dnom;
layers = (
{
layerId = "8252F75B-64DB-41DD-8CF8-30E5C2E9A516";
shapes = (
{
closed = 1;
nodes = (
(40.369,429.938,ls),
(40.369,330.016,o),
(94.13,273.039,o),
(208.479,273.039,cs),
(321.565,273.039,o),
(375.369,330.398,o),
(375.369,429.938,cs),
(375.369,566.257,ls),
(375.369,660.456,o),
(321.481,715.039,o),
(208.479,715.039,cs),
(97.148,715.039,o),
(40.369,658.389,o),
(40.369,566.257,cs)
);
},
{
closed = 1;
nodes = (
(163.255,364.039,o),
(145.369,389.315,o),
(145.369,428.245,cs),
(145.369,561.279,ls),
(145.369,599.73,o),
(163.845,625.039,o),
(208.831,625.039,cs),
(253.419,625.039,o),
(270.369,600.581,o),
(270.369,561.279,cs),
(270.369,428.245,ls),
(270.369,388.093,o),
(254.414,364.039,o),
(208.831,364.039,cs)
);
}
);
width = 416;
},
{
layerId = "DC39735F-7E79-401F-A303-677125EC6CF0";
shapes = (
{
closed = 1;
nodes = (
(282.41,273.278,o),
(329.869,330.993,o),
(329.869,429.142,cs),
(329.869,562.581,ls),
(329.869,658.503,o),
(283.461,713.278,o),
(184.789,713.278,cs),
(90.021,713.278,o),
(40.869,655.45,o),
(40.869,562.581,cs),
(40.869,429.142,ls),
(40.869,331.477,o),
(88.425,273.278,o),
(184.789,273.278,cs)
);
},
{
closed = 1;
nodes = (
(130.226,332.278,o),
(110.869,363.582,o),
(110.869,423.721,cs),
(110.869,565.118,ls),
(110.869,623.458,o),
(129.928,653.278,o),
(184.869,653.278,cs),
(238.769,653.278,o),
(258.869,622.352,o),
(258.869,565.118,cs),
(258.869,423.721,ls),
(258.869,364.135,o),
(239.01,332.278,o),
(184.869,332.278,cs)
);
}
);
width = 370;
},
{
layerId = "CF6BFDE9-2838-4146-85B5-55FAC6F26460";
shapes = (
{
closed = 1;
nodes = (
(272.832,270,o),
(317,319.004,o),
(317,422,cs),
(317,568,ls),
(317,665.503,o),
(272.764,712,o),
(180,712,cs),
(88.61,712,o),
(42,663.364,o),
(42,568,cs),
(42,422,ls),
(42,318.609,o),
(86.132,270,o),
(180,270,cs)
);
},
{
closed = 1;
nodes = (
(156.3,361,o),
(147,377.064,o),
(147,418,cs),
(147,565,ls),
(147,605.406,o),
(156.607,622,o),
(180,622,cs),
(203.186,622,o),
(212,606.3,o),
(212,565,cs),
(212,418,ls),
(212,375.779,o),
(203.703,361,o),
(180,361,cs)
);
}
);
width = 359;
},
{
layerId = "17EBA7C1-94C5-4917-BF04-666E42EA2D32";
shapes = (
{
closed = 1;
nodes = (
(250.11,274,o),
(291,323.395,o),
(291,425,cs),
(291,568,ls),
(291,667.297,o),
(251.015,714,o),
(166,714,cs),
(84.349,714,o),
(42,664.137,o),
(42,568,cs),
(42,425,ls),
(42,323.896,o),
(82.974,274,o),
(166,274,cs)
);
},
{
closed = 1;
nodes = (
(126.126,333,o),
(112,355.235,o),
(112,418,cs),
(112,572,ls),
(112,632.881,o),
(125.908,654,o),
(166,654,cs),
(205.332,654,o),
(220,631.727,o),
(220,572,cs),
(220,418,ls),
(220,355.812,o),
(205.508,333,o),
(166,333,cs)
);
}
);
width = 333;
},
{
layerId = "0E6BC793-ECDE-4AD7-84CA-C7A783A2BC64";
shapes = (
{
closed = 1;
nodes = (
(221.165,273,o),
(259,311.167,o),
(259,388,cs),
(259,599,ls),
(259,675,o),
(221,713,o),
(145,713,cs),
(69.333,713,o),
(32,675.336,o),
(32,599,cs),
(32,388,ls),
(32,311.336,o),
(69.67,273,o),
(145,273,cs)
);
},
{
closed = 1;
nodes = (
(124.604,349,o),
(116,361.164,o),
(116,390,cs),
(116,597,ls),
(116,626.645,o),
(124.032,638,o),
(145,638,cs),
(166.581,638,o),
(176,625.543,o),
(176,597,cs),
(176,390,ls),
(176,362.266,o),
(165.969,349,o),
(145,349,cs)
);
}
);
width = 291;
},
{
layerId = "D32B31B9-0BB7-473D-9726-FC40C81139B8";
shapes = (
{
closed = 1;
nodes = (
(214.887,273,o),
(249,314.062,o),
(249,403,cs),
(249,589,ls),
(249,675.123,o),
(213.667,717,o),
(141,717,cs),
(68.776,717,o),
(34,675.399,o),
(34,589,cs),
(34,403,ls),
(34,316.185,o),
(69.545,273,o),
(141,273,cs)
);
},
{
closed = 1;
nodes = (
(114.212,337,o),
(104,355.216,o),
(104,403,cs),
(104,589,ls),
(104,634.73,o),
(114.562,653,o),
(141,653,cs),
(168.49,653,o),
(178,636.55,o),
(178,589,cs),
(178,403,ls),
(178,356.171,o),
(167.252,337,o),
(141,337,cs)
);
}
);
width = 283;
}
);
},
{
glyphname = zero.osf;
layers = (
{
layerId = "8252F75B-64DB-41DD-8CF8-30E5C2E9A516";
shapes = (
{
closed = 1;
nodes = (
(51,228,ls),
(51,69.333,o),
(130.333,-10,o),
(289,-10,cs),
(446.669,-10,o),
(526,69.665,o),
(526,228,cs),
(526,310,ls),
(526,463.325,o),
(446.307,541,o),
(289,541,cs),
(132.697,541,o),
(51,461.706,o),
(51,310,cs)
);
},
{
closed = 1;
nodes = (
(186,322,ls),
(186,386.979,o),
(222.734,423,o),
(289,423,cs),
(355.266,423,o),
(392,386.979,o),
(392,322,cs),
(392,208,ls),
(392,142.507,o),
(355.135,106,o),
(289,106,cs),
(222.981,106,o),
(186,142.622,o),
(186,208,cs)
);
}
);
width = 577;
},
{
layerId = "DC39735F-7E79-401F-A303-677125EC6CF0";
shapes = (
{
closed = 1;
nodes = (
(419.328,-10,o),
(501,75.013,o),
(501,219,cs),
(501,309,ls),
(501,450.074,o),
(419.555,533,o),
(281,533,cs),
(142.445,533,o),
(61,450.074,o),
(61,309,cs),
(61,219,ls),
(61,74.809,o),
(142.476,-10,o),
(281,-10,cs)
);
},
{
closed = 1;
nodes = (
(197.754,73,o),
(155,117.451,o),
(155,204,cs),
(155,319,ls),
(155,405.549,o),
(197.754,450,o),
(281,450,cs),
(364.531,450,o),
(408,405.162,o),
(408,319,cs),
(408,204,ls),
(408,118.067,o),
(364.309,73,o),
(281,73,cs)
);
}
);
width = 562;
},
{
layerId = "CF6BFDE9-2838-4146-85B5-55FAC6F26460";
shapes = (
{
closed = 1;
nodes = (
(391.561,-10,o),
(462,65.447,o),
(462,216,cs),
(462,322,ls),
(462,469.774,o),
(391.452,544,o),
(251,544,cs),
(111.388,544,o),
(41,469.59,o),
(41,322,cs),
(41,216,ls),
(41,65.637,o),
(111.282,-10,o),
(251,-10,cs)
);
},
{
closed = 1;
nodes = (
(201.614,117,o),
(174,149.635,o),
(174,208,cs),
(174,325,ls),
(174,383.365,o),
(201.614,416,o),
(251,416,cs),
(300.386,416,o),
(328,383.365,o),
(328,325,cs),
(328,208,ls),
(328,149.635,o),
(300.386,117,o),
(251,117,cs)
);
}
);
width = 524;
},
{
layerId = "17EBA7C1-94C5-4917-BF04-666E42EA2D32";
shapes = (
{
closed = 1;
nodes = (
(374.974,-10,o),
(437,65.772,o),
(437,216,cs),
(437,307,ls),
(437,454.542,o),
(374.952,529,o),
(252,529,cs),
(129.908,529,o),
(68,454.306,o),
(68,307,cs),
(68,216,ls),
(68,66.016,o),
(129.889,-10,o),
(252,-10,cs)
);
},
{
closed = 1;
nodes = (
(181.776,57,o),
(142,101.477,o),
(142,180,cs),
(142,338,ls),
(142,416.523,o),
(181.776,461,o),
(252,461,cs),
(322.224,461,o),
(362,416.523,o),
(362,338,cs),
(362,180,ls),
(362,101.477,o),
(322.224,57,o),
(252,57,cs)
);
}
);
width = 504;
},
{
layerId = "0E6BC793-ECDE-4AD7-84CA-C7A783A2BC64";
shapes = (
{
closed = 1;
nodes = (
(322.285,-10,o),
(379,56.333,o),
(379,190,cs),
(379,349,ls),
(379,482.667,o),
(322.285,549,o),
(208,549,cs),
(94.05,549,o),
(38,483.059,o),
(38,349,cs),
(38,190,ls),
(38,55.941,o),
(94.05,-10,o),
(208,-10,cs)
);
},
{
closed = 1;
nodes = (
(178.704,103,o),
(164,125.725,o),
(164,171,cs),
(164,368,ls),
(164,413.84,o),
(177.896,435,o),
(208,435,cs),
(238.907,435,o),
(254,413.017,o),
(254,368,cs),
(254,171,ls),
(254,126.056,o),
(238.403,103,o),
(208,103,cs)
);
}
);
width = 418;
},
{
layerId = "D32B31B9-0BB7-473D-9726-FC40C81139B8";
shapes = (
{
closed = 1;
nodes = (
(308.333,-9,o),
(359,53.333,o),
(359,178,cs),
(359,352,ls),
(359,476.667,o),
(308.333,539,o),
(207,539,cs),
(104.607,539,o),
(53,476.335,o),
(53,352,cs),
(53,178,ls),
(53,53.333,o),
(104.333,-9,o),
(207,-9,cs)
);
},
{
closed = 1;
nodes = (
(148.54,57,o),
(128,91.321,o),
(128,189,cs),
(128,340,ls),
(128,437.679,o),
(148.54,472,o),
(207,472,cs),
(265.091,472,o),
(285,438.308,o),
(285,340,cs),
(285,189,ls),
(285,95.135,o),
(262.466,57,o),
(207,57,cs)
);
}
);
width = 412;
}
);
},
{
glyphname = zero.sups;
leftMetricsKey = zero.dnom;
rightMetricsKey = zero.dnom;
layers = (
{
layerId = "8252F75B-64DB-41DD-8CF8-30E5C2E9A516";
shapes = (
{
closed = 1;
nodes = (
(40,582.899,ls),
(40,482.978,o),
(93.76,426,o),
(208.109,426,cs),
(321.196,426,o),
(375,483.359,o),
(375,582.899,cs),
(375,719.219,ls),
(375,813.418,o),
(321.112,868,o),
(208.109,868,cs),
(96.779,868,o),
(40,811.351,o),
(40,719.219,cs)
);
},
{
closed = 1;
nodes = (
(162.885,517,o),
(145,542.277,o),
(145,581.206,cs),
(145,714.24,ls),
(145,752.692,o),
(163.475,778,o),
(208.462,778,cs),
(253.05,778,o),
(270,753.542,o),
(270,714.24,cs),
(270,581.206,ls),
(270,541.054,o),
(254.044,517,o),
(208.462,517,cs)
);
}
);
width = 415;
},
{
layerId = "DC39735F-7E79-401F-A303-677125EC6CF0";
shapes = (
{
closed = 1;
nodes = (
(281.541,427,o),
(329,484.715,o),
(329,582.864,cs),
(329,716.304,ls),
(329,812.225,o),
(282.592,867,o),
(183.92,867,cs),
(89.152,867,o),
(40,809.173,o),
(40,716.304,cs),
(40,582.864,ls),
(40,485.199,o),
(87.556,427,o),
(183.92,427,cs)
);
},
{
closed = 1;
nodes = (
(129.357,486,o),
(110,517.304,o),
(110,577.444,cs),
(110,718.84,ls),
(110,777.18,o),
(129.059,807,o),
(184,807,cs),
(237.9,807,o),
(258,776.074,o),
(258,718.84,cs),
(258,577.444,ls),
(258,517.857,o),
(238.14,486,o),
(184,486,cs)
);
}
);
width = 369;
},
{
layerId = "CF6BFDE9-2838-4146-85B5-55FAC6F26460";
shapes = (
{
closed = 1;
nodes = (
(272.832,426,o),
(317,475.004,o),
(317,578,cs),
(317,724,ls),
(317,821.503,o),
(272.764,868,o),
(180,868,cs),
(88.61,868,o),
(42,819.364,o),
(42,724,cs),
(42,578,ls),
(42,474.609,o),
(86.132,426,o),
(180,426,cs)
);
},
{
closed = 1;
nodes = (
(156.3,517,o),
(147,533.064,o),
(147,574,cs),
(147,721,ls),
(147,761.406,o),
(156.607,778,o),
(180,778,cs),
(203.186,778,o),
(212,762.3,o),
(212,721,cs),
(212,574,ls),
(212,531.779,o),
(203.703,517,o),
(180,517,cs)
);
}
);
width = 359;
},
{
layerId = "17EBA7C1-94C5-4917-BF04-666E42EA2D32";
shapes = (
{
closed = 1;
nodes = (
(250.11,427,o),
(291,476.395,o),
(291,578,cs),
(291,721,ls),
(291,820.297,o),
(251.015,867,o),
(166,867,cs),
(84.349,867,o),
(42,817.137,o),
(42,721,cs),
(42,578,ls),
(42,476.896,o),
(82.974,427,o),
(166,427,cs)
);
},
{
closed = 1;
nodes = (
(126.126,486,o),
(112,508.235,o),
(112,571,cs),
(112,725,ls),
(112,785.881,o),
(125.908,807,o),
(166,807,cs),
(205.332,807,o),
(220,784.727,o),
(220,725,cs),
(220,571,ls),
(220,508.812,o),
(205.508,486,o),
(166,486,cs)
);
}
);
width = 333;
},
{
layerId = "0E6BC793-ECDE-4AD7-84CA-C7A783A2BC64";
shapes = (
{
closed = 1;
nodes = (
(221.165,427,o),
(259,465.167,o),
(259,542,cs),
(259,753,ls),
(259,829,o),
(221,867,o),
(145,867,cs),
(69.333,867,o),
(32,829.336,o),
(32,753,cs),
(32,542,ls),
(32,465.336,o),
(69.67,427,o),
(145,427,cs)
);
},
{
closed = 1;
nodes = (
(124.604,503,o),
(116,515.164,o),
(116,544,cs),
(116,751,ls),
(116,780.645,o),
(124.032,792,o),
(145,792,cs),
(166.581,792,o),
(176,779.543,o),
(176,751,cs),
(176,544,ls),
(176,516.266,o),
(165.969,503,o),
(145,503,cs)
);
}
);
width = 291;
},
{
layerId = "D32B31B9-0BB7-473D-9726-FC40C81139B8";
shapes = (
{
closed = 1;
nodes = (
(214.887,427,o),
(249,468.062,o),
(249,557,cs),
(249,743,ls),
(249,829.123,o),
(213.667,871,o),
(141,871,cs),
(68.776,871,o),
(34,829.399,o),
(34,743,cs),
(34,557,ls),
(34,470.185,o),
(69.545,427,o),
(141,427,cs)
);
},
{
closed = 1;
nodes = (
(114.212,491,o),
(104,509.216,o),
(104,557,cs),
(104,743,ls),
(104,788.73,o),
(114.562,807,o),
(141,807,cs),
(168.49,807,o),
(178,790.55,o),
(178,743,cs),
(178,557,ls),
(178,510.171,o),
(167.252,491,o),
(141,491,cs)
);
}
);
width = 283;
}
);
},
{
glyphname = one;
layers = (
{
layerId = "8252F75B-64DB-41DD-8CF8-30E5C2E9A516";
shapes = (
{
closed = 1;
nodes = (
(187,0,l),
(322,0,l),
(322,707,l),
(187,707,l),
(37,617,l),
(37,479,l),
(187,566,l)
);
}
);
width = 388;
},
{
layerId = "DC39735F-7E79-401F-A303-677125EC6CF0";
shapes = (
{
closed = 1;
nodes = (
(197,0,l),
(290,0,l),
(290,707,l),
(197,707,l),
(46,610,l),
(46,511,l),
(197,605,l)
);
}
);
width = 370;
},
{
layerId = "CF6BFDE9-2838-4146-85B5-55FAC6F26460";
shapes = (
{
closed = 1;
nodes = (
(156,0,l),
(290,0,l),
(290,707,l),
(156,707,l),
(37,617,l),
(37,472,l),
(156,558,l)
);
}
);
width = 356;
},
{
layerId = "17EBA7C1-94C5-4917-BF04-666E42EA2D32";
shapes = (
{
closed = 1;
nodes = (
(173,0,l),
(247,0,l),
(247,707,l),
(172,707,l),
(51,613,l),
(51,529,l),
(173,621,l)
);
}
);
width = 336;
},
{
layerId = "0E6BC793-ECDE-4AD7-84CA-C7A783A2BC64";
shapes = (
{
closed = 1;
nodes = (
(125,0,l),
(253,0,l),
(253,707,l),
(125,707,l),
(28,628,l),
(28,481,l),
(125,560,l)
);
}
);
width = 300;
},
{
layerId = "D32B31B9-0BB7-473D-9726-FC40C81139B8";
shapes = (
{
closed = 1;
nodes = (
(144,0,l),
(213,0,l),
(213,707,l),
(144,707,l),
(40,625,l),
(40,538,l),
(144,620,l)
);
}
);
width = 280;
}
);
unicode = 49;
},
{
glyphname = one.dnom;
layers = (
{
layerId = "8252F75B-64DB-41DD-8CF8-30E5C2E9A516";
shapes = (
{
closed = 1;
nodes = (
(103,0,l),
(208,0,l),
(208,429,l),
(103,429,l),
(12,378,l),
(12,270,l),
(103,320,l)
);
}
);
width = 258;
},
{
layerId = "DC39735F-7E79-401F-A303-677125EC6CF0";
shapes = (
{
closed = 1;
nodes = (
(99.911,0,l),
(179.911,0,l),
(179.911,427,l),
(99.911,427,l),
(12.911,374,l),
(12.911,291,l),
(99.911,345,l)
);
}
);
width = 240;
},
{
layerId = "CF6BFDE9-2838-4146-85B5-55FAC6F26460";
shapes = (
{
closed = 1;
nodes = (
(99,0,l),
(205,0,l),
(205,429,l),
(100,429,l),
(30,378,l),
(30,265,l),
(99,314,l)
);
}
);
width = 259;
},
{
layerId = "17EBA7C1-94C5-4917-BF04-666E42EA2D32";
shapes = (
{
closed = 1;
nodes = (
(101,0,l),
(172,0,l),
(172,427,l),
(101,427,l),
(27,372,l),
(27,296,l),
(101,352,l)
);
}
);
width = 227;
},
{
layerId = "0E6BC793-ECDE-4AD7-84CA-C7A783A2BC64";
shapes = (
{
closed = 1;
nodes = (
(90,0,l),
(175,0,l),
(175,427,l),
(90,427,l),
(25,383,l),
(25,285,l),
(90,329,l)
);
}
);
width = 220;
},
{
layerId = "D32B31B9-0BB7-473D-9726-FC40C81139B8";
shapes = (
{
closed = 1;
nodes = (
(85,0,l),
(158,0,l),
(158,428,l),
(85,428,l),
(22,378,l),
(22,297,l),
(85,348,l)
);
}
);
width = 203;
}
);
},
{
glyphname = one.numr;
leftMetricsKey = one.dnom;
rightMetricsKey = one.dnom;
layers = (
{
layerId = "8252F75B-64DB-41DD-8CF8-30E5C2E9A516";
shapes = (
{
closed = 1;
nodes = (
(103.57,279.671,l),
(208.57,279.671,l),
(208.57,708.671,l),
(103.57,708.671,l),
(12.57,657.671,l),
(12.57,549.671,l),
(103.57,599.671,l)
);
}
);
width = 259;
},
{
layerId = "DC39735F-7E79-401F-A303-677125EC6CF0";
shapes = (
{
closed = 1;
nodes = (
(99.026,279.986,l),
(179.026,279.986,l),
(179.026,706.986,l),
(99.026,706.986,l),
(12.026,653.986,l),
(12.026,570.986,l),
(99.026,624.986,l)
);
}
);
width = 240;
},
{
layerId = "CF6BFDE9-2838-4146-85B5-55FAC6F26460";
shapes = (
{
closed = 1;
nodes = (
(99,280,l),
(205,280,l),
(205,709,l),
(100,709,l),
(30,658,l),
(30,545,l),
(99,594,l)
);
}
);
width = 259;
},
{
layerId = "17EBA7C1-94C5-4917-BF04-666E42EA2D32";
shapes = (
{
closed = 1;
nodes = (
(101,280,l),
(172,280,l),
(172,707,l),
(101,707,l),
(27,652,l),
(27,576,l),
(101,632,l)
);
}
);
width = 227;
},
{
layerId = "0E6BC793-ECDE-4AD7-84CA-C7A783A2BC64";
shapes = (
{
closed = 1;
nodes = (
(90,280,l),
(175,280,l),
(175,707,l),
(90,707,l),
(25,663,l),
(25,565,l),
(90,609,l)
);
}
);
width = 220;
},
{
layerId = "D32B31B9-0BB7-473D-9726-FC40C81139B8";
shapes = (
{
closed = 1;
nodes = (
(85,280,l),
(158,280,l),
(158,708,l),
(85,708,l),
(22,658,l),
(22,577,l),
(85,628,l)
);
}
);
width = 203;
}
);
},
{
glyphname = one.osf;
layers = (
{
layerId = "8252F75B-64DB-41DD-8CF8-30E5C2E9A516";
shapes = (
{
closed = 1;
nodes = (
(187,0,l),
(322,0,l),
(322,543,l),
(187,543,l),
(37,453,l),
(37,315,l),
(187,402,l)
);
}
);
width = 388;
},
{
layerId = "DC39735F-7E79-401F-A303-677125EC6CF0";
shapes = (
{
closed = 1;
nodes = (
(197,0,l),
(290,0,l),
(290,533,l),
(197,533,l),
(46,436,l),
(46,337,l),
(197,431,l)
);
}
);
width = 370;
},
{
layerId = "CF6BFDE9-2838-4146-85B5-55FAC6F26460";
shapes = (
{
closed = 1;
nodes = (
(156,0,l),
(290,0,l),
(290,543,l),
(156,543,l),
(37,453,l),
(37,308,l),
(156,394,l)
);
}
);
width = 356;
},
{
layerId = "17EBA7C1-94C5-4917-BF04-666E42EA2D32";
shapes = (
{
closed = 1;
nodes = (
(173,0,l),
(247,0,l),
(247,529,l),
(172,529,l),
(51,435,l),
(51,351,l),
(173,443,l)
);
}
);
width = 336;
},
{
layerId = "0E6BC793-ECDE-4AD7-84CA-C7A783A2BC64";
shapes = (
{
closed = 1;
nodes = (
(125,0,l),
(253,0,l),
(253,549,l),
(125,549,l),
(28,470,l),
(28,323,l),
(125,402,l)
);
}
);
width = 300;
},
{
layerId = "D32B31B9-0BB7-473D-9726-FC40C81139B8";
shapes = (
{
closed = 1;
nodes = (
(144,0,l),
(213,0,l),
(213,539,l),
(144,539,l),
(40,457,l),
(40,370,l),
(144,452,l)
);
}
);
width = 280;
}
);
},
{
glyphname = one.sups;
leftMetricsKey = one.dnom;
rightMetricsKey = one.dnom;
layers = (
{
layerId = "8252F75B-64DB-41DD-8CF8-30E5C2E9A516";
shapes = (
{
closed = 1;
nodes = (
(103,440,l),
(208,440,l),
(208,869,l),
(103,869,l),
(12,818,l),
(12,710,l),
(103,760,l)
);
}
);
width = 258;
},
{
layerId = "DC39735F-7E79-401F-A303-677125EC6CF0";
shapes = (
{
closed = 1;
nodes = (
(99.911,440,l),
(179.911,440,l),
(179.911,867,l),
(99.911,867,l),
(12.911,814,l),
(12.911,731,l),
(99.911,785,l)
);
}
);
width = 240;
},
{
layerId = "CF6BFDE9-2838-4146-85B5-55FAC6F26460";
shapes = (
{
closed = 1;
nodes = (
(99,440,l),
(205,440,l),
(205,869,l),
(100,869,l),
(30,818,l),
(30,705,l),
(99,754,l)
);
}
);
width = 259;
},
{
layerId = "17EBA7C1-94C5-4917-BF04-666E42EA2D32";
shapes = (
{
closed = 1;
nodes = (
(101,440,l),
(172,440,l),
(172,867,l),
(101,867,l),
(27,812,l),
(27,736,l),
(101,792,l)
);
}
);
width = 227;
},
{
layerId = "0E6BC793-ECDE-4AD7-84CA-C7A783A2BC64";
shapes = (
{
closed = 1;
nodes = (
(90,440,l),
(175,440,l),
(175,867,l),
(90,867,l),
(25,823,l),
(25,725,l),
(90,769,l)
);
}
);
width = 220;
},
{
layerId = "D32B31B9-0BB7-473D-9726-FC40C81139B8";
shapes = (
{
closed = 1;
nodes = (
(85,440,l),
(158,440,l),
(158,868,l),
(85,868,l),
(22,818,l),
(22,737,l),
(85,788,l)
);
}
);
width = 203;
}
);
},
{
glyphname = one.tlf;
layers = (
{
layerId = "8252F75B-64DB-41DD-8CF8-30E5C2E9A516";
shapes = (
{
closed = 1;
nodes = (
(289,0,l),
(424,0,l),
(424,707,l),
(289,707,l),
(88,616,l),
(88,478,l),
(289,566,l)
);
}
);
width = 562;
},
{
layerId = "DC39735F-7E79-401F-A303-677125EC6CF0";
shapes = (
{
closed = 1;
nodes = (
(305,0,l),
(397,0,l),
(397,707,l),
(304,707,l),
(106,609,l),
(106,510,l),
(305,604,l)
);
}
);
width = 562;
},
{
layerId = "CF6BFDE9-2838-4146-85B5-55FAC6F26460";
shapes = (
{
closed = 1;
nodes = (
(254,-1,l),
(388,-1,l),
(388,706,l),
(254,706,l),
(74,616,l),
(74,471,l),
(254,557,l)
);
}
);
width = 524;
},
{
layerId = "17EBA7C1-94C5-4917-BF04-666E42EA2D32";
shapes = (
{
closed = 1;
nodes = (
(305,0,l),
(379,0,l),
(379,707,l),
(304,707,l),
(105,586,l),
(105,500,l),
(305,621,l)
);
}
);
width = 524;
},
{
layerId = "0E6BC793-ECDE-4AD7-84CA-C7A783A2BC64";
shapes = (
{
closed = 1;
nodes = (
(207,0,l),
(335,0,l),
(335,707,l),
(207,707,l),
(54,638,l),
(54,492,l),
(207,560,l)
);
}
);
width = 418;
},
{
layerId = "D32B31B9-0BB7-473D-9726-FC40C81139B8";
shapes = (
{
closed = 1;
nodes = (
(258,0,l),
(332,0,l),
(332,707,l),
(257,707,l),
(58,586,l),
(58,500,l),
(258,621,l)
);
}
);
width = 418;
}
);
},
{
glyphname = one.tosf;
layers = (
{
layerId = "8252F75B-64DB-41DD-8CF8-30E5C2E9A516";
shapes = (
{
closed = 1;
nodes = (
(289,0,l),
(424,0,l),
(424,543,l),
(289,543,l),
(116,465,l),
(116,326,l),
(289,402,l)
);
}
);
width = 562;
},
{
layerId = "DC39735F-7E79-401F-A303-677125EC6CF0";
shapes = (
{
closed = 1;
nodes = (
(305,0,l),
(397,0,l),
(397,533,l),
(304,533,l),
(106,435,l),
(106,336,l),
(305,430,l)
);
}
);
width = 562;
},
{
layerId = "CF6BFDE9-2838-4146-85B5-55FAC6F26460";
shapes = (
{
closed = 1;
nodes = (
(271,0,l),
(404,0,l),
(404,548,l),
(269,548,l),
(80,419,l),
(80,273,l),
(271,402,l)
);
}
);
width = 524;
},
{
layerId = "17EBA7C1-94C5-4917-BF04-666E42EA2D32";
shapes = (
{
closed = 1;
nodes = (
(305,0,l),
(379,0,l),
(379,529,l),
(304,529,l),
(105,408,l),
(105,322,l),
(305,443,l)
);
}
);
width = 524;
},
{
layerId = "0E6BC793-ECDE-4AD7-84CA-C7A783A2BC64";
shapes = (
{
closed = 1;
nodes = (
(207,0,l),
(335,0,l),
(335,549,l),
(207,549,l),
(54,480,l),
(54,334,l),
(207,402,l)
);
}
);
width = 418;
},
{
layerId = "D32B31B9-0BB7-473D-9726-FC40C81139B8";
shapes = (
{
closed = 1;
nodes = (
(228,0,l),
(302,0,l),
(302,539,l),
(227,539,l),
(76,447,l),
(76,361,l),
(228,453,l)
);
}
);
width = 418;
}
);
},
{
glyphname = two;
layers = (
{
layerId = "8252F75B-64DB-41DD-8CF8-30E5C2E9A516";
shapes = (
{
closed = 1;
nodes = (
(55,0,l),
(516,0,l),
(516,118,l),
(237,118,l),
(427,318,ls),
(489.312,381.697,o),
(515,436.576,o),
(515,506,cs),
(515,519,ls),
(515,639.874,o),
(423.134,718,o),
(281,718,cs),
(140.127,718,o),
(51,643.986,o),
(51,527,cs),
(51,503,l),
(179,503,l),
(179,519,ls),
(179,571.733,o),
(216.961,604,o),
(279,604,cs),
(341.705,604,o),
(380,570.634,o),
(380,516,cs),
(380,505,ls),
(380,463.23,o),
(361.648,434.717,o),
(319,389,cs),
(55,106,l)
);
}
);
width = 557;
},
{
layerId = "DC39735F-7E79-401F-A303-677125EC6CF0";
shapes = (
{
closed = 1;
nodes = (
(57,0,l),
(489,0,l),
(489,82,l),
(180,82,l),
(390,321,ls),
(454.906,394.87,o),
(483,445.491,o),
(483,514,cs),
(483,529,ls),
(483,643.086,o),
(398.471,717,o),
(268,717,cs),
(138.21,717,o),
(56,644.484,o),
(56,530,cs),
(56,512,l),
(146,512,l),
(146,523,ls),
(146,596.117,o),
(188.354,636,o),
(266,636,cs),
(344.012,636,o),
(390,595.575,o),
(390,527,cs),
(390,515,ls),
(390,465.667,o),
(369.788,429.733,o),
(318,371,cs),
(57,75,l)
);
}
);
width = 542;
},
{
layerId = "CF6BFDE9-2838-4146-85B5-55FAC6F26460";
shapes = (
{
closed = 1;
nodes = (
(49,0,l),
(459,0,l),
(459,118,l),
(218,118,l),
(394,346,ls),
(438.689,403.893,o),
(459,457.892,o),
(459,518.811,cs),
(458.855,527.71,ls),
(455.049,643.942,o),
(376.381,718,o),
(253.974,718,cs),
(129.717,718,o),
(46,641.687,o),
(46,527,cs),
(46,503,l),
(176.054,503,l),
(176.054,511.817,ls),
(176.054,573.934,o),
(201.337,604,o),
(247.822,604,cs),
(294.126,604,o),
(322.941,574.795,o),
(322.941,522.453,cs),
(322.941,516.128,ls),
(322.941,478.605,o),
(310.846,445.843,o),
(284,411,cs),
(49,106,l)
);
}
);
width = 504;
},
{
layerId = "17EBA7C1-94C5-4917-BF04-666E42EA2D32";
shapes = (
{
closed = 1;
nodes = (
(60,0,l),
(419,0,l),
(419,67,l),
(154.818,67,l),
(357,361,ls),
(401.312,425.436,o),
(419,474.252,o),
(419,532.113,cs),
(418.876,540.432,ls),
(415.619,649.055,o),
(348.272,717,o),
(241.879,717,cs),
(133.222,717,o),
(60,646.133,o),
(60,540,cs),
(60,517,l),
(136.076,517,l),
(136.076,528.684,ls),
(136.076,610.973,o),
(170.692,650,o),
(235.45,650,cs),
(301.244,650,o),
(342.915,609.933,o),
(342.915,539.382,cs),
(342.915,530.862,ls),
(342.915,485.011,o),
(328.792,443.296,o),
(298.431,400,cs),
(60,60,l)
);
}
);
width = 479;
},
{
layerId = "0E6BC793-ECDE-4AD7-84CA-C7A783A2BC64";
shapes = (
{
closed = 1;
nodes = (
(35,0,l),
(372,0,l),
(372,114,l),
(175,114,l),
(321,346,ls),
(362.561,412.043,o),
(372,449,o),
(372,504,cs),
(372,554,ls),
(372,655,o),
(309,717,o),
(207,717,cs),
(105,717,o),
(39,655,o),
(39,558,cs),
(39,496,l),
(161,496,l),
(161,543,ls),
(161,584,o),
(175,604,o),
(204,604,cs),
(233,604,o),
(248,585,o),
(248,548,cs),
(248,508,ls),
(248,467,o),
(242.086,444.345,o),
(214,399,cs),
(35,110,l)
);
}
);
width = 406;
},
{
layerId = "D32B31B9-0BB7-473D-9726-FC40C81139B8";
shapes = (
{
closed = 1;
nodes = (
(48,0,l),
(350,0,l),
(350,67,l),
(134,67,l),
(306,372,ls),
(339.418,431.259,o),
(353,470.702,o),
(353,527,cs),
(353,565,ls),
(353,658.022,o),
(294.638,716,o),
(201,716,cs),
(106.693,716,o),
(48,657.691,o),
(48,564,cs),
(48,516,l),
(122,516,l),
(122,557,ls),
(122,614.579,o),
(150.435,649,o),
(198,649,cs),
(251.462,649,o),
(279,617.383,o),
(279,556,cs),
(279,527,ls),
(279,485.706,o),
(268.98,451.353,o),
(244,407,cs),
(48,59,l)
);
}
);
width = 401;
}
);
unicode = 50;
},
{
glyphname = two.dnom;
layers = (
{
layerId = "8252F75B-64DB-41DD-8CF8-30E5C2E9A516";
shapes = (
{
closed = 1;
nodes = (
(26.661,0,l),
(327.661,0,l),
(327.661,91,l),
(175.661,91,l),
(257.661,176,ls),
(307.014,227.159,o),
(327.661,254.495,o),
(327.661,303,cs),
(327.661,312,ls),
(327.661,387.592,o),
(267.581,437,o),
(175.661,437,cs),
(80.042,437,o),
(22.661,389.745,o),
(22.661,311,cs),
(22.661,301,l),
(123.661,301,l),
(123.661,308,ls),
(123.661,333.728,o),
(141.145,348,o),
(172.661,348,cs),
(204.661,348,o),
(220.661,334,o),
(220.661,306,cs),
(220.661,300,ls),
(220.661,281.241,o),
(208.505,264.994,o),
(184.661,241,cs),
(26.661,82,l)
);
}
);
width = 368;
},
{
layerId = "DC39735F-7E79-401F-A303-677125EC6CF0";
shapes = (
{
closed = 1;
nodes = (
(36.472,0,l),
(320.472,0,l),
(320.472,69,l),
(147.472,69,l),
(256.472,186,ls),
(298.329,230.929,o),
(318.472,261.419,o),
(318.472,306,cs),
(318.472,315,ls),
(318.472,389.364,o),
(265.584,434,o),
(177.472,434,cs),
(86.601,434,o),
(32.472,388.83,o),
(32.472,313,cs),
(32.472,303,l),
(109.472,303,l),
(109.472,311,ls),
(109.472,348.703,o),
(132.219,369,o),
(174.472,369,cs),
(216.764,369,o),
(238.472,349.667,o),
(238.472,312,cs),
(238.472,305,ls),
(238.472,281.553,o),
(227.76,261.504,o),
(199.472,232,cs),
(36.472,62,l)
);
}
);
width = 354;
},
{
layerId = "CF6BFDE9-2838-4146-85B5-55FAC6F26460";
shapes = (
{
closed = 1;
nodes = (
(45,0,l),
(313,0,l),
(313,91,l),
(178,91,l),
(272,207,ls),
(298.022,239.112,o),
(312.96,263.257,o),
(312.96,306,cs),
(312.96,311.42,ls),
(312.96,389.354,o),
(257.724,436,o),
(179,436,cs),
(104.555,436,o),
(42,396.389,o),
(42,316,cs),
(42,301,l),
(143.031,301,l),
(143.031,305.465,ls),
(143.031,325.772,o),
(148.791,348,o),
(174,348,cs),
(195.851,348,o),
(205.965,332.172,o),
(205.965,312,cs),
(205.965,307.758,ls),
(205.965,286.638,o),
(198.957,274.446,o),
(185,257,cs),
(45,82,l)
);
}
);
width = 354;
},
{
layerId = "17EBA7C1-94C5-4917-BF04-666E42EA2D32";
shapes = (
{
closed = 1;
nodes = (
(46,0,l),
(286,0,l),
(286,60,l),
(135,60,l),
(245,211,ls),
(268.219,242.874,o),
(284.968,271.001,o),
(284.968,312,cs),
(284.968,317.062,ls),
(284.968,389.851,o),
(241.058,434,o),
(165,434,cs),
(93.544,434,o),
(43,393.041,o),
(43,319,cs),
(43,304,l),
(111.046,304,l),
(111.046,311.662,ls),
(111.046,345.994,o),
(119.846,377,o),
(163,377,cs),
(196.398,377,o),
(213.963,352.632,o),
(213.963,321,cs),
(213.963,315.117,ls),
(213.963,285.95,o),
(206.298,270.87,o),
(188,246,cs),
(46,53,l)
);
}
);
width = 328;
},
{
layerId = "0E6BC793-ECDE-4AD7-84CA-C7A783A2BC64";
shapes = (
{
closed = 1;
nodes = (
(32,0,l),
(257,0,l),
(257,76,l),
(126,76,l),
(223,213,ls),
(250,251,o),
(256,271,o),
(256,308,cs),
(256,339,ls),
(256,398,o),
(215,433,o),
(146,433,cs),
(78,433,o),
(35,397,o),
(35,341,cs),
(35,301,l),
(117,301,l),
(117,333,ls),
(117,350.183,o),
(126.918,358,o),
(144,358,cs),
(162.526,358,o),
(174,348.848,o),
(174,330,cs),
(174,308,ls),
(174,285,o),
(171,275,o),
(153,249,cs),
(32,70,l)
);
}
);
width = 289;
},
{
layerId = "D32B31B9-0BB7-473D-9726-FC40C81139B8";
shapes = (
{
closed = 1;
nodes = (
(33,0,l),
(244,0,l),
(244,64,l),
(115,64,l),
(210,212,ls),
(235.443,251.638,o),
(244,276.05,o),
(244,309,cs),
(244,333,ls),
(244,394.699,o),
(202.298,436,o),
(140,436,cs),
(76.431,436,o),
(35,395.752,o),
(35,334,cs),
(35,303,l),
(103,303,l),
(103,326,ls),
(103,357.333,o),
(114.667,373,o),
(138,373,cs),
(160.556,373,o),
(173,358.067,o),
(173,331,cs),
(173,311,ls),
(173,286.06,o),
(167.593,269.592,o),
(151,244,cs),
(33,62,l)
);
}
);
width = 277;
}
);
},
{
glyphname = two.numr;
leftMetricsKey = two.dnom;
rightMetricsKey = two.dnom;
layers = (
{
layerId = "8252F75B-64DB-41DD-8CF8-30E5C2E9A516";
shapes = (
{
closed = 1;
nodes = (
(26.661,280,l),
(327.661,280,l),
(327.661,371,l),
(175.661,371,l),
(257.661,456,ls),
(307.014,507.159,o),
(327.661,534.495,o),
(327.661,583,cs),
(327.661,592,ls),
(327.661,667.592,o),
(267.581,717,o),
(175.661,717,cs),
(80.042,717,o),
(22.661,669.745,o),
(22.661,591,cs),
(22.661,581,l),
(123.661,581,l),
(123.661,588,ls),
(123.661,613.728,o),
(141.145,628,o),
(172.661,628,cs),
(204.661,628,o),
(220.661,614,o),
(220.661,586,cs),
(220.661,580,ls),
(220.661,561.241,o),
(208.505,544.994,o),
(184.661,521,cs),
(26.661,362,l)
);
}
);
width = 368;
},
{
layerId = "DC39735F-7E79-401F-A303-677125EC6CF0";
shapes = (
{
closed = 1;
nodes = (
(36.472,280,l),
(320.472,280,l),
(320.472,349,l),
(147.472,349,l),
(256.472,466,ls),
(298.329,510.929,o),
(318.472,541.419,o),
(318.472,586,cs),
(318.472,595,ls),
(318.472,669.364,o),
(265.584,714,o),
(177.472,714,cs),
(86.601,714,o),
(32.472,668.83,o),
(32.472,593,cs),
(32.472,583,l),
(109.472,583,l),
(109.472,591,ls),
(109.472,628.703,o),
(132.219,649,o),
(174.472,649,cs),
(216.764,649,o),
(238.472,629.667,o),
(238.472,592,cs),
(238.472,585,ls),
(238.472,561.553,o),
(227.76,541.504,o),
(199.472,512,cs),
(36.472,342,l)
);
}
);
width = 354;
},
{
layerId = "CF6BFDE9-2838-4146-85B5-55FAC6F26460";
shapes = (
{
closed = 1;
nodes = (
(45,280,l),
(313,280,l),
(313,371,l),
(178,371,l),
(272,487,ls),
(298.022,519.112,o),
(312.96,543.257,o),
(312.96,586,cs),
(312.96,591.42,ls),
(312.96,669.354,o),
(257.724,716,o),
(179,716,cs),
(104.555,716,o),
(42,676.389,o),
(42,596,cs),
(42,581,l),
(143.031,581,l),
(143.031,585.465,ls),
(143.031,605.772,o),
(148.791,628,o),
(174,628,cs),
(195.851,628,o),
(205.965,612.172,o),
(205.965,592,cs),
(205.965,587.758,ls),
(205.965,566.638,o),
(198.957,554.446,o),
(185,537,cs),
(45,362,l)
);
}
);
width = 354;
},
{
layerId = "17EBA7C1-94C5-4917-BF04-666E42EA2D32";
shapes = (
{
closed = 1;
nodes = (
(46,280,l),
(286,280,l),
(286,340,l),
(135,340,l),
(245,491,ls),
(268.219,522.874,o),
(284.968,551.001,o),
(284.968,592,cs),
(284.968,597.062,ls),
(284.968,669.851,o),
(241.058,714,o),
(165,714,cs),
(93.544,714,o),
(43,673.041,o),
(43,599,cs),
(43,584,l),
(111.046,584,l),
(111.046,591.662,ls),
(111.046,625.994,o),
(119.846,657,o),
(163,657,cs),
(196.398,657,o),
(213.963,632.632,o),
(213.963,601,cs),
(213.963,595.117,ls),
(213.963,565.95,o),
(206.298,550.87,o),
(188,526,cs),
(46,333,l)
);
}
);
width = 328;
},
{
layerId = "0E6BC793-ECDE-4AD7-84CA-C7A783A2BC64";
shapes = (
{
closed = 1;
nodes = (
(32,280,l),
(257,280,l),
(257,356,l),
(126,356,l),
(223,493,ls),
(250,531,o),
(256,551,o),
(256,588,cs),
(256,619,ls),
(256,678,o),
(215,713,o),
(146,713,cs),
(78,713,o),
(35,677,o),
(35,621,cs),
(35,581,l),
(117,581,l),
(117,613,ls),
(117,630.183,o),
(126.918,638,o),
(144,638,cs),
(162.526,638,o),
(174,628.848,o),
(174,610,cs),
(174,588,ls),
(174,565,o),
(171,555,o),
(153,529,cs),
(32,350,l)
);
}
);
width = 289;
},
{
layerId = "D32B31B9-0BB7-473D-9726-FC40C81139B8";
shapes = (
{
closed = 1;
nodes = (
(33,280,l),
(244,280,l),
(244,344,l),
(115,344,l),
(210,492,ls),
(235.443,531.638,o),
(244,556.05,o),
(244,589,cs),
(244,613,ls),
(244,674.699,o),
(202.298,716,o),
(140,716,cs),
(76.431,716,o),
(35,675.752,o),
(35,614,cs),
(35,583,l),
(103,583,l),
(103,606,ls),
(103,637.333,o),
(114.667,653,o),
(138,653,cs),
(160.556,653,o),
(173,638.067,o),
(173,611,cs),
(173,591,ls),
(173,566.06,o),
(167.593,549.592,o),
(151,524,cs),
(33,342,l)
);
}
);
width = 277;
}
);
},
{
glyphname = two.osf;
layers = (
{
layerId = "8252F75B-64DB-41DD-8CF8-30E5C2E9A516";
shapes = (
{
closed = 1;
nodes = (
(55,0,l),
(516,0,l),
(516,118,l),
(237,118,l),
(427,239,ls),
(486.492,276.887,o),
(515,322.564,o),
(515,380,cs),
(515,390,ls),
(515,480.72,o),
(423.473,542,o),
(281,542,cs),
(146.888,542,o),
(51,463.957,o),
(51,359,cs),
(51,348,l),
(179,348,l),
(179,353,ls),
(179,402.163,o),
(221.052,435,o),
(284.012,435,cs),
(341.518,435,o),
(380,406.801,o),
(380,364.66,cs),
(380,362,ls),
(380,347.299,o),
(362.926,322.948,o),
(319,292,cs),
(55,106,l)
);
}
);
width = 557;
},
{
layerId = "DC39735F-7E79-401F-A303-677125EC6CF0";
shapes = (
{
closed = 1;
nodes = (
(56,0,l),
(488,0,l),
(488,82,l),
(179,82,l),
(389,217,ls),
(453.241,258.298,o),
(482,305.92,o),
(482,371,cs),
(482,383,ls),
(482,474.508,o),
(398.161,533,o),
(267,533,cs),
(136.884,533,o),
(55,475.45,o),
(55,384,cs),
(55,369,l),
(145,369,l),
(145,378,ls),
(145,423.817,o),
(187.563,449,o),
(265,449,cs),
(342.02,449,o),
(389,423.237,o),
(389,381,cs),
(389,372,ls),
(389,326.2,o),
(367.894,292.489,o),
(317,257,cs),
(56,75,l)
);
}
);
width = 542;
},
{
layerId = "CF6BFDE9-2838-4146-85B5-55FAC6F26460";
shapes = (
{
closed = 1;
nodes = (
(48,0,l),
(458,0,l),
(458,118,l),
(237,118,l),
(362,209,ls),
(424.527,254.52,o),
(458.013,302.634,o),
(458.013,357.074,cs),
(458.013,363.254,ls),
(458.013,468.009,o),
(369.282,548,o),
(253,548,cs),
(126.281,548,o),
(45,475.707,o),
(45,363,cs),
(45,354,l),
(175.187,354,l),
(175.187,360.375,ls),
(175.187,404.441,o),
(204.42,434,o),
(248,434,cs),
(293.796,434,o),
(321.955,403.509,o),
(321.955,354,cs),
(321.955,350.955,ls),
(321.955,322.959,o),
(295.02,295.676,o),
(216,235,cs),
(48,106,l)
);
}
);
width = 504;
},
{
layerId = "17EBA7C1-94C5-4917-BF04-666E42EA2D32";
shapes = (
{
closed = 1;
nodes = (
(60,0,l),
(419,0,l),
(419,67,l),
(173,67,l),
(365,249,ls),
(400.89,283.021,o),
(418.967,318.822,o),
(418.967,363.867,cs),
(418.967,369,ls),
(418.967,457.672,o),
(339.202,529,o),
(240,529,cs),
(140.142,529,o),
(67.764,474.021,o),
(63.431,394.878,cs),
(63,387,l),
(138,387,l),
(138.198,394.518,ls),
(139.253,434.539,o),
(179.866,462,o),
(238,462,cs),
(297.869,462,o),
(342.972,420.738,o),
(342.972,366,cs),
(342.972,363.097,ls),
(342.972,336.357,o),
(326.526,308.608,o),
(298,282,cs),
(60,60,l)
);
}
);
width = 479;
},
{
layerId = "0E6BC793-ECDE-4AD7-84CA-C7A783A2BC64";
shapes = (
{
closed = 1;
nodes = (
(34,0,l),
(371,0,l),
(371,114,l),
(174,114,l),
(298.073,236.185,ls),
(352.77,290.049,o),
(371,331.181,o),
(371,400.729,cs),
(371,417,ls),
(371,498.8,o),
(308.25,549,o),
(206,549,cs),
(103.812,549,o),
(38,498.857,o),
(38,421,cs),
(38,385,l),
(160,385,l),
(160,409,ls),
(160,442.023,o),
(174.02,458,o),
(203,458,cs),
(232.167,458,o),
(247,442.83,o),
(247,413,cs),
(247,375.889,ls),
(247,340.416,o),
(228.447,303.36,o),
(193.073,268.185,cs),
(34,110,l)
);
}
);
width = 406;
},
{
layerId = "D32B31B9-0BB7-473D-9726-FC40C81139B8";
shapes = (
{
closed = 1;
nodes = (
(57,0,l),
(359,0,l),
(359,67,l),
(143,67,l),
(315,289,ls),
(349.888,334.03,o),
(362,363.427,o),
(362,396.604,cs),
(362,404.52,ls),
(362,479.235,o),
(297.359,539,o),
(210,539,cs),
(122.541,539,o),
(57,483.469,o),
(57,409.368,cs),
(57,394,l),
(131,394,l),
(131,398.935,ls),
(131,443.094,o),
(160.43,471,o),
(207,471,cs),
(260.539,471,o),
(288,447.947,o),
(288,403,cs),
(288,394.908,ls),
(288,372.952,o),
(274.725,342.265,o),
(253,314,cs),
(57,59,l)
);
}
);
width = 401;
}
);
},
{
glyphname = two.sups;
leftMetricsKey = two.dnom;
rightMetricsKey = two.dnom;
layers = (
{
layerId = "8252F75B-64DB-41DD-8CF8-30E5C2E9A516";
shapes = (
{
closed = 1;
nodes = (
(26.661,440,l),
(327.661,440,l),
(327.661,531,l),
(175.661,531,l),
(257.661,616,ls),
(307.014,667.159,o),
(327.661,694.495,o),
(327.661,743,cs),
(327.661,752,ls),
(327.661,827.592,o),
(267.581,877,o),
(175.661,877,cs),
(80.042,877,o),
(22.661,829.745,o),
(22.661,751,cs),
(22.661,741,l),
(123.661,741,l),
(123.661,748,ls),
(123.661,773.728,o),
(141.145,788,o),
(172.661,788,cs),
(204.661,788,o),
(220.661,774,o),
(220.661,746,cs),
(220.661,740,ls),
(220.661,721.241,o),
(208.505,704.994,o),
(184.661,681,cs),
(26.661,522,l)
);
}
);
width = 368;
},
{
layerId = "DC39735F-7E79-401F-A303-677125EC6CF0";
shapes = (
{
closed = 1;
nodes = (
(36.472,440,l),
(320.472,440,l),
(320.472,509,l),
(147.472,509,l),
(256.472,626,ls),
(298.329,670.929,o),
(318.472,701.419,o),
(318.472,746,cs),
(318.472,755,ls),
(318.472,829.364,o),
(265.584,874,o),
(177.472,874,cs),
(86.601,874,o),
(32.472,828.83,o),
(32.472,753,cs),
(32.472,743,l),
(109.472,743,l),
(109.472,751,ls),
(109.472,788.703,o),
(132.219,809,o),
(174.472,809,cs),
(216.764,809,o),
(238.472,789.667,o),
(238.472,752,cs),
(238.472,745,ls),
(238.472,721.553,o),
(227.76,701.504,o),
(199.472,672,cs),
(36.472,502,l)
);
}
);
width = 354;
},
{
layerId = "CF6BFDE9-2838-4146-85B5-55FAC6F26460";
shapes = (
{
closed = 1;
nodes = (
(45,440,l),
(313,440,l),
(313,531,l),
(178,531,l),
(272,647,ls),
(298.022,679.112,o),
(312.96,703.257,o),
(312.96,746,cs),
(312.96,751.42,ls),
(312.96,829.354,o),
(257.724,876,o),
(179,876,cs),
(104.555,876,o),
(42,836.389,o),
(42,756,cs),
(42,741,l),
(143.031,741,l),
(143.031,745.465,ls),
(143.031,765.772,o),
(148.791,788,o),
(174,788,cs),
(195.851,788,o),
(205.965,772.172,o),
(205.965,752,cs),
(205.965,747.758,ls),
(205.965,726.638,o),
(198.957,714.446,o),
(185,697,cs),
(45,522,l)
);
}
);
width = 354;
},
{
layerId = "17EBA7C1-94C5-4917-BF04-666E42EA2D32";
shapes = (
{
closed = 1;
nodes = (
(46,440,l),
(286,440,l),
(286,500,l),
(135,500,l),
(245,651,ls),
(268.219,682.874,o),
(284.968,711.001,o),
(284.968,752,cs),
(284.968,757.062,ls),
(284.968,829.851,o),
(241.058,874,o),
(165,874,cs),
(93.544,874,o),
(43,833.041,o),
(43,759,cs),
(43,744,l),
(111.046,744,l),
(111.046,751.662,ls),
(111.046,785.994,o),
(119.846,817,o),
(163,817,cs),
(196.398,817,o),
(213.963,792.632,o),
(213.963,761,cs),
(213.963,755.117,ls),
(213.963,725.95,o),
(206.298,710.87,o),
(188,686,cs),
(46,493,l)
);
}
);
width = 328;
},
{
layerId = "0E6BC793-ECDE-4AD7-84CA-C7A783A2BC64";
shapes = (
{
closed = 1;
nodes = (
(32,440,l),
(257,440,l),
(257,516,l),
(126,516,l),
(223,653,ls),
(250,691,o),
(256,711,o),
(256,748,cs),
(256,779,ls),
(256,838,o),
(215,873,o),
(146,873,cs),
(78,873,o),
(35,837,o),
(35,781,cs),
(35,741,l),
(117,741,l),
(117,773,ls),
(117,790.183,o),
(126.918,798,o),
(144,798,cs),
(162.526,798,o),
(174,788.848,o),
(174,770,cs),
(174,748,ls),
(174,725,o),
(171,715,o),
(153,689,cs),
(32,510,l)
);
}
);
width = 289;
},
{
layerId = "D32B31B9-0BB7-473D-9726-FC40C81139B8";
shapes = (
{
closed = 1;
nodes = (
(33,440,l),
(244,440,l),
(244,504,l),
(115,504,l),
(210,652,ls),
(235.443,691.638,o),
(244,716.05,o),
(244,749,cs),
(244,773,ls),
(244,834.699,o),
(202.298,876,o),
(140,876,cs),
(76.431,876,o),
(35,835.752,o),
(35,774,cs),
(35,743,l),
(103,743,l),
(103,766,ls),
(103,797.333,o),
(114.667,813,o),
(138,813,cs),
(160.556,813,o),
(173,798.067,o),
(173,771,cs),
(173,751,ls),
(173,726.06,o),
(167.593,709.592,o),
(151,684,cs),
(33,502,l)
);
}
);
width = 277;
}
);
},
{
glyphname = two.tlf;
layers = (
{
layerId = "8252F75B-64DB-41DD-8CF8-30E5C2E9A516";
shapes = (
{
closed = 1;
nodes = (
(55,0,l),
(516,0,l),
(516,118,l),
(237,118,l),
(427,318,ls),
(489.312,381.697,o),
(515,436.576,o),
(515,506,cs),
(515,519,ls),
(515,639.874,o),
(423.134,718,o),
(281,718,cs),
(140.127,718,o),
(51,643.986,o),
(51,527,cs),
(51,503,l),
(179,503,l),
(179,519,ls),
(179,571.733,o),
(216.961,604,o),
(279,604,cs),
(341.705,604,o),
(380,570.634,o),
(380,516,cs),
(380,505,ls),
(380,463.23,o),
(361.648,434.717,o),
(319,389,cs),
(55,106,l)
);
}
);
width = 562;
},
{
layerId = "DC39735F-7E79-401F-A303-677125EC6CF0";
shapes = (
{
closed = 1;
nodes = (
(57,0,l),
(489,0,l),
(489,82,l),
(180,82,l),
(390,321,ls),
(454.906,394.87,o),
(483,445.491,o),
(483,514,cs),
(483,529,ls),
(483,643.086,o),
(398.471,717,o),
(268,717,cs),
(138.21,717,o),
(56,644.484,o),
(56,530,cs),
(56,512,l),
(146,512,l),
(146,523,ls),
(146,596.117,o),
(188.354,636,o),
(266,636,cs),
(344.012,636,o),
(390,595.575,o),
(390,527,cs),
(390,515,ls),
(390,465.667,o),
(369.788,429.733,o),
(318,371,cs),
(57,75,l)
);
}
);
width = 562;
},
{
layerId = "CF6BFDE9-2838-4146-85B5-55FAC6F26460";
shapes = (
{
closed = 1;
nodes = (
(49,0,l),
(459,0,l),
(459,118,l),
(218,118,l),
(394,346,ls),
(438.689,403.893,o),
(459,457.892,o),
(459,518.811,cs),
(458.855,527.71,ls),
(455.049,643.942,o),
(376.381,718,o),
(253.974,718,cs),
(129.717,718,o),
(46,641.687,o),
(46,527,cs),
(46,503,l),
(176.054,503,l),
(176.054,511.817,ls),
(176.054,573.934,o),
(201.337,604,o),
(247.822,604,cs),
(294.126,604,o),
(322.941,574.795,o),
(322.941,522.453,cs),
(322.941,516.128,ls),
(322.941,478.605,o),
(310.846,445.843,o),
(284,411,cs),
(49,106,l)
);
}
);
width = 524;
},
{
layerId = "17EBA7C1-94C5-4917-BF04-666E42EA2D32";
shapes = (
{
closed = 1;
nodes = (
(60,0,l),
(419,0,l),
(419,67,l),
(154.818,67,l),
(357,361,ls),
(401.312,425.436,o),
(419,474.252,o),
(419,532.113,cs),
(418.876,540.432,ls),
(415.619,649.055,o),
(348.272,717,o),
(241.879,717,cs),
(133.222,717,o),
(60,646.133,o),
(60,540,cs),
(60,517,l),
(136.076,517,l),
(136.076,528.684,ls),
(136.076,610.973,o),
(170.692,650,o),
(235.45,650,cs),
(301.244,650,o),
(342.915,609.933,o),
(342.915,539.382,cs),
(342.915,530.862,ls),
(342.915,485.011,o),
(328.792,443.296,o),
(298.431,400,cs),
(60,60,l)
);
}
);
width = 524;
},
{
layerId = "0E6BC793-ECDE-4AD7-84CA-C7A783A2BC64";
shapes = (
{
closed = 1;
nodes = (
(35,0,l),
(372,0,l),
(372,114,l),
(175,114,l),
(321,346,ls),
(362.561,412.043,o),
(372,449,o),
(372,504,cs),
(372,554,ls),
(372,655,o),
(309,717,o),
(207,717,cs),
(105,717,o),
(39,655,o),
(39,558,cs),
(39,496,l),
(161,496,l),
(161,543,ls),
(161,584,o),
(175,604,o),
(204,604,cs),
(233,604,o),
(248,585,o),
(248,548,cs),
(248,508,ls),
(248,467,o),
(242.086,444.345,o),
(214,399,cs),
(35,110,l)
);
}
);
width = 418;
},
{
layerId = "D32B31B9-0BB7-473D-9726-FC40C81139B8";
shapes = (
{
closed = 1;
nodes = (
(48,0,l),
(350,0,l),
(350,67,l),
(134,67,l),
(306,372,ls),
(339.418,431.259,o),
(353,470.702,o),
(353,527,cs),
(353,565,ls),
(353,658.022,o),
(294.638,716,o),
(201,716,cs),
(106.693,716,o),
(48,657.691,o),
(48,564,cs),
(48,516,l),
(122,516,l),
(122,557,ls),
(122,614.579,o),
(150.435,649,o),
(198,649,cs),
(251.462,649,o),
(279,617.383,o),
(279,556,cs),
(279,527,ls),
(279,485.706,o),
(268.98,451.353,o),
(244,407,cs),
(48,59,l)
);
}
);
width = 418;
}
);
},
{
glyphname = two.tosf;
layers = (
{
guides = (
{
angle = 215.166;
position = "{317, 292}";
},
{
angle = 32.491;
position = "{235, 118}";
}
);
layerId = "8252F75B-64DB-41DD-8CF8-30E5C2E9A516";
shapes = (
{
closed = 1;
nodes = (
(53,0,l),
(514,0,l),
(514,118,l),
(235,118,l),
(425,239,ls),
(484.492,276.887,o),
(513,322.564,o),
(513,380,cs),
(513,390,ls),
(513,480.72,o),
(421.473,542,o),
(279,542,cs),
(144.888,542,o),
(49,463.957,o),
(49,359,cs),
(49,348,l),
(177,348,l),
(177,353,ls),
(177,402.163,o),
(219.052,435,o),
(282.012,435,cs),
(339.518,435,o),
(378,406.801,o),
(378,364.66,cs),
(378,362,ls),
(378,347.299,o),
(360.926,322.948,o),
(317,292,cs),
(53,106,l)
);
}
);
width = 562;
},
{
guides = (
{
angle = 214.889;
position = "{327, 257}";
},
{
angle = 32.735;
position = "{189, 82}";
}
);
layerId = "DC39735F-7E79-401F-A303-677125EC6CF0";
shapes = (
{
closed = 1;
nodes = (
(66,0,l),
(498,0,l),
(498,82,l),
(189,82,l),
(399,217,ls),
(463.241,258.298,o),
(492,305.92,o),
(492,371,cs),
(492,383,ls),
(492,474.508,o),
(408.161,533,o),
(277,533,cs),
(146.884,533,o),
(65,475.45,o),
(65,384,cs),
(65,369,l),
(155,369,l),
(155,378,ls),
(155,423.817,o),
(197.563,449,o),
(275,449,cs),
(352.02,449,o),
(399,423.237,o),
(399,381,cs),
(399,372,ls),
(399,326.2,o),
(377.894,292.489,o),
(327,257,cs),
(66,75,l)
);
}
);
width = 562;
},
{
guides = (
{
angle = 217.519;
position = "{231, 235}";
},
{
angle = 36.055;
position = "{252, 118}";
}
);
layerId = "CF6BFDE9-2838-4146-85B5-55FAC6F26460";
shapes = (
{
closed = 1;
nodes = (
(63,0,l),
(473,0,l),
(473,118,l),
(252,118,l),
(377,209,ls),
(439.527,254.52,o),
(473.013,302.634,o),
(473.013,357.074,cs),
(473.013,363.254,ls),
(473.013,468.009,o),
(384.282,548,o),
(268,548,cs),
(141.281,548,o),
(60,475.707,o),
(60,363,cs),
(60,354,l),
(190.187,354,l),
(190.187,360.375,ls),
(190.187,404.441,o),
(219.42,434,o),
(263,434,cs),
(308.796,434,o),
(336.955,403.509,o),
(336.955,354,cs),
(336.955,350.955,ls),
(336.955,322.959,o),
(310.02,295.676,o),
(231,235,cs),
(63,106,l)
);
}
);
width = 524;
},
{
guides = (
{
angle = 223.008;
position = "{322, 282}";
},
{
angle = 43.468;
position = "{197, 67}";
}
);
layerId = "17EBA7C1-94C5-4917-BF04-666E42EA2D32";
shapes = (
{
closed = 1;
nodes = (
(84,0,l),
(443,0,l),
(443,67,l),
(197,67,l),
(389,249,ls),
(424.89,283.021,o),
(442.967,318.822,o),
(442.967,363.867,cs),
(442.967,369,ls),
(442.967,457.672,o),
(363.202,529,o),
(264,529,cs),
(164.142,529,o),
(91.764,474.021,o),
(87.431,394.878,cs),
(87,387,l),
(162,387,l),
(162.198,394.518,ls),
(163.253,434.539,o),
(203.866,462,o),
(262,462,cs),
(321.869,462,o),
(366.972,420.738,o),
(366.972,366,cs),
(366.972,363.097,ls),
(366.972,336.357,o),
(350.526,308.608,o),
(322,282,cs),
(84,60,l)
);
}
);
width = 524;
},
{
guides = (
{
angle = 224.84;
position = "{219, 288}";
},
{
angle = 44.599;
position = "{180, 114}";
}
);
layerId = "0E6BC793-ECDE-4AD7-84CA-C7A783A2BC64";
shapes = (
{
closed = 1;
nodes = (
(40,0,l),
(377,0,l),
(377,114,l),
(180,114,l),
(304.073,236.185,ls),
(358.77,290.049,o),
(377,331.181,o),
(377,400.729,cs),
(377,417,ls),
(377,498.8,o),
(314.25,549,o),
(212,549,cs),
(109.812,549,o),
(44,498.857,o),
(44,421,cs),
(44,385,l),
(166,385,l),
(166,409,ls),
(166,442.023,o),
(180.02,458,o),
(209,458,cs),
(238.167,458,o),
(253,442.83,o),
(253,413,cs),
(253,375.889,ls),
(253,340.416,o),
(234.447,303.36,o),
(199.073,268.185,cs),
(40,110,l)
);
}
);
width = 418;
},
{
guides = (
{
angle = 232.453;
position = "{253, 314}";
},
{
angle = 52.232;
position = "{143, 67}";
}
);
layerId = "D32B31B9-0BB7-473D-9726-FC40C81139B8";
shapes = (
{
closed = 1;
nodes = (
(57,0,l),
(359,0,l),
(359,67,l),
(143,67,l),
(315,289,ls),
(349.888,334.03,o),
(362,363.427,o),
(362,396.604,cs),
(362,404.52,ls),
(362,479.235,o),
(297.359,539,o),
(210,539,cs),
(122.541,539,o),
(57,483.469,o),
(57,409.368,cs),
(57,394,l),
(131,394,l),
(131,398.935,ls),
(131,443.094,o),
(160.43,471,o),
(207,471,cs),
(260.539,471,o),
(288,447.947,o),
(288,403,cs),
(288,394.908,ls),
(288,372.952,o),
(274.725,342.265,o),
(253,314,cs),
(57,59,l)
);
}
);
width = 418;
}
);
},
{
glyphname = three;
layers = (
{
layerId = "8252F75B-64DB-41DD-8CF8-30E5C2E9A516";
shapes = (
{
closed = 1;
nodes = (
(51,193,l),
(51,181,ls),
(51,58.333,o),
(135.86,-11,o),
(286,-11,cs),
(430.741,-11,o),
(522,69.432,o),
(522,197,cs),
(522,213,ls),
(522,294.345,o),
(482.828,352.39,o),
(412,376,c),
(475.657,403.85,o),
(510,454.313,o),
(510,520,cs),
(510,534,ls),
(510,648.614,o),
(424.399,718,o),
(283,718,cs),
(137.677,718,o),
(57,647.676,o),
(57,521,cs),
(57,512,l),
(180,512,l),
(180,521,ls),
(180,574.227,o),
(215.871,604,o),
(280,604,cs),
(342.444,604,o),
(378,573.524,o),
(378,520,cs),
(378,508,ls),
(378,451.813,o),
(340.103,421,o),
(271,421,cs),
(232,421,l),
(232,307,l),
(272,307,ls),
(352.17,307,o),
(390,276.864,o),
(390,213,cs),
(390,198,ls),
(390,137.208,o),
(351.125,102,o),
(284,102,cs),
(213.545,102,o),
(176,130.506,o),
(176,184,cs),
(176,193,l)
);
}
);
width = 568;
},
{
layerId = "DC39735F-7E79-401F-A303-677125EC6CF0";
shapes = (
{
closed = 1;
nodes = (
(57,181,l),
(57,171,ls),
(57,57.717,o),
(138.934,-10,o),
(276,-10,cs),
(416.007,-10,o),
(502,65.339,o),
(502,188,cs),
(502,207,ls),
(502,290.548,o),
(460.887,350.25,o),
(387,374,c),
(451.946,400.255,o),
(488,452.729,o),
(488,521,cs),
(488,537,ls),
(488,650.238,o),
(410.111,717,o),
(278,717,cs),
(144.248,717,o),
(66,649.456,o),
(66,534,cs),
(66,522,l),
(154,522,l),
(154,532,ls),
(154,600.089,o),
(195.436,636,o),
(274,636,cs),
(353.132,636,o),
(396,598.754,o),
(396,530,cs),
(396,516,ls),
(396,446.135,o),
(350.043,407,o),
(268,407,cs),
(227,407,l),
(227,325,l),
(269,325,ls),
(360.47,325,o),
(409,284.443,o),
(409,208,cs),
(409,188,ls),
(409,113.155,o),
(361.801,71,o),
(278,71,cs),
(192.964,71,o),
(147,106.438,o),
(147,172,cs),
(147,181,l)
);
}
);
width = 562;
},
{
layerId = "CF6BFDE9-2838-4146-85B5-55FAC6F26460";
shapes = (
{
closed = 1;
nodes = (
(46,193,l),
(46,171,ls),
(46,55,o),
(122,-11,o),
(255,-11,cs),
(382,-11,o),
(465,71.984,o),
(465,194,cs),
(465,210,ls),
(465,296.006,o),
(433,350,o),
(371,376,c),
(422,402,o),
(454,457,o),
(454,516,cs),
(454,523,ls),
(454,647,o),
(381,718,o),
(254,718,cs),
(127,718,o),
(51,647,o),
(51,529,cs),
(51,512,l),
(174,512,l),
(174,517,ls),
(174,576,o),
(198,604,o),
(249,604,cs),
(295,604,o),
(324,572,o),
(324,521,cs),
(324,515,ls),
(324,443,o),
(299.274,421,o),
(216,421,cs),
(207,421,l),
(207,307,l),
(216,307,ls),
(304,307,o),
(335,282,o),
(335,212,cs),
(335,196,ls),
(335,135,o),
(306,102,o),
(253,102,cs),
(196,102,o),
(171,126.548,o),
(171,181,cs),
(171,193,l)
);
}
);
width = 516;
},
{
layerId = "17EBA7C1-94C5-4917-BF04-666E42EA2D32";
shapes = (
{
closed = 1;
nodes = (
(62.01,175,l),
(62.01,170.972,ls),
(62.01,54.531,o),
(128.33,-10,o),
(248,-10,cs),
(364.839,-10,o),
(438.924,64.891,o),
(438.924,183,cs),
(438.924,196.512,ls),
(438.924,291.145,o),
(405.75,349.485,o),
(338,374,c),
(397.691,400.552,o),
(426.971,453.532,o),
(426.971,534.984,cs),
(426.971,542,ls),
(426.971,648.651,o),
(357.462,717,o),
(249,717,cs),
(138.45,717,o),
(71,652.581,o),
(71,547,cs),
(71,528,l),
(142.023,528,l),
(142.023,534.372,ls),
(142.023,611.058,o),
(177.378,650,o),
(247,650,cs),
(311.724,650,o),
(352.901,609.695,o),
(352.901,546.342,cs),
(352.901,538,ls),
(352.901,445.928,o),
(316.324,400,o),
(243,400,cs),
(207,400,l),
(207,333,l),
(244,333,ls),
(317.118,333,o),
(364.945,282.778,o),
(364.945,206,cs),
(364.945,196.091,ls),
(364.945,102.825,o),
(326.191,56,o),
(249,56,cs),
(175.376,56,o),
(137.015,95.111,o),
(137.015,170.175,cs),
(137.015,175,l)
);
}
);
width = 506;
},
{
layerId = "0E6BC793-ECDE-4AD7-84CA-C7A783A2BC64";
shapes = (
{
closed = 1;
nodes = (
(34,205,l),
(34,153,ls),
(34,49.769,o),
(95.236,-10,o),
(201,-10,cs),
(307.685,-10,o),
(370,52.683,o),
(370,160,cs),
(370,232,ls),
(370,313.134,o),
(351.913,348.035,o),
(299,369,c),
(349.965,390.985,o),
(370,427.951,o),
(370,500,cs),
(370,548,ls),
(370,655.318,o),
(308.683,717,o),
(202,717,cs),
(97.13,717,o),
(34,656.125,o),
(34,555,cs),
(34,505,l),
(156,505,l),
(156,548,ls),
(156,584.625,o),
(170.7,603,o),
(200,603,cs),
(230.258,603,o),
(244,583.636,o),
(244,541,cs),
(244,482,ls),
(244,435.252,o),
(231.946,420,o),
(195,420,cs),
(166,420,l),
(166,307,l),
(193,307,ls),
(232,307,o),
(244,291,o),
(244,239,cs),
(244,166,ls),
(244,120.591,o),
(231.714,103,o),
(200,103,cs),
(171.349,103,o),
(156,122.534,o),
(156,159,cs),
(156,205,l)
);
}
);
width = 408;
},
{
layerId = "D32B31B9-0BB7-473D-9726-FC40C81139B8";
shapes = (
{
closed = 1;
nodes = (
(48,184,l),
(48,139,ls),
(48,44.463,o),
(103.991,-9,o),
(203,-9,cs),
(305.073,-9,o),
(361,49.051,o),
(361,155,cs),
(361,229,ls),
(361,307.095,o),
(340.199,345.455,o),
(284,371,c),
(335.699,394.265,o),
(357,432.781,o),
(357,503,cs),
(357,563,ls),
(357,661.325,o),
(302.682,716,o),
(205,716,cs),
(106.017,716,o),
(50,660.344,o),
(50,562,cs),
(50,520,l),
(124,520,l),
(124,561,ls),
(124,617.219,o),
(152.53,649,o),
(203,649,cs),
(255.426,649,o),
(284,615.84,o),
(284,555,cs),
(284,500,ls),
(284,431.619,o),
(257.44,400,o),
(200,400,cs),
(170,400,l),
(170,334,l),
(200,334,ls),
(259.109,334,o),
(287,300.659,o),
(287,230,cs),
(287,152,ls),
(287,90.048,o),
(258.126,57,o),
(204,57,cs),
(151.909,57,o),
(122,89.098,o),
(122,145,cs),
(122,184,l)
);
}
);
width = 414;
}
);
unicode = 51;
},
{
glyphname = three.dnom;
layers = (
{
layerId = "8252F75B-64DB-41DD-8CF8-30E5C2E9A516";
shapes = (
{
closed = 1;
nodes = (
(20.375,124,l),
(20.375,116,ls),
(20.375,36.055,o),
(73.581,-7,o),
(172.375,-7,cs),
(263.698,-7,o),
(324.375,44.895,o),
(324.375,123,cs),
(324.375,131,ls),
(324.375,182.01,o),
(299.684,218.673,o),
(258.375,229,c),
(294.997,244.695,o),
(316.375,275.287,o),
(316.375,312,cs),
(316.375,319,ls),
(316.375,391.892,o),
(260.946,437,o),
(171.375,437,cs),
(74.9,437,o),
(22.375,392.935,o),
(22.375,312,cs),
(22.375,305,l),
(116.375,305,l),
(116.375,313,ls),
(116.375,338.333,o),
(133.042,351,o),
(166.375,351,cs),
(199.042,351,o),
(215.375,337.667,o),
(215.375,311,cs),
(215.375,303,l),
(214.708,276.333,o),
(196.042,263,o),
(159.375,263,cs),
(136.375,263,l),
(136.375,176,l),
(160.375,176,ls),
(201.708,176,o),
(222.375,160.333,o),
(222.375,129,cs),
(222.375,122,ls),
(222.375,94.333,o),
(203.832,79,o),
(170.375,79,cs),
(133.708,79,o),
(115.375,92,o),
(115.375,118,cs),
(115.375,124,l)
);
}
);
width = 365;
},
{
layerId = "DC39735F-7E79-401F-A303-677125EC6CF0";
shapes = (
{
closed = 1;
nodes = (
(29.739,118,l),
(29.739,110,ls),
(29.739,36.846,o),
(81.819,-6,o),
(170.739,-6,cs),
(261.178,-6,o),
(316.739,40.808,o),
(316.739,117,cs),
(316.739,126,ls),
(316.739,176.667,o),
(294.405,210.333,o),
(249.739,227,c),
(289.739,244.333,o),
(309.739,274,o),
(309.739,316,cs),
(309.739,324,ls),
(309.739,392.82,o),
(257.702,434,o),
(170.739,434,cs),
(83.469,434,o),
(31.739,390.83,o),
(31.739,318,cs),
(31.739,311,l),
(102.739,311,l),
(102.739,318,ls),
(102.739,350.738,o),
(126.013,369,o),
(167.739,369,cs),
(211.072,369,o),
(232.739,351.333,o),
(232.739,316,cs),
(232.739,309,ls),
(232.739,272.333,o),
(209.739,254,o),
(163.739,254,cs),
(139.739,254,l),
(139.739,188,l),
(163.739,188,ls),
(215.474,188,o),
(239.739,167.886,o),
(239.739,125,cs),
(239.739,117,ls),
(239.739,78.333,o),
(216.405,59,o),
(169.739,59,cs),
(123.739,59,o),
(100.739,76.667,o),
(100.739,112,cs),
(100.739,118,l)
);
}
);
width = 349;
},
{
layerId = "CF6BFDE9-2838-4146-85B5-55FAC6F26460";
shapes = (
{
closed = 1;
nodes = (
(38.016,124,l),
(38.016,119.656,ls),
(38.016,30.244,o),
(83.281,-7,o),
(174,-7,cs),
(250.644,-7,o),
(307.923,42.408,o),
(307.923,121,cs),
(307.923,131.125,ls),
(307.923,171.753,o),
(296.475,211.531,o),
(254,228,c),
(285.228,246.113,o),
(300.93,273.943,o),
(300.93,310,cs),
(300.93,317.729,ls),
(300.93,395.446,o),
(251.645,436,o),
(172,436,cs),
(94.933,436,o),
(40,396.128,o),
(40,315,cs),
(40,305,l),
(134.01,305,l),
(134.01,308.583,ls),
(134.01,332.571,o),
(138.266,348,o),
(168,348,cs),
(191.541,348,o),
(199.93,331.447,o),
(199.93,310,cs),
(199.93,303.398,ls),
(199.93,267.4,o),
(182.787,263.027,o),
(152.243,263.027,cs),
(141,263.027,l),
(141,175.893,l),
(152.234,175.893,ls),
(183.711,175.893,o),
(206.933,166.221,o),
(206.933,130,cs),
(206.933,123.614,ls),
(206.933,101.117,o),
(198.938,80,o),
(171,80,cs),
(140.297,80,o),
(133.029,93.66,o),
(133.029,119.233,cs),
(133.029,124,l)
);
}
);
width = 349;
},
{
layerId = "17EBA7C1-94C5-4917-BF04-666E42EA2D32";
shapes = (
{
closed = 1;
nodes = (
(40.021,115,l),
(40.021,110.563,ls),
(40.021,34.284,o),
(80.912,-6,o),
(160,-6,cs),
(231.513,-6,o),
(283.846,41.054,o),
(283.846,114,cs),
(283.846,126.999,ls),
(283.846,169.561,o),
(268.166,206.846,o),
(225,226,c),
(258.184,242.596,o),
(277.828,277.342,o),
(277.828,314,cs),
(277.828,325.813,ls),
(277.828,394.452,o),
(233.311,434,o),
(160,434,cs),
(92.973,434,o),
(42,395.209,o),
(42,325,cs),
(42,313,l),
(104.04,313,l),
(104.04,318.155,ls),
(104.04,352.775,o),
(117.975,377,o),
(158,377,cs),
(192.812,377,o),
(209.856,350.262,o),
(209.856,318,cs),
(209.856,307.323,ls),
(209.856,261.58,o),
(186.681,250.078,o),
(144.005,250.078,cs),
(133,250.078,l),
(133,192.928,l),
(142.719,192.928,ls),
(185.652,192.928,o),
(216.91,179.872,o),
(216.91,127,cs),
(216.91,117.288,ls),
(216.91,80.349,o),
(204.497,50,o),
(159,50,cs),
(118.389,50,o),
(101.045,73.653,o),
(101.045,109.934,cs),
(101.045,115,l)
);
}
);
width = 326;
},
{
layerId = "0E6BC793-ECDE-4AD7-84CA-C7A783A2BC64";
shapes = (
{
closed = 1;
nodes = (
(29,122,l),
(29,90,ls),
(29,29,o),
(69,-6,o),
(140,-6,cs),
(212,-6,o),
(253,32,o),
(253,100,cs),
(253,147,ls),
(253,190,o),
(242,208,o),
(206,223,c),
(241,241,o),
(253,260,o),
(253,299,cs),
(253,334,ls),
(253,397,o),
(212,433,o),
(140,433,cs),
(71,433,o),
(29,396,o),
(29,334,cs),
(29,303,l),
(111,303,l),
(111,329,ls),
(111,348.724,o),
(118.98,357,o),
(139,357,cs),
(161.927,357,o),
(169,347.007,o),
(169,325,cs),
(169,292,ls),
(169,268.627,o),
(160.689,257,o),
(136,257,cs),
(118,257,l),
(118,182,l),
(134,182,ls),
(164.79,182,o),
(169,170.587,o),
(169,142,cs),
(169,102,ls),
(169,78.637,o),
(163.38,70,o),
(139,70,cs),
(120,70,o),
(111,79,o),
(111,98,cs),
(111,122,l)
);
}
);
width = 284;
},
{
layerId = "D32B31B9-0BB7-473D-9726-FC40C81139B8";
shapes = (
{
closed = 1;
nodes = (
(31,121,l),
(31,96,ls),
(31,31.237,o),
(68.967,-6,o),
(135,-6,cs),
(199.667,-6,o),
(242,36.333,o),
(242,101,cs),
(242,137,ls),
(242,186.035,o),
(228.473,211.363,o),
(195,225,c),
(225.969,239.811,o),
(240,265.067,o),
(240,306,cs),
(240,331,ls),
(240,396.333,o),
(200.333,436,o),
(135,436,cs),
(71.422,436,o),
(31,396.744,o),
(31,335,cs),
(31,309,l),
(99,309,l),
(99,332,ls),
(99,358.61,o),
(111.285,373,o),
(134,373,cs),
(157.333,373,o),
(169,358,o),
(169,328,cs),
(169,297,ls),
(169,267,o),
(156,252,o),
(130,252,cs),
(112,252,l),
(112,190,l),
(130,190,ls),
(159.17,190,o),
(171,175.862,o),
(171,141,cs),
(171,104,ls),
(171,72.667,o),
(158.667,57,o),
(134,57,cs),
(111.545,57,o),
(98,72.426,o),
(98,98,cs),
(98,121,l)
);
}
);
width = 274;
}
);
},
{
glyphname = three.numr;
leftMetricsKey = three.dnom;
rightMetricsKey = three.dnom;
layers = (
{
layerId = "8252F75B-64DB-41DD-8CF8-30E5C2E9A516";
shapes = (
{
closed = 1;
nodes = (
(20.375,403.853,l),
(20.375,395.853,ls),
(20.375,315.908,o),
(73.581,272.853,o),
(172.375,272.853,cs),
(263.698,272.853,o),
(324.375,324.748,o),
(324.375,402.853,cs),
(324.375,410.853,ls),
(324.375,461.863,o),
(299.684,498.526,o),
(258.375,508.853,c),
(294.997,524.548,o),
(316.375,555.14,o),
(316.375,591.853,cs),
(316.375,598.853,ls),
(316.375,671.745,o),
(260.946,716.853,o),
(171.375,716.853,cs),
(74.9,716.853,o),
(22.375,672.788,o),
(22.375,591.853,cs),
(22.375,584.853,l),
(116.375,584.853,l),
(116.375,592.853,ls),
(116.375,618.186,o),
(133.042,630.853,o),
(166.375,630.853,cs),
(199.042,630.853,o),
(215.375,617.52,o),
(215.375,590.853,cs),
(215.375,582.853,l),
(214.708,556.186,o),
(196.042,542.853,o),
(159.375,542.853,cs),
(136.375,542.853,l),
(136.375,455.853,l),
(160.375,455.853,ls),
(201.708,455.853,o),
(222.375,440.186,o),
(222.375,408.853,cs),
(222.375,401.853,ls),
(222.375,374.186,o),
(203.832,358.853,o),
(170.375,358.853,cs),
(133.708,358.853,o),
(115.375,371.853,o),
(115.375,397.853,cs),
(115.375,403.853,l)
);
}
);
width = 365;
},
{
layerId = "DC39735F-7E79-401F-A303-677125EC6CF0";
shapes = (
{
closed = 1;
nodes = (
(29.789,398.453,l),
(29.789,390.453,ls),
(29.789,317.299,o),
(81.869,274.453,o),
(170.789,274.453,cs),
(261.228,274.453,o),
(316.789,321.261,o),
(316.789,397.453,cs),
(316.789,406.453,ls),
(316.789,457.12,o),
(294.455,490.786,o),
(249.789,507.453,c),
(289.789,524.786,o),
(309.789,554.453,o),
(309.789,596.453,cs),
(309.789,604.453,ls),
(309.789,673.273,o),
(257.752,714.453,o),
(170.789,714.453,cs),
(83.519,714.453,o),
(31.789,671.283,o),
(31.789,598.453,cs),
(31.789,591.453,l),
(102.789,591.453,l),
(102.789,598.453,ls),
(102.789,631.191,o),
(126.063,649.453,o),
(167.789,649.453,cs),
(211.122,649.453,o),
(232.789,631.786,o),
(232.789,596.453,cs),
(232.789,589.453,ls),
(232.789,552.786,o),
(209.789,534.453,o),
(163.789,534.453,cs),
(139.789,534.453,l),
(139.789,468.453,l),
(163.789,468.453,ls),
(215.524,468.453,o),
(239.789,448.339,o),
(239.789,405.453,cs),
(239.789,397.453,ls),
(239.789,358.786,o),
(216.455,339.453,o),
(169.789,339.453,cs),
(123.789,339.453,o),
(100.789,357.12,o),
(100.789,392.453,cs),
(100.789,398.453,l)
);
}
);
width = 349;
},
{
layerId = "CF6BFDE9-2838-4146-85B5-55FAC6F26460";
shapes = (
{
closed = 1;
nodes = (
(38.116,405,l),
(38.116,400.656,ls),
(38.116,311.244,o),
(83.381,274,o),
(174.1,274,cs),
(250.744,274,o),
(308.022,323.408,o),
(308.022,402,cs),
(308.022,412.125,ls),
(308.022,452.753,o),
(296.575,492.531,o),
(254.1,509,c),
(285.328,527.113,o),
(301.03,554.943,o),
(301.03,591,cs),
(301.03,598.729,ls),
(301.03,676.446,o),
(251.745,717,o),
(172.1,717,cs),
(95.032,717,o),
(40.1,677.128,o),
(40.1,596,cs),
(40.1,586,l),
(134.11,586,l),
(134.11,589.583,ls),
(134.11,613.571,o),
(138.366,629,o),
(168.1,629,cs),
(191.64,629,o),
(200.03,612.447,o),
(200.03,591,cs),
(200.03,584.398,ls),
(200.03,548.4,o),
(182.887,544.027,o),
(152.342,544.027,cs),
(141.1,544.027,l),
(141.1,456.893,l),
(152.334,456.893,ls),
(183.811,456.893,o),
(207.033,447.221,o),
(207.033,411,cs),
(207.033,404.614,ls),
(207.033,382.117,o),
(199.037,361,o),
(171.1,361,cs),
(140.397,361,o),
(133.128,374.66,o),
(133.128,400.233,cs),
(133.128,405,l)
);
}
);
width = 350;
},
{
layerId = "17EBA7C1-94C5-4917-BF04-666E42EA2D32";
shapes = (
{
closed = 1;
nodes = (
(40.021,394,l),
(40.021,389.563,ls),
(40.021,313.284,o),
(80.912,273,o),
(160,273,cs),
(231.513,273,o),
(283.846,320.054,o),
(283.846,393,cs),
(283.846,405.999,ls),
(283.846,448.561,o),
(268.166,485.846,o),
(225,505,c),
(258.184,521.596,o),
(277.828,556.342,o),
(277.828,593,cs),
(277.828,604.813,ls),
(277.828,673.452,o),
(233.311,713,o),
(160,713,cs),
(92.973,713,o),
(42,674.209,o),
(42,604,cs),
(42,592,l),
(104.04,592,l),
(104.04,597.155,ls),
(104.04,631.775,o),
(117.975,656,o),
(158,656,cs),
(192.812,656,o),
(209.856,629.262,o),
(209.856,597,cs),
(209.856,586.323,ls),
(209.856,540.58,o),
(186.681,529.078,o),
(144.005,529.078,cs),
(133,529.078,l),
(133,471.928,l),
(142.719,471.928,ls),
(185.652,471.928,o),
(216.91,458.872,o),
(216.91,406,cs),
(216.91,396.288,ls),
(216.91,359.349,o),
(204.497,329,o),
(159,329,cs),
(118.389,329,o),
(101.045,352.653,o),
(101.045,388.934,cs),
(101.045,394,l)
);
}
);
width = 326;
},
{
layerId = "0E6BC793-ECDE-4AD7-84CA-C7A783A2BC64";
shapes = (
{
closed = 1;
nodes = (
(29,401,l),
(29,369,ls),
(29,308,o),
(69,273,o),
(140,273,cs),
(212,273,o),
(253,311,o),
(253,379,cs),
(253,426,ls),
(253,469,o),
(242,487,o),
(206,502,c),
(241,520,o),
(253,539,o),
(253,578,cs),
(253,613,ls),
(253,676,o),
(212,712,o),
(140,712,cs),
(71,712,o),
(29,675,o),
(29,613,cs),
(29,582,l),
(111,582,l),
(111,608,ls),
(111,627.724,o),
(118.98,636,o),
(139,636,cs),
(161.927,636,o),
(169,626.007,o),
(169,604,cs),
(169,571,ls),
(169,547.627,o),
(160.689,536,o),
(136,536,cs),
(118,536,l),
(118,461,l),
(134,461,ls),
(164.79,461,o),
(169,449.587,o),
(169,421,cs),
(169,381,ls),
(169,357.637,o),
(163.38,349,o),
(139,349,cs),
(120,349,o),
(111,358,o),
(111,377,cs),
(111,401,l)
);
}
);
width = 284;
},
{
layerId = "D32B31B9-0BB7-473D-9726-FC40C81139B8";
shapes = (
{
closed = 1;
nodes = (
(31,400,l),
(31,375,ls),
(31,310.237,o),
(68.967,273,o),
(135,273,cs),
(199.667,273,o),
(242,315.333,o),
(242,380,cs),
(242,416,ls),
(242,465.035,o),
(228.473,490.363,o),
(195,504,c),
(225.969,518.811,o),
(240,544.067,o),
(240,585,cs),
(240,610,ls),
(240,675.333,o),
(200.333,715,o),
(135,715,cs),
(71.422,715,o),
(31,675.744,o),
(31,614,cs),
(31,588,l),
(99,588,l),
(99,611,ls),
(99,637.61,o),
(111.285,652,o),
(134,652,cs),
(157.333,652,o),
(169,637,o),
(169,607,cs),
(169,576,ls),
(169,546,o),
(156,531,o),
(130,531,cs),
(112,531,l),
(112,469,l),
(130,469,ls),
(159.17,469,o),
(171,454.862,o),
(171,420,cs),
(171,383,ls),
(171,351.667,o),
(158.667,336,o),
(134,336,cs),
(111.545,336,o),
(98,351.426,o),
(98,377,cs),
(98,400,l)
);
}
);
width = 274;
}
);
},
{
glyphname = three.osf;
layers = (
{
layerId = "8252F75B-64DB-41DD-8CF8-30E5C2E9A516";
shapes = (
{
closed = 1;
nodes = (
(51,25,l),
(51,14,ls),
(51,-102.227,o),
(135.927,-168,o),
(286,-168,cs),
(430.423,-168,o),
(522,-91.557,o),
(522,29,cs),
(522,44,ls),
(522,130.655,o),
(485.136,186.621,o),
(412,211,c),
(475.637,238.841,o),
(510,288.633,o),
(510,353,cs),
(510,369,ls),
(510,476.856,o),
(424.522,542,o),
(283,542,cs),
(137.43,542,o),
(57,475.805,o),
(57,356,cs),
(57,348,l),
(180,348,l),
(180,356,ls),
(180,406.613,o),
(215.932,435,o),
(280,435,cs),
(342.367,435,o),
(378,405.912,o),
(378,355,cs),
(378,341,ls),
(378,285.48,o),
(339.284,254,o),
(271,254,cs),
(232,254,l),
(232,144,l),
(272,144,ls),
(354.48,144,o),
(390,113.898,o),
(390,44,cs),
(390,30,ls),
(390,-27.855,o),
(351.392,-61,o),
(284,-61,cs),
(213.59,-61,o),
(176,-33.852,o),
(176,17,cs),
(176,25,l)
);
}
);
width = 568;
},
{
layerId = "DC39735F-7E79-401F-A303-677125EC6CF0";
shapes = (
{
closed = 1;
nodes = (
(59,8,l),
(59,-1,ls),
(59,-112.666,o),
(139.837,-178,o),
(278,-178,cs),
(418.259,-178,o),
(504,-104.779,o),
(504,15,cs),
(504,29,ls),
(504,114.53,o),
(463.495,174.055,o),
(389,198,c),
(454.591,224.516,o),
(490,275.35,o),
(490,343,cs),
(490,357,ls),
(490,467.648,o),
(412.023,533,o),
(280,533,cs),
(145.763,533,o),
(68,471.009,o),
(68,364,cs),
(68,342,l),
(156,342,l),
(156,362,ls),
(156,423.828,o),
(194.469,453,o),
(276,453,cs),
(355.482,453,o),
(398,417.104,o),
(398,350,cs),
(398,338,ls),
(398,268.781,o),
(352.804,231,o),
(270,231,cs),
(229,231,l),
(229,149,l),
(271,149,ls),
(362.47,149,o),
(411,108.443,o),
(411,32,cs),
(411,15,ls),
(411,-57.575,o),
(364.887,-97,o),
(280,-97,cs),
(194.117,-97,o),
(149,-63.593,o),
(149,0,cs),
(149,8,l)
);
}
);
width = 562;
},
{
layerId = "CF6BFDE9-2838-4146-85B5-55FAC6F26460";
shapes = (
{
closed = 1;
nodes = (
(56,31,l),
(56,9,ls),
(56,-103.437,o),
(131.481,-167,o),
(265,-167,cs),
(391.077,-167,o),
(474.909,-87.924,o),
(474.909,31,cs),
(474.909,44.655,ls),
(474.909,128.64,o),
(444.532,181.477,o),
(381,208,c),
(432.858,234.864,o),
(463.878,285.767,o),
(463.878,344,cs),
(463.878,356.355,ls),
(463.878,471.347,o),
(389.157,540,o),
(264,540,cs),
(137.611,540,o),
(61,470.56,o),
(61,356,cs),
(61,340,l),
(184.005,340,l),
(184.005,344.294,ls),
(184.005,402.198,o),
(207.734,429,o),
(259,429,cs),
(305.496,429,o),
(333.869,398.682,o),
(333.869,349,cs),
(333.869,336.594,ls),
(333.869,271.53,o),
(308.712,251.996,o),
(224.92,251.996,cs),
(217,251.996,l),
(217,141.006,l),
(224.557,141.006,ls),
(313.169,141.006,o),
(344.852,116.773,o),
(344.852,49,cs),
(344.852,35.634,ls),
(344.852,-25.431,o),
(316.381,-58,o),
(263,-58,cs),
(205.513,-58,o),
(181.013,-33.137,o),
(181.013,25.201,cs),
(181.013,31,l)
);
}
);
width = 516;
},
{
layerId = "17EBA7C1-94C5-4917-BF04-666E42EA2D32";
shapes = (
{
closed = 1;
nodes = (
(62.034,23,l),
(62.034,16.055,ls),
(62.034,-98.075,o),
(128.799,-162,o),
(248,-162,cs),
(358.462,-162,o),
(438.902,-86.215,o),
(438.902,17.854,cs),
(438.902,39.513,ls),
(438.902,132.748,o),
(411.526,177.376,o),
(338,204,c),
(397.546,230.551,o),
(426.95,280.715,o),
(426.95,355.752,cs),
(426.95,364,ls),
(426.95,461.556,o),
(354.213,529,o),
(249,529,cs),
(138.45,529,o),
(71,464.581,o),
(71,359,cs),
(71,340,l),
(142.028,340,l),
(142.028,346.569,ls),
(142.028,423.209,o),
(177.304,462,o),
(247,462,cs),
(309.926,462,o),
(352.971,420.568,o),
(352.971,360,cs),
(352.971,353.347,ls),
(352.971,263.157,o),
(316.788,230.058,o),
(218.194,230.058,cs),
(207,230.058,l),
(207,162.923,l),
(218.213,162.923,ls),
(317.412,162.923,o),
(364.901,119.319,o),
(364.901,28.236,cs),
(364.901,17,ls),
(364.901,-48.887,o),
(316.579,-96,o),
(249,-96,cs),
(175.919,-96,o),
(137.058,-57.531,o),
(137.058,14.813,cs),
(137.058,23,l)
);
}
);
width = 506;
},
{
layerId = "0E6BC793-ECDE-4AD7-84CA-C7A783A2BC64";
shapes = (
{
closed = 1;
nodes = (
(34,45,l),
(34,-1,ls),
(34,-101.961,o),
(94.959,-160,o),
(201,-160,cs),
(307.449,-160,o),
(370,-98.559,o),
(370,6,cs),
(370,72,ls),
(370,153.134,o),
(351.913,188.035,o),
(299,209,c),
(349.965,230.985,o),
(370,267.951,o),
(370,340,cs),
(370,384,ls),
(370,489.545,o),
(309.464,549,o),
(202,549,cs),
(97.198,549,o),
(34,489.188,o),
(34,390,cs),
(34,345,l),
(156,345,l),
(156,384,ls),
(156,419.795,o),
(170.833,438,o),
(200,438,cs),
(230.648,438,o),
(244,419.489,o),
(244,377,cs),
(244,322,ls),
(244,275.252,o),
(231.946,260,o),
(195,260,cs),
(166,260,l),
(166,147,l),
(193,147,ls),
(232,147,o),
(244,131,o),
(244,79,cs),
(244,12,ls),
(244,-31.841,o),
(231.113,-50,o),
(200,-50,cs),
(171.091,-50,o),
(156,-31.136,o),
(156,5,cs),
(156,45,l)
);
}
);
width = 408;
},
{
layerId = "D32B31B9-0BB7-473D-9726-FC40C81139B8";
shapes = (
{
closed = 1;
nodes = (
(56,21,l),
(56,-21,ls),
(56,-111.155,o),
(111.893,-162,o),
(211,-162,cs),
(312.974,-162,o),
(369,-106.684,o),
(369,-6,cs),
(369,54,ls),
(369,138.381,o),
(349.499,175.864,o),
(292,202,c),
(344.834,225.775,o),
(365,263.621,o),
(365,339,cs),
(365,394,ls),
(365,488.053,o),
(310.918,540,o),
(213,540,cs),
(113.794,540,o),
(58,487.086,o),
(58,393,cs),
(58,353,l),
(132,353,l),
(132,392,ls),
(132,445.603,o),
(160.587,476,o),
(211,476,cs),
(263.09,476,o),
(292,444.235,o),
(292,387,cs),
(292,336,ls),
(292,262.5,o),
(266.8,231,o),
(208,231,cs),
(178,231,l),
(178,165,l),
(208,165,ls),
(268.721,165,o),
(295,131.774,o),
(295,55,cs),
(295,-9,ls),
(295,-67.972,o),
(266.385,-99,o),
(212,-99,cs),
(159.655,-99,o),
(130,-68.984,o),
(130,-16,cs),
(130,21,l)
);
}
);
width = 414;
}
);
},
{
glyphname = three.sups;
leftMetricsKey = three.dnom;
rightMetricsKey = three.dnom;
layers = (
{
layerId = "8252F75B-64DB-41DD-8CF8-30E5C2E9A516";
shapes = (
{
closed = 1;
nodes = (
(20.375,557,l),
(20.375,549,ls),
(20.375,469.055,o),
(73.581,426,o),
(172.375,426,cs),
(263.698,426,o),
(324.375,477.895,o),
(324.375,556,cs),
(324.375,564,ls),
(324.375,615.01,o),
(299.684,651.673,o),
(258.375,662,c),
(294.997,677.695,o),
(316.375,708.287,o),
(316.375,745,cs),
(316.375,752,ls),
(316.375,824.892,o),
(260.946,870,o),
(171.375,870,cs),
(74.9,870,o),
(22.375,825.935,o),
(22.375,745,cs),
(22.375,738,l),
(116.375,738,l),
(116.375,746,ls),
(116.375,771.333,o),
(133.042,784,o),
(166.375,784,cs),
(199.042,784,o),
(215.375,770.667,o),
(215.375,744,cs),
(215.375,736,l),
(214.708,709.333,o),
(196.042,696,o),
(159.375,696,cs),
(136.375,696,l),
(136.375,609,l),
(160.375,609,ls),
(201.708,609,o),
(222.375,593.333,o),
(222.375,562,cs),
(222.375,555,ls),
(222.375,527.333,o),
(203.832,512,o),
(170.375,512,cs),
(133.708,512,o),
(115.375,525,o),
(115.375,551,cs),
(115.375,557,l)
);
}
);
width = 365;
},
{
layerId = "DC39735F-7E79-401F-A303-677125EC6CF0";
shapes = (
{
closed = 1;
nodes = (
(29.739,551,l),
(29.739,543,ls),
(29.739,469.846,o),
(81.819,427,o),
(170.739,427,cs),
(261.178,427,o),
(316.739,473.808,o),
(316.739,550,cs),
(316.739,559,ls),
(316.739,609.667,o),
(294.405,643.333,o),
(249.739,660,c),
(289.739,677.333,o),
(309.739,707,o),
(309.739,749,cs),
(309.739,757,ls),
(309.739,825.82,o),
(257.702,867,o),
(170.739,867,cs),
(83.469,867,o),
(31.739,823.83,o),
(31.739,751,cs),
(31.739,744,l),
(102.739,744,l),
(102.739,751,ls),
(102.739,783.738,o),
(126.013,802,o),
(167.739,802,cs),
(211.072,802,o),
(232.739,784.333,o),
(232.739,749,cs),
(232.739,742,ls),
(232.739,705.333,o),
(209.739,687,o),
(163.739,687,cs),
(139.739,687,l),
(139.739,621,l),
(163.739,621,ls),
(215.474,621,o),
(239.739,600.886,o),
(239.739,558,cs),
(239.739,550,ls),
(239.739,511.333,o),
(216.405,492,o),
(169.739,492,cs),
(123.739,492,o),
(100.739,509.667,o),
(100.739,545,cs),
(100.739,551,l)
);
}
);
width = 349;
},
{
layerId = "CF6BFDE9-2838-4146-85B5-55FAC6F26460";
shapes = (
{
closed = 1;
nodes = (
(38.016,557,l),
(38.016,552.656,ls),
(38.016,463.244,o),
(83.281,426,o),
(174,426,cs),
(250.644,426,o),
(307.923,475.408,o),
(307.923,554,cs),
(307.923,564.125,ls),
(307.923,604.753,o),
(296.475,644.531,o),
(254,661,c),
(285.228,679.113,o),
(300.93,706.943,o),
(300.93,743,cs),
(300.93,750.729,ls),
(300.93,828.446,o),
(251.645,869,o),
(172,869,cs),
(94.933,869,o),
(40,829.128,o),
(40,748,cs),
(40,738,l),
(134.01,738,l),
(134.01,741.583,ls),
(134.01,765.571,o),
(138.266,781,o),
(168,781,cs),
(191.541,781,o),
(199.93,764.447,o),
(199.93,743,cs),
(199.93,736.398,ls),
(199.93,700.4,o),
(182.787,696.027,o),
(152.243,696.027,cs),
(141,696.027,l),
(141,608.893,l),
(152.234,608.893,ls),
(183.711,608.893,o),
(206.933,599.221,o),
(206.933,563,cs),
(206.933,556.614,ls),
(206.933,534.117,o),
(198.938,513,o),
(171,513,cs),
(140.297,513,o),
(133.029,526.66,o),
(133.029,552.233,cs),
(133.029,557,l)
);
}
);
width = 349;
},
{
layerId = "17EBA7C1-94C5-4917-BF04-666E42EA2D32";
shapes = (
{
closed = 1;
nodes = (
(40.021,548,l),
(40.021,543.563,ls),
(40.021,467.284,o),
(80.912,427,o),
(160,427,cs),
(231.513,427,o),
(283.846,474.054,o),
(283.846,547,cs),
(283.846,559.999,ls),
(283.846,602.561,o),
(268.166,639.846,o),
(225,659,c),
(258.184,675.596,o),
(277.828,710.342,o),
(277.828,747,cs),
(277.828,758.813,ls),
(277.828,827.452,o),
(233.311,867,o),
(160,867,cs),
(92.973,867,o),
(42,828.209,o),
(42,758,cs),
(42,746,l),
(104.04,746,l),
(104.04,751.155,ls),
(104.04,785.775,o),
(117.975,810,o),
(158,810,cs),
(192.812,810,o),
(209.856,783.262,o),
(209.856,751,cs),
(209.856,740.323,ls),
(209.856,694.58,o),
(186.681,683.078,o),
(144.005,683.078,cs),
(133,683.078,l),
(133,625.928,l),
(142.719,625.928,ls),
(185.652,625.928,o),
(216.91,612.872,o),
(216.91,560,cs),
(216.91,550.288,ls),
(216.91,513.349,o),
(204.497,483,o),
(159,483,cs),
(118.389,483,o),
(101.045,506.653,o),
(101.045,542.934,cs),
(101.045,548,l)
);
}
);
width = 326;
},
{
layerId = "0E6BC793-ECDE-4AD7-84CA-C7A783A2BC64";
shapes = (
{
closed = 1;
nodes = (
(29,555,l),
(29,523,ls),
(29,462,o),
(69,427,o),
(140,427,cs),
(212,427,o),
(253,465,o),
(253,533,cs),
(253,580,ls),
(253,623,o),
(242,641,o),
(206,656,c),
(241,674,o),
(253,693,o),
(253,732,cs),
(253,767,ls),
(253,830,o),
(212,866,o),
(140,866,cs),
(71,866,o),
(29,829,o),
(29,767,cs),
(29,736,l),
(111,736,l),
(111,762,ls),
(111,781.724,o),
(118.98,790,o),
(139,790,cs),
(161.927,790,o),
(169,780.007,o),
(169,758,cs),
(169,725,ls),
(169,701.627,o),
(160.689,690,o),
(136,690,cs),
(118,690,l),
(118,615,l),
(134,615,ls),
(164.79,615,o),
(169,603.587,o),
(169,575,cs),
(169,535,ls),
(169,511.637,o),
(163.38,503,o),
(139,503,cs),
(120,503,o),
(111,512,o),
(111,531,cs),
(111,555,l)
);
}
);
width = 284;
},
{
layerId = "D32B31B9-0BB7-473D-9726-FC40C81139B8";
shapes = (
{
closed = 1;
nodes = (
(31,554,l),
(31,529,ls),
(31,464.237,o),
(68.967,427,o),
(135,427,cs),
(199.667,427,o),
(242,469.333,o),
(242,534,cs),
(242,570,ls),
(242,619.035,o),
(228.473,644.363,o),
(195,658,c),
(225.969,672.811,o),
(240,698.067,o),
(240,739,cs),
(240,764,ls),
(240,829.333,o),
(200.333,869,o),
(135,869,cs),
(71.422,869,o),
(31,829.744,o),
(31,768,cs),
(31,742,l),
(99,742,l),
(99,765,ls),
(99,791.61,o),
(111.285,806,o),
(134,806,cs),
(157.333,806,o),
(169,791,o),
(169,761,cs),
(169,730,ls),
(169,700,o),
(156,685,o),
(130,685,cs),
(112,685,l),
(112,623,l),
(130,623,ls),
(159.17,623,o),
(171,608.862,o),
(171,574,cs),
(171,537,ls),
(171,505.667,o),
(158.667,490,o),
(134,490,cs),
(111.545,490,o),
(98,505.426,o),
(98,531,cs),
(98,554,l)
);
}
);
width = 274;
}
);
},
{
glyphname = three.tlf;
layers = (
{
layerId = "8252F75B-64DB-41DD-8CF8-30E5C2E9A516";
shapes = (
{
closed = 1;
nodes = (
(46,193,l),
(46,181,ls),
(46,58.333,o),
(130.86,-11,o),
(281,-11,cs),
(425.741,-11,o),
(517,69.432,o),
(517,197,cs),
(517,213,ls),
(517,294.345,o),
(477.828,352.39,o),
(407,376,c),
(470.657,403.85,o),
(505,454.313,o),
(505,520,cs),
(505,534,ls),
(505,648.614,o),
(419.399,718,o),
(278,718,cs),
(132.677,718,o),
(52,647.676,o),
(52,521,cs),
(52,512,l),
(175,512,l),
(175,521,ls),
(175,574.227,o),
(210.871,604,o),
(275,604,cs),
(337.444,604,o),
(373,573.524,o),
(373,520,cs),
(373,508,ls),
(373,451.813,o),
(335.103,421,o),
(266,421,cs),
(227,421,l),
(227,307,l),
(267,307,ls),
(347.17,307,o),
(385,276.864,o),
(385,213,cs),
(385,198,ls),
(385,137.208,o),
(346.125,102,o),
(279,102,cs),
(208.545,102,o),
(171,130.506,o),
(171,184,cs),
(171,193,l)
);
}
);
width = 562;
},
{
layerId = "DC39735F-7E79-401F-A303-677125EC6CF0";
shapes = (
{
closed = 1;
nodes = (
(59,181,l),
(59,171,ls),
(59,57.717,o),
(140.934,-10,o),
(278,-10,cs),
(418.007,-10,o),
(504,65.339,o),
(504,188,cs),
(504,207,ls),
(504,290.548,o),
(462.887,350.25,o),
(389,374,c),
(453.946,400.255,o),
(490,452.729,o),
(490,521,cs),
(490,537,ls),
(490,650.238,o),
(412.111,717,o),
(280,717,cs),
(146.248,717,o),
(68,649.456,o),
(68,534,cs),
(68,522,l),
(156,522,l),
(156,532,ls),
(156,600.089,o),
(197.436,636,o),
(276,636,cs),
(355.132,636,o),
(398,598.754,o),
(398,530,cs),
(398,516,ls),
(398,446.135,o),
(352.043,407,o),
(270,407,cs),
(229,407,l),
(229,325,l),
(271,325,ls),
(362.47,325,o),
(411,284.443,o),
(411,208,cs),
(411,188,ls),
(411,113.155,o),
(363.801,71,o),
(280,71,cs),
(194.964,71,o),
(149,106.438,o),
(149,172,cs),
(149,181,l)
);
}
);
width = 562;
},
{
layerId = "CF6BFDE9-2838-4146-85B5-55FAC6F26460";
shapes = (
{
closed = 1;
nodes = (
(54,193,l),
(54,171,ls),
(54,55,o),
(130,-11,o),
(263,-11,cs),
(390,-11,o),
(473,71.984,o),
(473,194,cs),
(473,210,ls),
(473,296.006,o),
(441,350,o),
(379,376,c),
(430,402,o),
(462,457,o),
(462,516,cs),
(462,523,ls),
(462,647,o),
(389,718,o),
(262,718,cs),
(135,718,o),
(59,647,o),
(59,529,cs),
(59,512,l),
(182,512,l),
(182,517,ls),
(182,576,o),
(206,604,o),
(257,604,cs),
(303,604,o),
(332,572,o),
(332,521,cs),
(332,515,ls),
(332,443,o),
(307.274,421,o),
(224,421,cs),
(215,421,l),
(215,307,l),
(224,307,ls),
(312,307,o),
(343,282,o),
(343,212,cs),
(343,196,ls),
(343,135,o),
(314,102,o),
(261,102,cs),
(204,102,o),
(179,126.548,o),
(179,181,cs),
(179,193,l)
);
}
);
width = 524;
},
{
layerId = "17EBA7C1-94C5-4917-BF04-666E42EA2D32";
shapes = (
{
closed = 1;
nodes = (
(70.01,175,l),
(70.01,170.972,ls),
(70.01,54.531,o),
(136.33,-10,o),
(256,-10,cs),
(372.839,-10,o),
(446.924,64.891,o),
(446.924,183,cs),
(446.924,196.512,ls),
(446.924,291.145,o),
(413.75,349.485,o),
(346,374,c),
(405.691,400.552,o),
(434.971,453.532,o),
(434.971,534.984,cs),
(434.971,542,ls),
(434.971,648.651,o),
(365.462,717,o),
(257,717,cs),
(146.45,717,o),
(79,652.581,o),
(79,547,cs),
(79,528,l),
(150.023,528,l),
(150.023,534.372,ls),
(150.023,611.058,o),
(185.378,650,o),
(255,650,cs),
(319.724,650,o),
(360.901,609.695,o),
(360.901,546.342,cs),
(360.901,538,ls),
(360.901,445.928,o),
(324.324,400,o),
(251,400,cs),
(215,400,l),
(215,333,l),
(252,333,ls),
(325.118,333,o),
(372.945,282.778,o),
(372.945,206,cs),
(372.945,196.091,ls),
(372.945,102.825,o),
(334.191,56,o),
(257,56,cs),
(183.376,56,o),
(145.015,95.111,o),
(145.015,170.175,cs),
(145.015,175,l)
);
}
);
width = 524;
},
{
layerId = "0E6BC793-ECDE-4AD7-84CA-C7A783A2BC64";
shapes = (
{
closed = 1;
nodes = (
(42,205,l),
(42,153,ls),
(42,49.769,o),
(103.236,-10,o),
(209,-10,cs),
(315.685,-10,o),
(378,52.683,o),
(378,160,cs),
(378,232,ls),
(378,313.134,o),
(359.913,348.035,o),
(307,369,c),
(357.965,390.985,o),
(378,427.951,o),
(378,500,cs),
(378,548,ls),
(378,655.318,o),
(316.683,717,o),
(210,717,cs),
(105.13,717,o),
(42,656.125,o),
(42,555,cs),
(42,505,l),
(164,505,l),
(164,548,ls),
(164,584.625,o),
(178.7,603,o),
(208,603,cs),
(238.258,603,o),
(252,583.636,o),
(252,541,cs),
(252,482,ls),
(252,435.252,o),
(239.946,420,o),
(203,420,cs),
(174,420,l),
(174,307,l),
(201,307,ls),
(240,307,o),
(252,291,o),
(252,239,cs),
(252,166,ls),
(252,120.591,o),
(239.714,103,o),
(208,103,cs),
(179.349,103,o),
(164,122.534,o),
(164,159,cs),
(164,205,l)
);
}
);
width = 418;
},
{
layerId = "D32B31B9-0BB7-473D-9726-FC40C81139B8";
shapes = (
{
closed = 1;
nodes = (
(56,184,l),
(56,139,ls),
(56,44.463,o),
(111.991,-9,o),
(211,-9,cs),
(313.073,-9,o),
(369,49.051,o),
(369,155,cs),
(369,229,ls),
(369,307.095,o),
(348.199,345.455,o),
(292,371,c),
(343.699,394.265,o),
(365,432.781,o),
(365,503,cs),
(365,563,ls),
(365,661.325,o),
(310.682,716,o),
(213,716,cs),
(114.017,716,o),
(58,660.344,o),
(58,562,cs),
(58,520,l),
(132,520,l),
(132,561,ls),
(132,617.219,o),
(160.53,649,o),
(211,649,cs),
(263.426,649,o),
(292,615.84,o),
(292,555,cs),
(292,500,ls),
(292,431.619,o),
(265.44,400,o),
(208,400,cs),
(178,400,l),
(178,334,l),
(208,334,ls),
(267.109,334,o),
(295,300.659,o),
(295,230,cs),
(295,152,ls),
(295,90.048,o),
(266.126,57,o),
(212,57,cs),
(159.909,57,o),
(130,89.098,o),
(130,145,cs),
(130,184,l)
);
}
);
width = 418;
}
);
},
{
glyphname = three.tosf;
layers = (
{
layerId = "8252F75B-64DB-41DD-8CF8-30E5C2E9A516";
shapes = (
{
closed = 1;
nodes = (
(46,25,l),
(46,14,ls),
(46,-102.227,o),
(130.927,-168,o),
(281,-168,cs),
(425.423,-168,o),
(517,-91.557,o),
(517,29,cs),
(517,44,ls),
(517,130.655,o),
(480.136,186.621,o),
(407,211,c),
(470.637,238.841,o),
(505,288.633,o),
(505,353,cs),
(505,369,ls),
(505,476.856,o),
(419.522,542,o),
(278,542,cs),
(132.43,542,o),
(52,475.805,o),
(52,356,cs),
(52,348,l),
(175,348,l),
(175,356,ls),
(175,406.613,o),
(210.932,435,o),
(275,435,cs),
(337.367,435,o),
(373,405.912,o),
(373,355,cs),
(373,341,ls),
(373,285.48,o),
(334.284,254,o),
(266,254,cs),
(227,254,l),
(227,144,l),
(267,144,ls),
(349.48,144,o),
(385,113.898,o),
(385,44,cs),
(385,30,ls),
(385,-27.855,o),
(346.392,-61,o),
(279,-61,cs),
(208.59,-61,o),
(171,-33.852,o),
(171,17,cs),
(171,25,l)
);
}
);
width = 562;
},
{
layerId = "DC39735F-7E79-401F-A303-677125EC6CF0";
shapes = (
{
closed = 1;
nodes = (
(59,8,l),
(59,-1,ls),
(59,-112.666,o),
(139.837,-178,o),
(278,-178,cs),
(418.259,-178,o),
(504,-104.779,o),
(504,15,cs),
(504,29,ls),
(504,114.53,o),
(463.495,174.055,o),
(389,198,c),
(454.591,224.516,o),
(490,275.35,o),
(490,343,cs),
(490,357,ls),
(490,467.648,o),
(412.023,533,o),
(280,533,cs),
(145.763,533,o),
(68,471.009,o),
(68,364,cs),
(68,342,l),
(156,342,l),
(156,362,ls),
(156,423.828,o),
(194.469,453,o),
(276,453,cs),
(355.482,453,o),
(398,417.104,o),
(398,350,cs),
(398,338,ls),
(398,268.781,o),
(352.804,231,o),
(270,231,cs),
(229,231,l),
(229,149,l),
(271,149,ls),
(362.47,149,o),
(411,108.443,o),
(411,32,cs),
(411,15,ls),
(411,-57.575,o),
(364.887,-97,o),
(280,-97,cs),
(194.117,-97,o),
(149,-63.593,o),
(149,0,cs),
(149,8,l)
);
}
);
width = 562;
},
{
layerId = "CF6BFDE9-2838-4146-85B5-55FAC6F26460";
shapes = (
{
closed = 1;
nodes = (
(56,31,l),
(56,9,ls),
(56,-103.437,o),
(131.481,-167,o),
(265,-167,cs),
(391.077,-167,o),
(474.909,-87.924,o),
(474.909,31,cs),
(474.909,44.655,ls),
(474.909,128.64,o),
(444.532,181.477,o),
(381,208,c),
(432.858,234.864,o),
(463.878,285.767,o),
(463.878,344,cs),
(463.878,356.355,ls),
(463.878,471.347,o),
(389.157,540,o),
(264,540,cs),
(137.611,540,o),
(61,470.56,o),
(61,356,cs),
(61,340,l),
(184.005,340,l),
(184.005,344.294,ls),
(184.005,402.198,o),
(207.734,429,o),
(259,429,cs),
(305.496,429,o),
(333.869,398.682,o),
(333.869,349,cs),
(333.869,336.594,ls),
(333.869,271.53,o),
(308.712,251.996,o),
(224.92,251.996,cs),
(217,251.996,l),
(217,141.006,l),
(224.557,141.006,ls),
(313.169,141.006,o),
(344.852,116.773,o),
(344.852,49,cs),
(344.852,35.634,ls),
(344.852,-25.431,o),
(316.381,-58,o),
(263,-58,cs),
(205.513,-58,o),
(181.013,-33.137,o),
(181.013,25.201,cs),
(181.013,31,l)
);
}
);
width = 524;
},
{
layerId = "17EBA7C1-94C5-4917-BF04-666E42EA2D32";
shapes = (
{
closed = 1;
nodes = (
(70.034,23,l),
(70.034,16.055,ls),
(70.034,-98.075,o),
(136.799,-162,o),
(256,-162,cs),
(366.462,-162,o),
(446.902,-86.215,o),
(446.902,17.854,cs),
(446.902,39.513,ls),
(446.902,132.748,o),
(419.526,177.376,o),
(346,204,c),
(405.546,230.551,o),
(434.95,280.715,o),
(434.95,355.752,cs),
(434.95,364,ls),
(434.95,461.556,o),
(362.213,529,o),
(257,529,cs),
(146.45,529,o),
(79,464.581,o),
(79,359,cs),
(79,340,l),
(150.028,340,l),
(150.028,346.569,ls),
(150.028,423.209,o),
(185.304,462,o),
(255,462,cs),
(317.926,462,o),
(360.971,420.568,o),
(360.971,360,cs),
(360.971,353.347,ls),
(360.971,263.157,o),
(324.788,230.058,o),
(226.194,230.058,cs),
(215,230.058,l),
(215,162.923,l),
(226.213,162.923,ls),
(325.412,162.923,o),
(372.901,119.319,o),
(372.901,28.236,cs),
(372.901,17,ls),
(372.901,-48.887,o),
(324.579,-96,o),
(257,-96,cs),
(183.919,-96,o),
(145.058,-57.531,o),
(145.058,14.813,cs),
(145.058,23,l)
);
}
);
width = 524;
},
{
layerId = "0E6BC793-ECDE-4AD7-84CA-C7A783A2BC64";
shapes = (
{
closed = 1;
nodes = (
(42,45,l),
(42,-1,ls),
(42,-101.961,o),
(102.959,-160,o),
(209,-160,cs),
(315.449,-160,o),
(378,-98.559,o),
(378,6,cs),
(378,72,ls),
(378,153.134,o),
(359.913,188.035,o),
(307,209,c),
(357.965,230.985,o),
(378,267.951,o),
(378,340,cs),
(378,384,ls),
(378,489.545,o),
(317.464,549,o),
(210,549,cs),
(105.198,549,o),
(42,489.188,o),
(42,390,cs),
(42,345,l),
(164,345,l),
(164,384,ls),
(164,419.795,o),
(178.833,438,o),
(208,438,cs),
(238.648,438,o),
(252,419.489,o),
(252,377,cs),
(252,322,ls),
(252,275.252,o),
(239.946,260,o),
(203,260,cs),
(174,260,l),
(174,147,l),
(201,147,ls),
(240,147,o),
(252,131,o),
(252,79,cs),
(252,12,ls),
(252,-31.841,o),
(239.113,-50,o),
(208,-50,cs),
(179.091,-50,o),
(164,-31.136,o),
(164,5,cs),
(164,45,l)
);
}
);
width = 418;
},
{
layerId = "D32B31B9-0BB7-473D-9726-FC40C81139B8";
shapes = (
{
closed = 1;
nodes = (
(56,21,l),
(56,-21,ls),
(56,-111.155,o),
(111.893,-162,o),
(211,-162,cs),
(312.974,-162,o),
(369,-106.684,o),
(369,-6,cs),
(369,54,ls),
(369,138.381,o),
(349.499,175.864,o),
(292,202,c),
(344.834,225.775,o),
(365,263.621,o),
(365,339,cs),
(365,394,ls),
(365,488.053,o),
(310.918,540,o),
(213,540,cs),
(113.794,540,o),
(58,487.086,o),
(58,393,cs),
(58,353,l),
(132,353,l),
(132,392,ls),
(132,445.603,o),
(160.587,476,o),
(211,476,cs),
(263.09,476,o),
(292,444.235,o),
(292,387,cs),
(292,336,ls),
(292,262.5,o),
(266.8,231,o),
(208,231,cs),
(178,231,l),
(178,165,l),
(208,165,ls),
(268.721,165,o),
(295,131.774,o),
(295,55,cs),
(295,-9,ls),
(295,-67.972,o),
(266.385,-99,o),
(212,-99,cs),
(159.655,-99,o),
(130,-68.984,o),
(130,-16,cs),
(130,21,l)
);
}
);
width = 418;
}
);
},
{
glyphname = four;
layers = (
{
layerId = "8252F75B-64DB-41DD-8CF8-30E5C2E9A516";
shapes = (
{
closed = 1;
nodes = (
(40,113,l),
(360,113,l),
(360,0,l),
(495,0,l),
(495,113,l),
(559,113,l),
(559,230,l),
(495,230,l),
(495,396,l),
(360,396,l),
(360,230,l),
(176,230,l),
(403,707,l),
(266,707,l),
(40,230,l)
);
}
);
width = 590;
},
{
layerId = "DC39735F-7E79-401F-A303-677125EC6CF0";
shapes = (
{
closed = 1;
nodes = (
(44,131,l),
(356,131,l),
(356,0,l),
(450,0,l),
(450,131,l),
(535,131,l),
(535,214,l),
(450,214,l),
(450,397,l),
(356,397,l),
(356,214,l),
(139,214,l),
(380,707,l),
(285,707,l),
(44,214,l)
);
}
);
width = 577;
},
{
layerId = "CF6BFDE9-2838-4146-85B5-55FAC6F26460";
shapes = (
{
closed = 1;
nodes = (
(36,113,l),
(306,113,l),
(306,0,l),
(440,0,l),
(440,113,l),
(498,113,l),
(498,230,l),
(440,230,l),
(440,396,l),
(306,396,l),
(306,230,l),
(170,230,l),
(372,707,l),
(238,707,l),
(36,230,l)
);
}
);
width = 533;
},
{
layerId = "17EBA7C1-94C5-4917-BF04-666E42EA2D32";
shapes = (
{
closed = 1;
nodes = (
(47,138,l),
(312,138,l),
(312,0,l),
(387,0,l),
(387,138,l),
(464,138,l),
(464,206,l),
(387,206,l),
(387,398,l),
(312,398,l),
(312,206,l),
(122,206,l),
(334,707,l),
(259,707,l),
(47,206,l)
);
}
);
width = 510;
},
{
layerId = "0E6BC793-ECDE-4AD7-84CA-C7A783A2BC64";
shapes = (
{
closed = 1;
nodes = (
(28,118,l),
(240,118,l),
(240,0,l),
(366,0,l),
(366,118,l),
(410,118,l),
(410,231,l),
(366,231,l),
(366,387,l),
(240,387,l),
(240,231,l),
(154,231,l),
(294,707,l),
(168,707,l),
(28,231,l)
);
}
);
width = 437;
},
{
layerId = "D32B31B9-0BB7-473D-9726-FC40C81139B8";
shapes = (
{
closed = 1;
nodes = (
(37,142,l),
(252,142,l),
(252,0,l),
(327,0,l),
(327,142,l),
(389,142,l),
(389,209,l),
(327,209,l),
(327,394,l),
(252,394,l),
(252,209,l),
(110,209,l),
(260,707,l),
(185,707,l),
(37,209,l)
);
}
);
width = 425;
}
);
unicode = 52;
},
{
glyphname = four.dnom;
layers = (
{
layerId = "8252F75B-64DB-41DD-8CF8-30E5C2E9A516";
shapes = (
{
closed = 1;
nodes = (
(30,58,l),
(236,58,l),
(236,0,l),
(341,0,l),
(341,58,l),
(369,58,l),
(369,150,l),
(341,150,l),
(341,240,l),
(236,240,l),
(236,150,l),
(135,150,l),
(253,429,l),
(147,429,l),
(30,150,l)
);
}
);
width = 399;
},
{
layerId = "DC39735F-7E79-401F-A303-677125EC6CF0";
shapes = (
{
closed = 1;
nodes = (
(40,77,l),
(241,77,l),
(241,0,l),
(311,0,l),
(311,77,l),
(351,77,l),
(351,137,l),
(311,137,l),
(311,238,l),
(241,238,l),
(241,137,l),
(111,137,l),
(229,427,l),
(160,427,l),
(40,137,l)
);
}
);
width = 391;
},
{
layerId = "CF6BFDE9-2838-4146-85B5-55FAC6F26460";
shapes = (
{
closed = 1;
nodes = (
(30,58,l),
(196,58,l),
(196,0,l),
(301,0,l),
(301,58,l),
(329,58,l),
(329,150,l),
(301,150,l),
(301,240,l),
(196,240,l),
(196,150,l),
(135,150,l),
(253,429,l),
(147,429,l),
(30,150,l)
);
}
);
width = 359;
},
{
layerId = "17EBA7C1-94C5-4917-BF04-666E42EA2D32";
shapes = (
{
closed = 1;
nodes = (
(37,77,l),
(198,77,l),
(198,0,l),
(268,0,l),
(268,77,l),
(308,77,l),
(308,137,l),
(268,137,l),
(268,238,l),
(198,238,l),
(198,137,l),
(108,137,l),
(226,427,l),
(157,427,l),
(37,137,l)
);
}
);
width = 339;
},
{
layerId = "0E6BC793-ECDE-4AD7-84CA-C7A783A2BC64";
shapes = (
{
closed = 1;
nodes = (
(20,66,l),
(162,66,l),
(162,0,l),
(246,0,l),
(246,66,l),
(275,66,l),
(275,142,l),
(246,142,l),
(246,225,l),
(162,225,l),
(162,142,l),
(105,142,l),
(198,427,l),
(114,427,l),
(20,142,l)
);
}
);
width = 295;
},
{
layerId = "D32B31B9-0BB7-473D-9726-FC40C81139B8";
shapes = (
{
closed = 1;
nodes = (
(24,76,l),
(161,76,l),
(161,0,l),
(232,0,l),
(232,76,l),
(264,76,l),
(264,140,l),
(232,140,l),
(232,238,l),
(161,238,l),
(161,140,l),
(95,140,l),
(189,428,l),
(118,428,l),
(24,140,l)
);
}
);
width = 288;
}
);
},
{
glyphname = four.numr;
leftMetricsKey = four.dnom;
rightMetricsKey = four.dnom;
layers = (
{
layerId = "8252F75B-64DB-41DD-8CF8-30E5C2E9A516";
shapes = (
{
closed = 1;
nodes = (
(30,338,l),
(236,338,l),
(236,280,l),
(341,280,l),
(341,338,l),
(369,338,l),
(369,430,l),
(341,430,l),
(341,520,l),
(236,520,l),
(236,430,l),
(135,430,l),
(253,709,l),
(147,709,l),
(30,430,l)
);
}
);
width = 399;
},
{
layerId = "DC39735F-7E79-401F-A303-677125EC6CF0";
shapes = (
{
closed = 1;
nodes = (
(40,357,l),
(241,357,l),
(241,280,l),
(311,280,l),
(311,357,l),
(351,357,l),
(351,417,l),
(311,417,l),
(311,518,l),
(241,518,l),
(241,417,l),
(111,417,l),
(229,707,l),
(160,707,l),
(40,417,l)
);
}
);
width = 391;
},
{
layerId = "CF6BFDE9-2838-4146-85B5-55FAC6F26460";
shapes = (
{
closed = 1;
nodes = (
(30,338,l),
(196,338,l),
(196,280,l),
(301,280,l),
(301,338,l),
(329,338,l),
(329,430,l),
(301,430,l),
(301,520,l),
(196,520,l),
(196,430,l),
(135,430,l),
(253,709,l),
(147,709,l),
(30,430,l)
);
}
);
width = 359;
},
{
layerId = "17EBA7C1-94C5-4917-BF04-666E42EA2D32";
shapes = (
{
closed = 1;
nodes = (
(37,357,l),
(198,357,l),
(198,280,l),
(268,280,l),
(268,357,l),
(308,357,l),
(308,417,l),
(268,417,l),
(268,518,l),
(198,518,l),
(198,417,l),
(108,417,l),
(226,707,l),
(157,707,l),
(37,417,l)
);
}
);
width = 339;
},
{
layerId = "0E6BC793-ECDE-4AD7-84CA-C7A783A2BC64";
shapes = (
{
closed = 1;
nodes = (
(20,346,l),
(162,346,l),
(162,280,l),
(246,280,l),
(246,346,l),
(275,346,l),
(275,422,l),
(246,422,l),
(246,505,l),
(162,505,l),
(162,422,l),
(105,422,l),
(198,707,l),
(114,707,l),
(20,422,l)
);
}
);
width = 295;
},
{
layerId = "D32B31B9-0BB7-473D-9726-FC40C81139B8";
shapes = (
{
closed = 1;
nodes = (
(24,356,l),
(161,356,l),
(161,280,l),
(232,280,l),
(232,356,l),
(264,356,l),
(264,420,l),
(232,420,l),
(232,518,l),
(161,518,l),
(161,420,l),
(95,420,l),
(189,708,l),
(118,708,l),
(24,420,l)
);
}
);
width = 288;
}
);
},
{
glyphname = four.osf;
layers = (
{
layerId = "8252F75B-64DB-41DD-8CF8-30E5C2E9A516";
shapes = (
{
closed = 1;
nodes = (
(40,0,l),
(360,0,l),
(360,-168,l),
(495,-168,l),
(495,0,l),
(559,0,l),
(559,117,l),
(495,117,l),
(495,254,l),
(360,254,l),
(360,117,l),
(176,117,l),
(403,543,l),
(266,543,l),
(40,117,l)
);
}
);
width = 590;
},
{
layerId = "DC39735F-7E79-401F-A303-677125EC6CF0";
shapes = (
{
closed = 1;
nodes = (
(44,0,l),
(356,0,l),
(356,-166,l),
(450,-166,l),
(450,0,l),
(535,0,l),
(535,83,l),
(450,83,l),
(450,231,l),
(356,231,l),
(356,83,l),
(139,83,l),
(380,541,l),
(285,541,l),
(44,83,l)
);
}
);
width = 577;
},
{
layerId = "CF6BFDE9-2838-4146-85B5-55FAC6F26460";
shapes = (
{
closed = 1;
nodes = (
(48,0,l),
(318,0,l),
(318,-160,l),
(452,-160,l),
(452,0,l),
(510,0,l),
(510,117,l),
(452,117,l),
(452,266,l),
(318,266,l),
(318,117,l),
(182,117,l),
(378,543,l),
(244,543,l),
(48,117,l)
);
}
);
width = 533;
},
{
layerId = "17EBA7C1-94C5-4917-BF04-666E42EA2D32";
shapes = (
{
closed = 1;
nodes = (
(50,0,l),
(315,0,l),
(315,-160,l),
(390,-160,l),
(390,0,l),
(467,0,l),
(467,68,l),
(390,68,l),
(390,260,l),
(315,260,l),
(315,68,l),
(125,68,l),
(337,529,l),
(262,529,l),
(50,68,l)
);
}
);
width = 510;
},
{
layerId = "0E6BC793-ECDE-4AD7-84CA-C7A783A2BC64";
shapes = (
{
closed = 1;
nodes = (
(28,0,l),
(240,0,l),
(240,-162,l),
(366,-162,l),
(366,0,l),
(410,0,l),
(410,113,l),
(366,113,l),
(366,245,l),
(240,245,l),
(240,113,l),
(154,113,l),
(294,551,l),
(168,551,l),
(28,113,l)
);
}
);
width = 437;
},
{
layerId = "D32B31B9-0BB7-473D-9726-FC40C81139B8";
shapes = (
{
closed = 1;
nodes = (
(37,0,l),
(252,0,l),
(252,-162,l),
(327,-162,l),
(327,0,l),
(389,0,l),
(389,67,l),
(327,67,l),
(327,232,l),
(252,232,l),
(252,67,l),
(110,67,l),
(260,539,l),
(185,539,l),
(37,67,l)
);
}
);
width = 425;
}
);
},
{
glyphname = four.sups;
leftMetricsKey = four.dnom;
rightMetricsKey = four.dnom;
layers = (
{
layerId = "8252F75B-64DB-41DD-8CF8-30E5C2E9A516";
shapes = (
{
closed = 1;
nodes = (
(30,498,l),
(236,498,l),
(236,440,l),
(341,440,l),
(341,498,l),
(369,498,l),
(369,590,l),
(341,590,l),
(341,680,l),
(236,680,l),
(236,590,l),
(135,590,l),
(253,869,l),
(147,869,l),
(30,590,l)
);
}
);
width = 399;
},
{
layerId = "DC39735F-7E79-401F-A303-677125EC6CF0";
shapes = (
{
closed = 1;
nodes = (
(40,517,l),
(241,517,l),
(241,440,l),
(311,440,l),
(311,517,l),
(351,517,l),
(351,577,l),
(311,577,l),
(311,678,l),
(241,678,l),
(241,577,l),
(111,577,l),
(229,867,l),
(160,867,l),
(40,577,l)
);
}
);
width = 391;
},
{
layerId = "CF6BFDE9-2838-4146-85B5-55FAC6F26460";
shapes = (
{
closed = 1;
nodes = (
(30,498,l),
(196,498,l),
(196,440,l),
(301,440,l),
(301,498,l),
(329,498,l),
(329,590,l),
(301,590,l),
(301,680,l),
(196,680,l),
(196,590,l),
(135,590,l),
(253,869,l),
(147,869,l),
(30,590,l)
);
}
);
width = 359;
},
{
layerId = "17EBA7C1-94C5-4917-BF04-666E42EA2D32";
shapes = (
{
closed = 1;
nodes = (
(37,517,l),
(198,517,l),
(198,440,l),
(268,440,l),
(268,517,l),
(308,517,l),
(308,577,l),
(268,577,l),
(268,678,l),
(198,678,l),
(198,577,l),
(108,577,l),
(226,867,l),
(157,867,l),
(37,577,l)
);
}
);
width = 339;
},
{
layerId = "0E6BC793-ECDE-4AD7-84CA-C7A783A2BC64";
shapes = (
{
closed = 1;
nodes = (
(20,506,l),
(162,506,l),
(162,440,l),
(246,440,l),
(246,506,l),
(275,506,l),
(275,582,l),
(246,582,l),
(246,665,l),
(162,665,l),
(162,582,l),
(105,582,l),
(198,867,l),
(114,867,l),
(20,582,l)
);
}
);
width = 295;
},
{
layerId = "D32B31B9-0BB7-473D-9726-FC40C81139B8";
shapes = (
{
closed = 1;
nodes = (
(24,516,l),
(161,516,l),
(161,440,l),
(232,440,l),
(232,516,l),
(264,516,l),
(264,580,l),
(232,580,l),
(232,678,l),
(161,678,l),
(161,580,l),
(95,580,l),
(189,868,l),
(118,868,l),
(24,580,l)
);
}
);
width = 288;
}
);
},
{
glyphname = four.tlf;
layers = (
{
layerId = "8252F75B-64DB-41DD-8CF8-30E5C2E9A516";
shapes = (
{
closed = 1;
nodes = (
(27,113,l),
(347,113,l),
(347,0,l),
(482,0,l),
(482,113,l),
(546,113,l),
(546,230,l),
(482,230,l),
(482,396,l),
(347,396,l),
(347,230,l),
(163,230,l),
(390,707,l),
(253,707,l),
(27,230,l)
);
}
);
width = 562;
},
{
layerId = "DC39735F-7E79-401F-A303-677125EC6CF0";
shapes = (
{
closed = 1;
nodes = (
(52,131,l),
(364,131,l),
(364,0,l),
(458,0,l),
(458,131,l),
(543,131,l),
(543,214,l),
(458,214,l),
(458,397,l),
(364,397,l),
(364,214,l),
(147,214,l),
(388,707,l),
(293,707,l),
(52,214,l)
);
}
);
width = 562;
},
{
layerId = "CF6BFDE9-2838-4146-85B5-55FAC6F26460";
shapes = (
{
closed = 1;
nodes = (
(48,113,l),
(318,113,l),
(318,0,l),
(452,0,l),
(452,113,l),
(510,113,l),
(510,230,l),
(452,230,l),
(452,396,l),
(318,396,l),
(318,230,l),
(182,230,l),
(384,707,l),
(250,707,l),
(48,230,l)
);
}
);
width = 524;
},
{
layerId = "17EBA7C1-94C5-4917-BF04-666E42EA2D32";
shapes = (
{
closed = 1;
nodes = (
(59,138,l),
(324,138,l),
(324,0,l),
(399,0,l),
(399,138,l),
(476,138,l),
(476,206,l),
(399,206,l),
(399,398,l),
(324,398,l),
(324,206,l),
(134,206,l),
(346,707,l),
(271,707,l),
(59,206,l)
);
}
);
width = 524;
},
{
layerId = "0E6BC793-ECDE-4AD7-84CA-C7A783A2BC64";
shapes = (
{
closed = 1;
nodes = (
(32,118,l),
(244,118,l),
(244,0,l),
(370,0,l),
(370,118,l),
(414,118,l),
(414,231,l),
(370,231,l),
(370,387,l),
(244,387,l),
(244,231,l),
(158,231,l),
(298,707,l),
(172,707,l),
(32,231,l)
);
}
);
width = 418;
},
{
layerId = "D32B31B9-0BB7-473D-9726-FC40C81139B8";
shapes = (
{
closed = 1;
nodes = (
(49,142,l),
(264,142,l),
(264,0,l),
(339,0,l),
(339,142,l),
(401,142,l),
(401,209,l),
(339,209,l),
(339,394,l),
(264,394,l),
(264,209,l),
(122,209,l),
(272,707,l),
(197,707,l),
(49,209,l)
);
}
);
width = 418;
}
);
},
{
glyphname = four.tosf;
layers = (
{
layerId = "8252F75B-64DB-41DD-8CF8-30E5C2E9A516";
shapes = (
{
closed = 1;
nodes = (
(27,0,l),
(347,0,l),
(347,-168,l),
(482,-168,l),
(482,0,l),
(546,0,l),
(546,117,l),
(482,117,l),
(482,254,l),
(347,254,l),
(347,117,l),
(163,117,l),
(390,543,l),
(253,543,l),
(27,117,l)
);
}
);
width = 562;
},
{
layerId = "DC39735F-7E79-401F-A303-677125EC6CF0";
shapes = (
{
closed = 1;
nodes = (
(52,0,l),
(364,0,l),
(364,-166,l),
(458,-166,l),
(458,0,l),
(543,0,l),
(543,83,l),
(458,83,l),
(458,231,l),
(364,231,l),
(364,83,l),
(147,83,l),
(388,541,l),
(293,541,l),
(52,83,l)
);
}
);
width = 562;
},
{
layerId = "CF6BFDE9-2838-4146-85B5-55FAC6F26460";
shapes = (
{
closed = 1;
nodes = (
(48,0,l),
(318,0,l),
(318,-160,l),
(452,-160,l),
(452,0,l),
(510,0,l),
(510,117,l),
(452,117,l),
(452,266,l),
(318,266,l),
(318,117,l),
(182,117,l),
(378,543,l),
(244,543,l),
(48,117,l)
);
}
);
width = 524;
},
{
layerId = "17EBA7C1-94C5-4917-BF04-666E42EA2D32";
shapes = (
{
closed = 1;
nodes = (
(59,0,l),
(324,0,l),
(324,-160,l),
(399,-160,l),
(399,0,l),
(476,0,l),
(476,68,l),
(399,68,l),
(399,260,l),
(324,260,l),
(324,68,l),
(134,68,l),
(346,529,l),
(271,529,l),
(59,68,l)
);
}
);
width = 524;
},
{
layerId = "0E6BC793-ECDE-4AD7-84CA-C7A783A2BC64";
shapes = (
{
closed = 1;
nodes = (
(32,0,l),
(244,0,l),
(244,-162,l),
(370,-162,l),
(370,0,l),
(414,0,l),
(414,113,l),
(370,113,l),
(370,245,l),
(244,245,l),
(244,113,l),
(158,113,l),
(298,551,l),
(172,551,l),
(32,113,l)
);
}
);
width = 418;
},
{
layerId = "D32B31B9-0BB7-473D-9726-FC40C81139B8";
shapes = (
{
closed = 1;
nodes = (
(49,0,l),
(264,0,l),
(264,-162,l),
(339,-162,l),
(339,0,l),
(401,0,l),
(401,67,l),
(339,67,l),
(339,232,l),
(264,232,l),
(264,67,l),
(122,67,l),
(272,539,l),
(197,539,l),
(49,67,l)
);
}
);
width = 418;
}
);
},
{
glyphname = five;
layers = (
{
layerId = "8252F75B-64DB-41DD-8CF8-30E5C2E9A516";
shapes = (
{
closed = 1;
nodes = (
(56,178,l),
(56,170,ls),
(56,58.643,o),
(142.188,-11,o),
(280,-11,cs),
(427.412,-11,o),
(514,70.778,o),
(514,210,cs),
(514,249,ls),
(514,385.137,o),
(438.204,465,o),
(309,465,cs),
(259.667,465,o),
(218,452.333,o),
(184,427,c),
(184,592,l),
(493,592,l),
(493,707,l),
(69,707,l),
(69,304,l),
(186,304,l),
(203.687,336.653,o),
(237.863,355,o),
(281,355,cs),
(346.423,355,o),
(382,315.901,o),
(382,244,cs),
(382,212,ls),
(382,141.03,o),
(346.164,102,o),
(281,102,cs),
(222.926,102,o),
(184,130.893,o),
(184,174,cs),
(184,178,l)
);
}
);
width = 560;
},
{
layerId = "DC39735F-7E79-401F-A303-677125EC6CF0";
shapes = (
{
closed = 1;
nodes = (
(62,177,l),
(62,169,ls),
(62,59.948,o),
(143.28,-10,o),
(270,-10,cs),
(407.963,-10,o),
(488,69.303,o),
(488,206,cs),
(488,250,ls),
(488,386.993,o),
(416.309,466,o),
(292,466,cs),
(238.98,466,o),
(189.19,447.19,o),
(157,415,c),
(157,624,l),
(469,624,l),
(469,707,l),
(74,707,l),
(74,315,l),
(164,315,l),
(182.687,360.382,o),
(221.724,385,o),
(275,385,cs),
(355.043,385,o),
(396,337.95,o),
(396,246,cs),
(396,210,ls),
(396,118,o),
(354.667,72,o),
(272,72,cs),
(198.267,72,o),
(152,110.556,o),
(152,172,cs),
(152,177,l)
);
}
);
width = 548;
},
{
layerId = "CF6BFDE9-2838-4146-85B5-55FAC6F26460";
shapes = (
{
closed = 1;
nodes = (
(51.04,178,l),
(51.04,170.11,ls),
(51.04,53.298,o),
(122.031,-11,o),
(251,-11,cs),
(380.781,-11,o),
(458,65.846,o),
(458,195,cs),
(458,261,ls),
(458,391.584,o),
(393.221,465,o),
(278,465,cs),
(239.146,465,o),
(203.376,453.313,o),
(177,432,c),
(177,592,l),
(443,592,l),
(443,707,l),
(61,707,l),
(61,304,l),
(177,304,l),
(189.859,334.268,o),
(216.826,352,o),
(250,352,cs),
(306.184,352,o),
(328.428,318.735,o),
(328.428,234.712,cs),
(328.428,227.806,ls),
(328.428,137.434,o),
(306.62,102,o),
(251,102,cs),
(203.287,102,o),
(174.079,128.531,o),
(174.079,171.872,cs),
(174.079,178,l)
);
}
);
width = 508;
},
{
layerId = "17EBA7C1-94C5-4917-BF04-666E42EA2D32";
shapes = (
{
closed = 1;
nodes = (
(68.027,167,l),
(68.027,160.752,ls),
(68.027,49.878,o),
(130.788,-10,o),
(247,-10,cs),
(360.798,-10,o),
(428,62.028,o),
(428,184,cs),
(428,261,ls),
(428,390.068,o),
(368.468,459,o),
(257,459,cs),
(214.599,459,o),
(171.208,440.855,o),
(147,413,c),
(147,638,l),
(417,638,l),
(417,707,l),
(79,707,l),
(79,319,l),
(144,319,l),
(159.876,365.121,o),
(196.897,391,o),
(247,391,cs),
(327.947,391,o),
(353.284,352.117,o),
(353.284,227.893,cs),
(353.284,212.15,ls),
(353.284,102.469,o),
(321.842,57,o),
(246,57,cs),
(176.814,57,o),
(139.042,93.536,o),
(139.042,160.458,cs),
(139.042,167,l)
);
}
);
width = 495;
},
{
layerId = "0E6BC793-ECDE-4AD7-84CA-C7A783A2BC64";
shapes = (
{
closed = 1;
nodes = (
(39,195,l),
(39,162,ls),
(39,51.033,o),
(98.968,-10,o),
(208,-10,cs),
(319.029,-10,o),
(377,50.03,o),
(377,165,cs),
(377,296,ls),
(377,406,o),
(332,461,o),
(242,461,cs),
(208.833,461,o),
(181.9,451.91,o),
(162,434,c),
(162,592,l),
(377,592,l),
(377,707,l),
(47,707,l),
(47,315,l),
(162,315,l),
(171.521,339.755,o),
(185.577,351,o),
(207,351,cs),
(236.167,351,o),
(251,330.773,o),
(251,291,cs),
(251,167,ls),
(251,122.341,o),
(237.231,102,o),
(207,102,cs),
(176.769,102,o),
(163,122.341,o),
(163,167,cs),
(163,195,l)
);
}
);
width = 415;
},
{
layerId = "D32B31B9-0BB7-473D-9726-FC40C81139B8";
shapes = (
{
closed = 1;
nodes = (
(53,168,l),
(53,150,ls),
(53,47.355,o),
(106.165,-9,o),
(203,-9,cs),
(303.667,-9,o),
(354,48,o),
(354,162,cs),
(354,287,ls),
(354,398.333,o),
(308.333,454,o),
(217,454,cs),
(182.373,454,o),
(151.249,441.695,o),
(131,420,c),
(131,637,l),
(348,637,l),
(348,707,l),
(61,707,l),
(61,337,l),
(125,337,l),
(143,370.333,o),
(169,387,o),
(203,387,cs),
(256.096,387,o),
(280,355.645,o),
(280,286,cs),
(280,159,ls),
(280,88.795,o),
(255.686,57,o),
(202,57,cs),
(150,57.667,o),
(124,89,o),
(124,151,cs),
(124,168,l)
);
}
);
width = 407;
}
);
unicode = 53;
},
{
glyphname = five.osf;
layers = (
{
layerId = "8252F75B-64DB-41DD-8CF8-30E5C2E9A516";
shapes = (
{
closed = 1;
nodes = (
(56,10,l),
(56,2,ls),
(56,-109.357,o),
(142.188,-179,o),
(280,-179,cs),
(427.412,-179,o),
(514,-97.222,o),
(514,42,cs),
(514,77,ls),
(514,213.137,o),
(438.204,293,o),
(309,293,cs),
(259.667,293,o),
(218,280.333,o),
(184,255,c),
(184,418,l),
(493,418,l),
(493,533,l),
(69,533,l),
(69,132,l),
(186,132,l),
(203.687,164.653,o),
(237.863,183,o),
(281,183,cs),
(346.423,183,o),
(382,143.901,o),
(382,72,cs),
(382,44,ls),
(382,-26.97,o),
(346.164,-66,o),
(281,-66,cs),
(222.926,-66,o),
(184,-37.107,o),
(184,6,cs),
(184,10,l)
);
}
);
width = 560;
},
{
layerId = "DC39735F-7E79-401F-A303-677125EC6CF0";
shapes = (
{
closed = 1;
nodes = (
(61,11,l),
(61,3,ls),
(61,-106.052,o),
(142.28,-176,o),
(269,-176,cs),
(406.963,-176,o),
(487,-96.697,o),
(487,40,cs),
(487,76,ls),
(487,212.993,o),
(415.309,292,o),
(291,292,cs),
(237.98,292,o),
(188.19,273.19,o),
(156,241,c),
(156,440,l),
(468,440,l),
(468,523,l),
(73,523,l),
(73,141,l),
(163,141,l),
(181.687,186.382,o),
(220.724,211,o),
(274,211,cs),
(354.043,211,o),
(395,163.95,o),
(395,72,cs),
(395,44,ls),
(395,-48,o),
(353.667,-94,o),
(271,-94,cs),
(197.267,-94,o),
(151,-55.444,o),
(151,6,cs),
(151,11,l)
);
}
);
width = 548;
},
{
layerId = "CF6BFDE9-2838-4146-85B5-55FAC6F26460";
shapes = (
{
closed = 1;
nodes = (
(50.021,18,l),
(50.021,12.487,ls),
(50.021,-106.56,o),
(120.254,-171,o),
(250,-171,cs),
(380.345,-171,o),
(457,-94.716,o),
(457,35,cs),
(457,101,ls),
(457,232.175,o),
(392.743,305,o),
(277,305,cs),
(237.864,305,o),
(202.292,293.377,o),
(176,272,c),
(176,432,l),
(442,432,l),
(442,547,l),
(60,547,l),
(60,144,l),
(176,144,l),
(189.407,175.054,o),
(215.18,192,o),
(249,192,cs),
(305.422,192,o),
(327.311,154.05,o),
(327.311,56.231,cs),
(327.311,43.427,ls),
(327.311,-24.779,o),
(301.989,-58,o),
(250,-58,cs),
(201.373,-58,o),
(173.017,-31.285,o),
(173.017,14.526,cs),
(173.017,18,l)
);
}
);
width = 508;
},
{
layerId = "17EBA7C1-94C5-4917-BF04-666E42EA2D32";
shapes = (
{
closed = 1;
nodes = (
(80.017,5,l),
(80.017,0,ls),
(80.017,-111.871,o),
(142.587,-172,o),
(259,-172,cs),
(372.768,-172,o),
(439.899,-100.008,o),
(439.899,22,cs),
(439.899,58.485,ls),
(439.899,219.425,o),
(389.361,287,o),
(269,287,cs),
(226.607,287,o),
(183.275,268.879,o),
(159,241,c),
(159,450,l),
(429,450,l),
(429,519,l),
(91,519,l),
(91,147,l),
(156,147,l),
(171.85,193.103,o),
(208.898,219,o),
(259,219,cs),
(336.187,219,o),
(365.035,173.932,o),
(365.035,53.347,cs),
(365.035,35.261,ls),
(365.035,-61.351,o),
(331.726,-105,o),
(258,-105,cs),
(188.558,-105,o),
(151.023,-68.159,o),
(151.023,-0.001,cs),
(151.023,5,l)
);
}
);
width = 495;
},
{
layerId = "0E6BC793-ECDE-4AD7-84CA-C7A783A2BC64";
shapes = (
{
closed = 1;
nodes = (
(38,43,l),
(38,10,ls),
(38,-100.967,o),
(97.968,-162,o),
(207,-162,cs),
(318.029,-162,o),
(376,-101.97,o),
(376,13,cs),
(376,136,ls),
(376,246,o),
(331,301,o),
(241,301,cs),
(207.833,301,o),
(180.9,291.91,o),
(161,274,c),
(161,424,l),
(376,424,l),
(376,539,l),
(46,539,l),
(46,155,l),
(161,155,l),
(170.521,179.755,o),
(184.577,191,o),
(206,191,cs),
(235.167,191,o),
(250,170.773,o),
(250,131,cs),
(250,15,ls),
(250,-29.659,o),
(236.231,-50,o),
(206,-50,cs),
(175.769,-50,o),
(162,-29.659,o),
(162,15,cs),
(162,43,l)
);
}
);
width = 415;
},
{
layerId = "D32B31B9-0BB7-473D-9726-FC40C81139B8";
shapes = (
{
closed = 1;
nodes = (
(53,15,l),
(53,-3,ls),
(53,-106.505,o),
(105.353,-162,o),
(203,-162,cs),
(303.667,-162,o),
(354,-105,o),
(354,9,cs),
(354,121,ls),
(354,232.333,o),
(308.333,288,o),
(217,288,cs),
(182.373,288,o),
(151.249,275.695,o),
(131,254,c),
(131,459,l),
(348,459,l),
(348,529,l),
(61,529,l),
(61,171,l),
(125,171,l),
(143,204.333,o),
(169,221,o),
(203,221,cs),
(256.096,221,o),
(280,189.645,o),
(280,120,cs),
(280,6,ls),
(280,-64.205,o),
(255.686,-96,o),
(202,-96,cs),
(150.274,-96,o),
(124,-64.336,o),
(124,-2,cs),
(124,15,l)
);
}
);
width = 407;
}
);
},
{
glyphname = five.tlf;
layers = (
{
layerId = "8252F75B-64DB-41DD-8CF8-30E5C2E9A516";
shapes = (
{
closed = 1;
nodes = (
(56,178,l),
(56,170,ls),
(56,58.643,o),
(142.188,-11,o),
(280,-11,cs),
(427.412,-11,o),
(514,70.778,o),
(514,210,cs),
(514,249,ls),
(514,385.137,o),
(438.204,465,o),
(309,465,cs),
(259.667,465,o),
(218,452.333,o),
(184,427,c),
(184,592,l),
(493,592,l),
(493,707,l),
(69,707,l),
(69,304,l),
(186,304,l),
(203.687,336.653,o),
(237.863,355,o),
(281,355,cs),
(346.423,355,o),
(382,315.901,o),
(382,244,cs),
(382,212,ls),
(382,141.03,o),
(346.164,102,o),
(281,102,cs),
(222.926,102,o),
(184,130.893,o),
(184,174,cs),
(184,178,l)
);
}
);
width = 562;
},
{
layerId = "DC39735F-7E79-401F-A303-677125EC6CF0";
shapes = (
{
closed = 1;
nodes = (
(68,177,l),
(68,169,ls),
(68,59.948,o),
(149.28,-10,o),
(276,-10,cs),
(413.963,-10,o),
(494,69.303,o),
(494,206,cs),
(494,250,ls),
(494,386.993,o),
(422.309,466,o),
(298,466,cs),
(244.98,466,o),
(195.19,447.19,o),
(163,415,c),
(163,624,l),
(475,624,l),
(475,707,l),
(80,707,l),
(80,315,l),
(170,315,l),
(188.687,360.382,o),
(227.724,385,o),
(281,385,cs),
(361.043,385,o),
(402,337.95,o),
(402,246,cs),
(402,210,ls),
(402,118,o),
(360.667,72,o),
(278,72,cs),
(204.267,72,o),
(158,110.556,o),
(158,172,cs),
(158,177,l)
);
}
);
width = 562;
},
{
layerId = "CF6BFDE9-2838-4146-85B5-55FAC6F26460";
shapes = (
{
closed = 1;
nodes = (
(63.04,178,l),
(63.04,170.11,ls),
(63.04,53.298,o),
(134.031,-11,o),
(263,-11,cs),
(392.781,-11,o),
(470,65.846,o),
(470,195,cs),
(470,261,ls),
(470,391.584,o),
(405.221,465,o),
(290,465,cs),
(251.146,465,o),
(215.376,453.313,o),
(189,432,c),
(189,592,l),
(455,592,l),
(455,707,l),
(73,707,l),
(73,304,l),
(189,304,l),
(201.859,334.268,o),
(228.826,352,o),
(262,352,cs),
(318.184,352,o),
(340.428,318.735,o),
(340.428,234.712,cs),
(340.428,227.806,ls),
(340.428,137.434,o),
(318.62,102,o),
(263,102,cs),
(215.287,102,o),
(186.079,128.531,o),
(186.079,171.872,cs),
(186.079,178,l)
);
}
);
width = 524;
},
{
layerId = "17EBA7C1-94C5-4917-BF04-666E42EA2D32";
shapes = (
{
closed = 1;
nodes = (
(80.027,167,l),
(80.027,160.752,ls),
(80.027,49.878,o),
(142.788,-10,o),
(259,-10,cs),
(372.798,-10,o),
(440,62.028,o),
(440,184,cs),
(440,261,ls),
(440,390.068,o),
(380.468,459,o),
(269,459,cs),
(226.599,459,o),
(183.208,440.855,o),
(159,413,c),
(159,638,l),
(429,638,l),
(429,707,l),
(91,707,l),
(91,319,l),
(156,319,l),
(171.876,365.121,o),
(208.897,391,o),
(259,391,cs),
(339.947,391,o),
(365.284,352.117,o),
(365.284,227.893,cs),
(365.284,212.15,ls),
(365.284,102.469,o),
(333.842,57,o),
(258,57,cs),
(188.814,57,o),
(151.042,93.536,o),
(151.042,160.458,cs),
(151.042,167,l)
);
}
);
width = 524;
},
{
layerId = "0E6BC793-ECDE-4AD7-84CA-C7A783A2BC64";
shapes = (
{
closed = 1;
nodes = (
(40,195,l),
(40,162,ls),
(40,51.033,o),
(99.968,-10,o),
(209,-10,cs),
(320.029,-10,o),
(378,50.03,o),
(378,165,cs),
(378,296,ls),
(378,406,o),
(333,461,o),
(243,461,cs),
(209.833,461,o),
(182.9,451.91,o),
(163,434,c),
(163,592,l),
(378,592,l),
(378,707,l),
(48,707,l),
(48,315,l),
(163,315,l),
(172.521,339.755,o),
(186.577,351,o),
(208,351,cs),
(237.167,351,o),
(252,330.773,o),
(252,291,cs),
(252,167,ls),
(252,122.341,o),
(238.231,102,o),
(208,102,cs),
(177.769,102,o),
(164,122.341,o),
(164,167,cs),
(164,195,l)
);
}
);
width = 418;
},
{
layerId = "D32B31B9-0BB7-473D-9726-FC40C81139B8";
shapes = (
{
closed = 1;
nodes = (
(59,168,l),
(59,150,ls),
(59,47.355,o),
(112.165,-9,o),
(209,-9,cs),
(309.667,-9,o),
(360,48,o),
(360,162,cs),
(360,287,ls),
(360,398.333,o),
(314.333,454,o),
(223,454,cs),
(188.373,454,o),
(157.249,441.695,o),
(137,420,c),
(137,637,l),
(354,637,l),
(354,707,l),
(67,707,l),
(67,337,l),
(131,337,l),
(149,370.333,o),
(175,387,o),
(209,387,cs),
(262.096,387,o),
(286,355.645,o),
(286,286,cs),
(286,159,ls),
(286,88.795,o),
(261.686,57,o),
(208,57,cs),
(156,57.667,o),
(130,89,o),
(130,151,cs),
(130,168,l)
);
}
);
width = 418;
}
);
},
{
glyphname = five.tosf;
layers = (
{
layerId = "8252F75B-64DB-41DD-8CF8-30E5C2E9A516";
shapes = (
{
closed = 1;
nodes = (
(56,10,l),
(56,2,ls),
(56,-109.357,o),
(142.188,-179,o),
(280,-179,cs),
(427.412,-179,o),
(514,-97.222,o),
(514,42,cs),
(514,77,ls),
(514,213.137,o),
(438.204,293,o),
(309,293,cs),
(259.667,293,o),
(218,280.333,o),
(184,255,c),
(184,418,l),
(493,418,l),
(493,533,l),
(69,533,l),
(69,132,l),
(186,132,l),
(203.687,164.653,o),
(237.863,183,o),
(281,183,cs),
(346.423,183,o),
(382,143.901,o),
(382,72,cs),
(382,44,ls),
(382,-26.97,o),
(346.164,-66,o),
(281,-66,cs),
(222.926,-66,o),
(184,-37.107,o),
(184,6,cs),
(184,10,l)
);
}
);
width = 562;
},
{
layerId = "DC39735F-7E79-401F-A303-677125EC6CF0";
shapes = (
{
closed = 1;
nodes = (
(68,11,l),
(68,3,ls),
(68,-106.052,o),
(149.28,-176,o),
(276,-176,cs),
(413.963,-176,o),
(494,-96.697,o),
(494,40,cs),
(494,76,ls),
(494,212.993,o),
(422.309,292,o),
(298,292,cs),
(244.98,292,o),
(195.19,273.19,o),
(163,241,c),
(163,440,l),
(475,440,l),
(475,523,l),
(80,523,l),
(80,141,l),
(170,141,l),
(188.687,186.382,o),
(227.724,211,o),
(281,211,cs),
(361.043,211,o),
(402,163.95,o),
(402,72,cs),
(402,44,ls),
(402,-48,o),
(360.667,-94,o),
(278,-94,cs),
(204.267,-94,o),
(158,-55.444,o),
(158,6,cs),
(158,11,l)
);
}
);
width = 562;
},
{
layerId = "CF6BFDE9-2838-4146-85B5-55FAC6F26460";
shapes = (
{
closed = 1;
nodes = (
(63.021,18,l),
(63.021,12.487,ls),
(63.021,-106.56,o),
(133.254,-171,o),
(263,-171,cs),
(393.345,-171,o),
(470,-94.716,o),
(470,35,cs),
(470,101,ls),
(470,232.175,o),
(405.743,305,o),
(290,305,cs),
(250.864,305,o),
(215.292,293.377,o),
(189,272,c),
(189,432,l),
(455,432,l),
(455,547,l),
(73,547,l),
(73,144,l),
(189,144,l),
(202.407,175.054,o),
(228.18,192,o),
(262,192,cs),
(318.422,192,o),
(340.311,154.05,o),
(340.311,56.231,cs),
(340.311,43.427,ls),
(340.311,-24.779,o),
(314.989,-58,o),
(263,-58,cs),
(214.373,-58,o),
(186.017,-31.285,o),
(186.017,14.526,cs),
(186.017,18,l)
);
}
);
width = 524;
},
{
layerId = "17EBA7C1-94C5-4917-BF04-666E42EA2D32";
shapes = (
{
closed = 1;
nodes = (
(80.017,5,l),
(80.017,0,ls),
(80.017,-111.871,o),
(142.587,-172,o),
(259,-172,cs),
(372.768,-172,o),
(439.899,-100.008,o),
(439.899,22,cs),
(439.899,58.485,ls),
(439.899,219.425,o),
(389.361,287,o),
(269,287,cs),
(226.607,287,o),
(183.275,268.879,o),
(159,241,c),
(159,450,l),
(429,450,l),
(429,519,l),
(91,519,l),
(91,147,l),
(156,147,l),
(171.85,193.103,o),
(208.898,219,o),
(259,219,cs),
(336.187,219,o),
(365.035,173.932,o),
(365.035,53.347,cs),
(365.035,35.261,ls),
(365.035,-61.351,o),
(331.726,-105,o),
(258,-105,cs),
(188.558,-105,o),
(151.023,-68.159,o),
(151.023,-0.001,cs),
(151.023,5,l)
);
}
);
width = 524;
},
{
layerId = "0E6BC793-ECDE-4AD7-84CA-C7A783A2BC64";
shapes = (
{
closed = 1;
nodes = (
(40,43,l),
(40,10,ls),
(40,-100.967,o),
(99.968,-162,o),
(209,-162,cs),
(320.029,-162,o),
(378,-101.97,o),
(378,13,cs),
(378,136,ls),
(378,246,o),
(333,301,o),
(243,301,cs),
(209.833,301,o),
(182.9,291.91,o),
(163,274,c),
(163,424,l),
(378,424,l),
(378,539,l),
(48,539,l),
(48,155,l),
(163,155,l),
(172.521,179.755,o),
(186.577,191,o),
(208,191,cs),
(237.167,191,o),
(252,170.773,o),
(252,131,cs),
(252,15,ls),
(252,-29.659,o),
(238.231,-50,o),
(208,-50,cs),
(177.769,-50,o),
(164,-29.659,o),
(164,15,cs),
(164,43,l)
);
}
);
width = 418;
},
{
layerId = "D32B31B9-0BB7-473D-9726-FC40C81139B8";
shapes = (
{
closed = 1;
nodes = (
(59,15,l),
(59,-3,ls),
(59,-106.505,o),
(111.353,-162,o),
(209,-162,cs),
(309.667,-162,o),
(360,-105,o),
(360,9,cs),
(360,121,ls),
(360,232.333,o),
(314.333,288,o),
(223,288,cs),
(188.373,288,o),
(157.249,275.695,o),
(137,254,c),
(137,459,l),
(354,459,l),
(354,529,l),
(67,529,l),
(67,171,l),
(131,171,l),
(149,204.333,o),
(175,221,o),
(209,221,cs),
(262.096,221,o),
(286,189.645,o),
(286,120,cs),
(286,6,ls),
(286,-64.205,o),
(261.686,-96,o),
(208,-96,cs),
(156.274,-96,o),
(130,-64.336,o),
(130,-2,cs),
(130,15,l)
);
}
);
width = 418;
}
);
},
{
glyphname = six;
layers = (
{
layerId = "8252F75B-64DB-41DD-8CF8-30E5C2E9A516";
shapes = (
{
closed = 1;
nodes = (
(285,707,l),
(102,392,ls),
(68.148,333.729,o),
(51,277.243,o),
(51,224,cs),
(51,204,ls),
(51,69.074,o),
(142.247,-11,o),
(296,-11,cs),
(447.863,-11,o),
(542,72.805,o),
(542,208,cs),
(542,229,ls),
(542,351.869,o),
(461.694,431,o),
(337,431,cs),
(306.333,431,o),
(281.333,426.333,o),
(262,417,c),
(430,707,l)
);
},
{
closed = 1;
nodes = (
(185,222,ls),
(185,282.961,o),
(226.241,319,o),
(296,319,cs),
(366.476,319,o),
(408,282.667,o),
(408,221,cs),
(408,203,ls),
(408,140.335,o),
(365.49,102,o),
(296,102,cs),
(226.898,102,o),
(185,140.123,o),
(185,203,cs)
);
}
);
width = 582;
},
{
layerId = "DC39735F-7E79-401F-A303-677125EC6CF0";
shapes = (
{
closed = 1;
nodes = (
(299,707,l),
(126,418,l),
(74.831,338.554,o),
(56,285.019,o),
(56,219,cs),
(56,197,ls),
(56,70.31,o),
(144.457,-10,o),
(284,-10,cs),
(422.597,-10,o),
(511,72.172,o),
(511,201,cs),
(511,225,ls),
(511,342.783,o),
(425.783,428,o),
(308,428,cs),
(273.259,428,o),
(239.369,421.068,o),
(220,410,c),
(400,707,l)
);
},
{
closed = 1;
nodes = (
(150,220,ls),
(150,299.158,o),
(199.444,346,o),
(283,346,cs),
(366.344,346,o),
(419,297.603,o),
(419,221,cs),
(419,198,ls),
(419,119.202,o),
(367.761,71,o),
(284,71,cs),
(201.545,71,o),
(150,119.468,o),
(150,197,cs)
);
}
);
width = 565;
},
{
layerId = "CF6BFDE9-2838-4146-85B5-55FAC6F26460";
shapes = (
{
closed = 1;
nodes = (
(254,707,l),
(92,392,ls),
(66.073,341.586,o),
(46,286.356,o),
(46,229,cs),
(46,198,ls),
(46,62.899,o),
(132.208,-11,o),
(264,-11,cs),
(395.554,-11,o),
(482,68.657,o),
(482,202,cs),
(482,234,ls),
(482,347.226,o),
(418.549,431,o),
(300,431,cs),
(282.487,431,o),
(265.115,428.021,o),
(249,421,c),
(395,707,l)
);
},
{
closed = 1;
nodes = (
(208.628,102,o),
(181,143.141,o),
(181,195,cs),
(181,228,ls),
(181,280.805,o),
(208.258,319,o),
(264,319,cs),
(320.898,319,o),
(348,280.917,o),
(348,227,cs),
(348,196,ls),
(348,142.54,o),
(321.098,102,o),
(264,102,cs)
);
}
);
width = 528;
},
{
layerId = "17EBA7C1-94C5-4917-BF04-666E42EA2D32";
shapes = (
{
closed = 1;
nodes = (
(267,707,l),
(102,374,ls),
(78.725,327.027,o),
(60,276.079,o),
(60,223,cs),
(60,188,ls),
(60,70.931,o),
(134.194,-10,o),
(253,-10,cs),
(371.523,-10,o),
(445,74.216,o),
(445,190,cs),
(445,225,ls),
(445,333.943,o),
(383.892,418,o),
(269,418,cs),
(242.223,418,o),
(215,411.879,o),
(193,396,c),
(345,707,l)
);
},
{
closed = 1;
nodes = (
(175.089,56,o),
(136,114.017,o),
(136,187,cs),
(136,222,ls),
(136,294.69,o),
(176.421,350,o),
(253,350,cs),
(329.776,350,o),
(371,293.919,o),
(371,221,cs),
(371,186,ls),
(371,113.714,o),
(329.416,56,o),
(253,56,cs)
);
}
);
width = 505;
},
{
layerId = "0E6BC793-ECDE-4AD7-84CA-C7A783A2BC64";
shapes = (
{
closed = 1;
nodes = (
(195,707,l),
(70,425,ls),
(44,365,o),
(35,326,o),
(35,268,cs),
(35,163,ls),
(35,52,o),
(95,-10,o),
(205,-10,cs),
(313,-10,o),
(375,52,o),
(375,159,cs),
(375,283,ls),
(375,379,o),
(325,438,o),
(244,438,cs),
(227,438,o),
(214,436,o),
(205,431,c),
(325,707,l)
);
},
{
closed = 1;
nodes = (
(176,104,o),
(161,122,o),
(161,158,cs),
(161,279,ls),
(161,311,o),
(176,328,o),
(205,328,c),
(234,327,o),
(249,309,o),
(249,273,cs),
(249,159,ls),
(249,124,o),
(233,103,o),
(205,103,c)
);
}
);
width = 409;
},
{
layerId = "D32B31B9-0BB7-473D-9726-FC40C81139B8";
shapes = (
{
closed = 1;
nodes = (
(208,707,l),
(81,404,ls),
(55.376,342.866,o),
(48,310.008,o),
(48,257,cs),
(48,155,ls),
(48,53.802,o),
(107.356,-9,o),
(203,-9,cs),
(296.222,-9,o),
(356,54.294,o),
(356,153,cs),
(356,268,ls),
(356,364.057,o),
(302.948,422,o),
(215,422,cs),
(193,422,o),
(170,416.25,o),
(159,408,c),
(283,707,l)
);
},
{
closed = 1;
nodes = (
(151.444,57,o),
(123,91.133,o),
(123,153,cs),
(123,266,ls),
(123,323.167,o),
(152.185,356,o),
(203,356,cs),
(253.546,356,o),
(282,322.143,o),
(282,262,cs),
(282,152,ls),
(282,91.014,o),
(253.715,57,o),
(203,57,cs)
);
}
);
width = 404;
}
);
unicode = 54;
},
{
glyphname = seven;
layers = (
{
layerId = "8252F75B-64DB-41DD-8CF8-30E5C2E9A516";
shapes = (
{
closed = 1;
nodes = (
(106,0,l),
(243,0,l),
(492,590,l),
(492,707,l),
(34,707,l),
(34,590,l),
(357,590,l)
);
}
);
width = 519;
},
{
layerId = "DC39735F-7E79-401F-A303-677125EC6CF0";
shapes = (
{
closed = 1;
nodes = (
(102,0,l),
(197,0,l),
(465,624,l),
(465,707,l),
(38,707,l),
(38,624,l),
(372,624,l)
);
}
);
width = 500;
},
{
layerId = "CF6BFDE9-2838-4146-85B5-55FAC6F26460";
shapes = (
{
closed = 1;
nodes = (
(87,0,l),
(222,0,l),
(437,590,l),
(437,707,l),
(31,707,l),
(31,590,l),
(306,590,l)
);
}
);
width = 467;
},
{
layerId = "17EBA7C1-94C5-4917-BF04-666E42EA2D32";
shapes = (
{
closed = 1;
nodes = (
(95,0,l),
(170,0,l),
(400,639,ls),
(400.324,639.899,o),
(400,699.706,o),
(400,707,c),
(41,707,l),
(41,639,l),
(329,639,l)
);
}
);
width = 441;
},
{
layerId = "0E6BC793-ECDE-4AD7-84CA-C7A783A2BC64";
shapes = (
{
closed = 1;
nodes = (
(68,0,l),
(194,0,l),
(367,593,l),
(367,707,l),
(24,707,l),
(24,593,l),
(241,593,l)
);
}
);
width = 390;
},
{
layerId = "D32B31B9-0BB7-473D-9726-FC40C81139B8";
shapes = (
{
closed = 1;
nodes = (
(73,0,l),
(147,0,l),
(338,640,l),
(338,707,l),
(32,707,l),
(32,640,l),
(264,640,l)
);
}
);
width = 369;
}
);
unicode = 55;
},
{
glyphname = seven.osf;
layers = (
{
layerId = "8252F75B-64DB-41DD-8CF8-30E5C2E9A516";
shapes = (
{
closed = 1;
nodes = (
(106,-168,l),
(243,-168,l),
(492,416,l),
(492,533,l),
(34,533,l),
(34,416,l),
(357,416,l)
);
}
);
width = 519;
},
{
layerId = "DC39735F-7E79-401F-A303-677125EC6CF0";
shapes = (
{
closed = 1;
nodes = (
(102,-166,l),
(197,-166,l),
(465,440,l),
(465,523,l),
(38,523,l),
(38,440,l),
(372,440,l)
);
}
);
width = 500;
},
{
layerId = "CF6BFDE9-2838-4146-85B5-55FAC6F26460";
shapes = (
{
closed = 1;
nodes = (
(77,-160,l),
(212,-160,l),
(427,430,l),
(427,547,l),
(21,547,l),
(21,430,l),
(296,430,l)
);
}
);
width = 467;
},
{
layerId = "17EBA7C1-94C5-4917-BF04-666E42EA2D32";
shapes = (
{
closed = 1;
nodes = (
(95,-162,l),
(170,-162,l),
(400,451,l),
(400,519,l),
(41,519,l),
(41,451,l),
(329,451,l)
);
}
);
width = 441;
},
{
layerId = "0E6BC793-ECDE-4AD7-84CA-C7A783A2BC64";
shapes = (
{
closed = 1;
nodes = (
(68,-162,l),
(194,-162,l),
(367,425,l),
(367,539,l),
(24,539,l),
(24,425,l),
(241,425,l)
);
}
);
width = 390;
},
{
layerId = "D32B31B9-0BB7-473D-9726-FC40C81139B8";
shapes = (
{
closed = 1;
nodes = (
(73,-162,l),
(147,-162,l),
(338,462,l),
(338,529,l),
(32,529,l),
(32,462,l),
(264,462,l)
);
}
);
width = 369;
}
);
},
{
glyphname = seven.tosf;
layers = (
{
layerId = "8252F75B-64DB-41DD-8CF8-30E5C2E9A516";
shapes = (
{
closed = 1;
nodes = (
(127,-168,l),
(264,-168,l),
(513,416,l),
(513,533,l),
(55,533,l),
(55,416,l),
(378,416,l)
);
}
);
width = 562;
},
{
layerId = "DC39735F-7E79-401F-A303-677125EC6CF0";
shapes = (
{
closed = 1;
nodes = (
(147,-166,l),
(242,-166,l),
(510,440,l),
(510,523,l),
(83,523,l),
(83,440,l),
(417,440,l)
);
}
);
width = 562;
},
{
layerId = "CF6BFDE9-2838-4146-85B5-55FAC6F26460";
shapes = (
{
closed = 1;
nodes = (
(122,-160,l),
(257,-160,l),
(472,430,l),
(472,547,l),
(66,547,l),
(66,430,l),
(341,430,l)
);
}
);
width = 524;
},
{
layerId = "17EBA7C1-94C5-4917-BF04-666E42EA2D32";
shapes = (
{
closed = 1;
nodes = (
(140,-162,l),
(215,-162,l),
(445,451,l),
(445,519,l),
(86,519,l),
(86,451,l),
(374,451,l)
);
}
);
width = 524;
},
{
layerId = "0E6BC793-ECDE-4AD7-84CA-C7A783A2BC64";
shapes = (
{
closed = 1;
nodes = (
(90,-162,l),
(216,-162,l),
(389,425,l),
(389,539,l),
(46,539,l),
(46,425,l),
(263,425,l)
);
}
);
width = 418;
},
{
layerId = "D32B31B9-0BB7-473D-9726-FC40C81139B8";
shapes = (
{
closed = 1;
nodes = (
(103,-162,l),
(177,-162,l),
(368,462,l),
(368,529,l),
(62,529,l),
(62,462,l),
(294,462,l)
);
}
);
width = 418;
}
);
},
{
glyphname = eight;
layers = (
{
layerId = "8252F75B-64DB-41DD-8CF8-30E5C2E9A516";
shapes = (
{
closed = 1;
nodes = (
(93.204,340.27,o),
(56,281.86,o),
(56,214,cs),
(56,200,ls),
(56,71.265,o),
(151.521,-11,o),
(301,-11,cs),
(451.198,-11,o),
(546,71.032,o),
(546,201,cs),
(546,215,ls),
(546,281.04,o),
(509.003,339.339,o),
(447,371,c),
(499.44,396.547,o),
(532,450.176,o),
(532,511,cs),
(532,522,ls),
(532,641.282,o),
(441.973,718,o),
(302,718,cs),
(162.555,718,o),
(72,640.832,o),
(72,522,cs),
(72,511,ls),
(72,449,o),
(103.435,396.609,o),
(156,371,c)
);
},
{
closed = 1;
nodes = (
(203,521,ls),
(203,573.269,o),
(239.655,604,o),
(302,604,cs),
(363.365,604,o),
(400,572.973,o),
(400,521,cs),
(400,510,ls),
(400,455.556,o),
(364.041,424,o),
(302,424,cs),
(239.302,424,o),
(203,455.535,o),
(203,510,cs)
);
},
{
closed = 1;
nodes = (
(188,217,ls),
(188,276.754,o),
(231.042,313,o),
(302,313,cs),
(372.646,313,o),
(415,277.018,o),
(415,217,cs),
(415,202,ls),
(415,139.846,o),
(372.234,102,o),
(302,102,cs),
(230.28,102,o),
(188,139.088,o),
(188,202,cs)
);
}
);
width = 591;
},
{
layerId = "DC39735F-7E79-401F-A303-677125EC6CF0";
shapes = (
{
closed = 1;
nodes = (
(100.159,341.258,o),
(62,283.144,o),
(62,206,cs),
(62,190,ls),
(62,68.179,o),
(151.906,-10,o),
(292,-10,cs),
(430.723,-10,o),
(521,69.239,o),
(521,191,cs),
(521,207,ls),
(521,282.458,o),
(482.614,341.652,o),
(414,372,c),
(471.938,397.6,o),
(507,453.022,o),
(507,519,cs),
(507,532,ls),
(507,643.419,o),
(421.487,717,o),
(292,717,cs),
(163.666,717,o),
(78,642.943,o),
(78,532,cs),
(78,519,ls),
(78,451.968,o),
(112.652,397.196,o),
(171,372,c)
);
},
{
closed = 1;
nodes = (
(170,532,ls),
(170,596.492,o),
(216.346,636,o),
(292,636,cs),
(367.846,636,o),
(415,596.13,o),
(415,532,cs),
(415,517,ls),
(415,451.109,o),
(368.458,411,o),
(292,411,cs),
(215.736,411,o),
(170,450.738,o),
(170,517,cs)
);
},
{
closed = 1;
nodes = (
(155,209,ls),
(155,284.606,o),
(206.397,330,o),
(292,330,cs),
(376.937,330,o),
(429,284.017,o),
(429,209,cs),
(429,193,ls),
(429,115.951,o),
(378.522,71,o),
(292,71,cs),
(205.995,71,o),
(155,116.411,o),
(155,193,cs)
);
}
);
width = 581;
},
{
layerId = "CF6BFDE9-2838-4146-85B5-55FAC6F26460";
shapes = (
{
closed = 1;
nodes = (
(84.128,339.65,o),
(51.592,281.365,o),
(51.592,218,cs),
(51.592,188.039,ls),
(51.592,65.343,o),
(134.597,-11,o),
(268,-11,cs),
(397.768,-11,o),
(485.692,72.605,o),
(485.692,196,cs),
(485.692,218.311,ls),
(485.692,286.547,o),
(457.156,337.993,o),
(401,371,c),
(446.915,399.359,o),
(473.711,449.478,o),
(473.711,507,cs),
(473.711,526.221,ls),
(473.711,642.845,o),
(393.487,718,o),
(269,718,cs),
(150.629,718,o),
(65.203,637.1,o),
(65.203,525,cs),
(65.203,506.018,ls),
(65.203,443.106,o),
(88.536,399.226,o),
(137,371,c)
);
},
{
closed = 1;
nodes = (
(223.062,424,o),
(194,455.774,o),
(194,506,cs),
(194,525,ls),
(194,571.296,o),
(225.049,604,o),
(269,604,cs),
(313.805,604,o),
(345,571.574,o),
(345,525,cs),
(345,506,ls),
(345,456.704,o),
(314.689,424,o),
(269,424,cs)
);
},
{
closed = 1;
nodes = (
(217.427,102,o),
(181,141.325,o),
(181,197,cs),
(181,221,ls),
(181,275,o),
(217.348,313,o),
(269,313,cs),
(321.877,313,o),
(357,276.28,o),
(357,221,cs),
(357,197,ls),
(357,140.132,o),
(321.677,102,o),
(269,102,cs)
);
}
);
width = 537;
},
{
layerId = "17EBA7C1-94C5-4917-BF04-666E42EA2D32";
shapes = (
{
closed = 1;
nodes = (
(106.553,346.098,o),
(68.455,282.043,o),
(68.455,209,cs),
(68.455,181.545,ls),
(68.455,61.739,o),
(140.568,-10,o),
(261,-10,cs),
(376.667,-10,o),
(456.659,69.313,o),
(456.659,184,cs),
(456.659,208.87,ls),
(456.659,286.249,o),
(423.386,341.602,o),
(358,373,c),
(410.986,399.463,o),
(442.714,453.771,o),
(442.714,518,cs),
(442.714,537.421,ls),
(442.714,647.544,o),
(372.819,717,o),
(262,717,cs),
(158.052,717,o),
(82.149,641.879,o),
(82.149,539,cs),
(82.149,522.366,ls),
(82.149,449.432,o),
(109.324,401.024,o),
(166,373,c)
);
},
{
closed = 1;
nodes = (
(199.957,404,o),
(157.375,452.17,o),
(157.375,522.354,cs),
(157.375,539.472,ls),
(157.375,609.101,o),
(196.089,650,o),
(262,650,cs),
(323.769,650,o),
(368.853,603.365,o),
(368.853,539.472,cs),
(368.853,522.354,ls),
(368.853,447.107,o),
(329.935,404,o),
(262,404,cs)
);
},
{
closed = 1;
nodes = (
(192.077,56,o),
(142.428,111.56,o),
(142.428,189.806,cs),
(142.428,209.469,ls),
(142.428,291.498,o),
(185.689,338,o),
(262,338,cs),
(334.55,338,o),
(381.863,287.265,o),
(381.863,209.469,cs),
(381.863,189.806,ls),
(381.863,103.285,o),
(339.505,56,o),
(262,56,cs)
);
}
);
width = 524;
},
{
layerId = "0E6BC793-ECDE-4AD7-84CA-C7A783A2BC64";
shapes = (
{
closed = 1;
nodes = (
(59,344,o),
(39,301,o),
(39,241,cs),
(39,168,ls),
(39,52.728,o),
(99.261,-10,o),
(210,-10,cs),
(320.239,-10,o),
(381,53.249,o),
(381,168,cs),
(381,241,ls),
(381,302,o),
(361,345,o),
(321,370,c),
(356.272,390.155,o),
(381,438.375,o),
(381,487,cs),
(381,554,ls),
(381,655.02,o),
(315.979,717,o),
(210,717,cs),
(106.071,717,o),
(39,653.067,o),
(39,554,cs),
(39,487,ls),
(39,435.9,o),
(63.07,388.963,o),
(99,370,c)
);
},
{
closed = 1;
nodes = (
(179.938,420,o),
(166,439.323,o),
(166,481,cs),
(166,553,ls),
(166,587.636,o),
(180.692,605,o),
(210,605,cs),
(239.239,605,o),
(254,587.555,o),
(254,553,cs),
(254,481,ls),
(254,438.511,o),
(240.648,420,o),
(210,420,cs)
);
},
{
closed = 1;
nodes = (
(179.167,101,o),
(166,120.75,o),
(166,167,cs),
(166,250,ls),
(166,290.955,o),
(179.967,310,o),
(210,310,cs),
(239.167,310,o),
(254,289.773,o),
(254,250,cs),
(254,167,ls),
(254,119.107,o),
(241.928,101,o),
(210,101,cs)
);
}
);
width = 419;
},
{
layerId = "D32B31B9-0BB7-473D-9726-FC40C81139B8";
shapes = (
{
closed = 1;
nodes = (
(76.667,345,o),
(53,299.333,o),
(53,234,cs),
(53,157,ls),
(53,53.292,o),
(110.414,-9,o),
(206,-9,cs),
(302.594,-9,o),
(359,52.198,o),
(359,157,cs),
(359,234,ls),
(359,300.654,o),
(335.876,345.912,o),
(289,371,c),
(330.677,391.839,o),
(355,438.273,o),
(355,497,cs),
(355,562,ls),
(355,656.21,o),
(297.152,716,o),
(206,716,cs),
(115.515,716,o),
(57,655.521,o),
(57,562,cs),
(57,497,ls),
(57,440.214,o),
(81.916,393.357,o),
(124,371,c)
);
},
{
closed = 1;
nodes = (
(155,401,o),
(126,435.8,o),
(126,497,cs),
(126,562,ls),
(126,617.833,o),
(156.37,652,o),
(206,652,cs),
(256.533,652,o),
(287,618.148,o),
(287,562,cs),
(287,497,ls),
(287,435.387,o),
(257.986,401,o),
(206,401,cs)
);
},
{
closed = 1;
nodes = (
(151.2,54,o),
(122,90.5,o),
(122,159,cs),
(122,236,ls),
(122,303.151,o),
(151.236,339,o),
(206,339,cs),
(262.667,339,o),
(291,304.667,o),
(291,236,cs),
(291,159,ls),
(291,89.331,o),
(262.399,54,o),
(206,54,cs)
);
}
);
width = 412;
}
);
unicode = 56;
},
{
glyphname = eight.osf;
layers = (
{
layerId = "8252F75B-64DB-41DD-8CF8-30E5C2E9A516";
shapes = (
{
closed = 1;
nodes = (
(93.204,340.27,o),
(56,281.86,o),
(56,214,cs),
(56,200,ls),
(56,71.265,o),
(151.521,-11,o),
(301,-11,cs),
(451.198,-11,o),
(546,71.032,o),
(546,201,cs),
(546,215,ls),
(546,281.04,o),
(509.003,339.339,o),
(447,371,c),
(499.44,396.547,o),
(532,450.176,o),
(532,511,cs),
(532,522,ls),
(532,641.282,o),
(441.973,718,o),
(302,718,cs),
(162.555,718,o),
(72,640.832,o),
(72,522,cs),
(72,511,ls),
(72,449,o),
(103.435,396.609,o),
(156,371,c)
);
},
{
closed = 1;
nodes = (
(203,521,ls),
(203,573.269,o),
(239.655,604,o),
(302,604,cs),
(363.365,604,o),
(400,572.973,o),
(400,521,cs),
(400,510,ls),
(400,455.556,o),
(364.041,424,o),
(302,424,cs),
(239.302,424,o),
(203,455.535,o),
(203,510,cs)
);
},
{
closed = 1;
nodes = (
(188,217,ls),
(188,276.754,o),
(231.042,313,o),
(302,313,cs),
(372.646,313,o),
(415,277.018,o),
(415,217,cs),
(415,202,ls),
(415,139.846,o),
(372.234,102,o),
(302,102,cs),
(230.28,102,o),
(188,139.088,o),
(188,202,cs)
);
}
);
width = 591;
},
{
layerId = "DC39735F-7E79-401F-A303-677125EC6CF0";
shapes = (
{
closed = 1;
nodes = (
(100.159,341.258,o),
(62,283.144,o),
(62,206,cs),
(62,190,ls),
(62,68.179,o),
(151.906,-10,o),
(292,-10,cs),
(430.723,-10,o),
(521,69.239,o),
(521,191,cs),
(521,207,ls),
(521,282.458,o),
(482.614,341.652,o),
(414,372,c),
(471.938,397.6,o),
(507,453.022,o),
(507,519,cs),
(507,532,ls),
(507,643.419,o),
(421.487,717,o),
(292,717,cs),
(163.666,717,o),
(78,642.943,o),
(78,532,cs),
(78,519,ls),
(78,451.968,o),
(112.652,397.196,o),
(171,372,c)
);
},
{
closed = 1;
nodes = (
(170,532,ls),
(170,596.492,o),
(216.346,636,o),
(292,636,cs),
(367.846,636,o),
(415,596.13,o),
(415,532,cs),
(415,517,ls),
(415,451.109,o),
(368.458,411,o),
(292,411,cs),
(215.736,411,o),
(170,450.738,o),
(170,517,cs)
);
},
{
closed = 1;
nodes = (
(155,209,ls),
(155,284.606,o),
(206.397,330,o),
(292,330,cs),
(376.937,330,o),
(429,284.017,o),
(429,209,cs),
(429,193,ls),
(429,115.951,o),
(378.522,71,o),
(292,71,cs),
(205.995,71,o),
(155,116.411,o),
(155,193,cs)
);
}
);
width = 581;
},
{
layerId = "CF6BFDE9-2838-4146-85B5-55FAC6F26460";
shapes = (
{
closed = 1;
nodes = (
(84.041,339.598,o),
(51.4,281.257,o),
(51.4,218,cs),
(51.4,193.256,ls),
(51.4,66.656,o),
(133.749,-11,o),
(268,-11,cs),
(397.734,-11,o),
(485.581,72.575,o),
(485.581,196,cs),
(485.581,221.836,ls),
(485.581,287.495,o),
(456.842,338.178,o),
(401,371,c),
(446.882,399.338,o),
(473.639,449.434,o),
(473.639,507,cs),
(473.639,528.437,ls),
(473.639,643.438,o),
(393.147,718,o),
(269,718,cs),
(150.602,718,o),
(65.115,637.076,o),
(65.115,525,cs),
(65.115,510.52,ls),
(65.115,444.057,o),
(88.075,399.495,o),
(137,371,c)
);
},
{
closed = 1;
nodes = (
(223.062,424,o),
(194,455.774,o),
(194,506,cs),
(194,525,ls),
(194,571.296,o),
(225.049,604,o),
(269,604,cs),
(313.805,604,o),
(345,571.574,o),
(345,525,cs),
(345,506,ls),
(345,456.704,o),
(314.689,424,o),
(269,424,cs)
);
},
{
closed = 1;
nodes = (
(217.427,102,o),
(181,141.325,o),
(181,197,cs),
(181,221,ls),
(181,275,o),
(217.348,313,o),
(269,313,cs),
(321.877,313,o),
(357,276.28,o),
(357,221,cs),
(357,197,ls),
(357,140.132,o),
(321.677,102,o),
(269,102,cs)
);
}
);
width = 537;
},
{
layerId = "17EBA7C1-94C5-4917-BF04-666E42EA2D32";
shapes = (
{
closed = 1;
nodes = (
(106.496,346.072,o),
(68.306,281.962,o),
(68.306,209,cs),
(68.306,186.35,ls),
(68.306,62.843,o),
(139.792,-10,o),
(261,-10,cs),
(376.631,-10,o),
(456.535,69.277,o),
(456.535,184,cs),
(456.535,212.794,ls),
(456.535,287.24,o),
(422.98,341.797,o),
(358,373,c),
(410.986,399.463,o),
(442.716,453.771,o),
(442.716,518,cs),
(442.716,537.375,ls),
(442.716,647.532,o),
(372.826,717,o),
(262,717,cs),
(158.048,717,o),
(82.139,641.876,o),
(82.139,539,cs),
(82.139,522.958,ls),
(82.139,449.552,o),
(109.259,401.056,o),
(166,373,c)
);
},
{
closed = 1;
nodes = (
(199.957,404,o),
(157.375,452.17,o),
(157.375,522.354,cs),
(157.375,539.472,ls),
(157.375,609.101,o),
(196.089,650,o),
(262,650,cs),
(323.769,650,o),
(368.853,603.365,o),
(368.853,539.472,cs),
(368.853,522.354,ls),
(368.853,447.107,o),
(329.935,404,o),
(262,404,cs)
);
},
{
closed = 1;
nodes = (
(192.077,56,o),
(142.428,111.56,o),
(142.428,189.806,cs),
(142.428,209.469,ls),
(142.428,291.498,o),
(185.689,338,o),
(262,338,cs),
(334.55,338,o),
(381.863,287.265,o),
(381.863,209.469,cs),
(381.863,189.806,ls),
(381.863,103.285,o),
(339.505,56,o),
(262,56,cs)
);
}
);
width = 524;
},
{
layerId = "0E6BC793-ECDE-4AD7-84CA-C7A783A2BC64";
shapes = (
{
closed = 1;
nodes = (
(59,344,o),
(39,301,o),
(39,241,cs),
(39,168,ls),
(39,52.728,o),
(99.261,-10,o),
(210,-10,cs),
(320.239,-10,o),
(381,53.249,o),
(381,168,cs),
(381,241,ls),
(381,302,o),
(361,345,o),
(321,370,c),
(356.272,390.155,o),
(381,438.375,o),
(381,487,cs),
(381,554,ls),
(381,655.02,o),
(315.979,717,o),
(210,717,cs),
(106.071,717,o),
(39,653.067,o),
(39,554,cs),
(39,487,ls),
(39,435.9,o),
(63.07,388.963,o),
(99,370,c)
);
},
{
closed = 1;
nodes = (
(179.938,420,o),
(166,439.323,o),
(166,481,cs),
(166,553,ls),
(166,587.636,o),
(180.692,605,o),
(210,605,cs),
(239.239,605,o),
(254,587.555,o),
(254,553,c),
(254,481,ls),
(254,438.511,o),
(240.648,420,o),
(210,420,cs)
);
},
{
closed = 1;
nodes = (
(179.167,101,o),
(166,120.75,o),
(166,167,cs),
(166,250,ls),
(166,290.955,o),
(179.967,310,o),
(210,310,cs),
(239.167,310,o),
(254,289.773,o),
(254,250,cs),
(254,167,ls),
(254,119.107,o),
(241.928,101,o),
(210,101,cs)
);
}
);
width = 419;
},
{
layerId = "D32B31B9-0BB7-473D-9726-FC40C81139B8";
shapes = (
{
closed = 1;
nodes = (
(76.667,345,o),
(53,299.333,o),
(53,234,cs),
(53,157,ls),
(53,53.292,o),
(110.414,-9,o),
(206,-9,cs),
(302.594,-9,o),
(359,52.198,o),
(359,157,cs),
(359,234,ls),
(359,300.654,o),
(335.876,345.912,o),
(289,371,c),
(330.677,391.839,o),
(355,438.273,o),
(355,497,cs),
(355,562,ls),
(355,656.21,o),
(297.152,716,o),
(206,716,cs),
(115.515,716,o),
(57,655.521,o),
(57,562,cs),
(57,497,ls),
(57,440.214,o),
(81.916,393.357,o),
(124,371,c)
);
},
{
closed = 1;
nodes = (
(155,401,o),
(126,435.8,o),
(126,497,cs),
(126,562,ls),
(126,617.833,o),
(156.37,652,o),
(206,652,cs),
(256.533,652,o),
(287,618.148,o),
(287,562,cs),
(287,497,ls),
(287,435.387,o),
(257.986,401,o),
(206,401,cs)
);
},
{
closed = 1;
nodes = (
(151.2,54,o),
(122,90.5,o),
(122,159,cs),
(122,236,ls),
(122,303.151,o),
(151.236,339,o),
(206,339,cs),
(262.667,339,o),
(291,304.667,o),
(291,236,cs),
(291,159,ls),
(291,89.331,o),
(262.399,54,o),
(206,54,cs)
);
}
);
width = 412;
}
);
},
{
glyphname = nine;
layers = (
{
layerId = "8252F75B-64DB-41DD-8CF8-30E5C2E9A516";
shapes = (
{
closed = 1;
nodes = (
(163,0,l),
(307,0,l),
(489,314,ls),
(524.333,373.333,o),
(542,429.333,o),
(542,482,cs),
(542,504,ls),
(542,637.94,o),
(449.969,718,o),
(296,718,cs),
(143.578,718,o),
(51,635.624,o),
(51,500,cs),
(51,478,ls),
(51,355.466,o),
(132.258,275,o),
(256,275,c),
(284,275.667,o),
(308.667,280.667,o),
(330,290,c)
);
},
{
closed = 1;
nodes = (
(185,504,ls),
(185,566.565,o),
(226.553,604,o),
(296,604,cs),
(365.798,604,o),
(407,567.252,o),
(407,505,cs),
(407,485,ls),
(407,423.426,o),
(365.742,387,o),
(296,387,cs),
(226.202,387,o),
(185,423.748,o),
(185,486,cs)
);
}
);
width = 582;
},
{
layerId = "DC39735F-7E79-401F-A303-677125EC6CF0";
shapes = (
{
closed = 1;
nodes = (
(168,0,l),
(268,0,l),
(442,289,l),
(492.268,367.799,o),
(511,421.551,o),
(511,487,cs),
(511,510,ls),
(511,636.165,o),
(422.354,717,o),
(284,717,cs),
(144.457,717,o),
(56,635.138,o),
(56,506,cs),
(56,481,ls),
(56,364.961,o),
(142.386,279,o),
(259,279,cs),
(296.333,279,o),
(326,285,o),
(348,297,c)
);
},
{
closed = 1;
nodes = (
(148,509,ls),
(148,586.265,o),
(201.26,636,o),
(284,636,cs),
(366.762,636,o),
(419,587.244,o),
(419,510,cs),
(419,486,ls),
(419,408.098,o),
(367.848,360,o),
(285,360,cs),
(201.352,360,o),
(148,408.679,o),
(148,485,cs)
);
}
);
width = 565;
},
{
layerId = "CF6BFDE9-2838-4146-85B5-55FAC6F26460";
shapes = (
{
closed = 1;
nodes = (
(133,0,l),
(274,0,l),
(436,314,ls),
(462.591,365.541,o),
(482,418.254,o),
(482,477,cs),
(482,509,ls),
(482,644.674,o),
(396.348,718,o),
(264,718,cs),
(131.954,718,o),
(46,638.848,o),
(46,505,cs),
(46,472,ls),
(46,359.577,o),
(110.313,275,o),
(228,275,cs),
(245.889,275,o),
(263.709,278.514,o),
(280,286,c)
);
},
{
closed = 1;
nodes = (
(208.464,387,o),
(180,426.317,o),
(180,479,cs),
(180,511,ls),
(180,564.165,o),
(207.578,604,o),
(264,604,cs),
(320.679,604,o),
(347,565.335,o),
(347,512,cs),
(347,478,ls),
(347,424.984,o),
(319.974,387,o),
(264,387,cs)
);
}
);
width = 528;
},
{
layerId = "17EBA7C1-94C5-4917-BF04-666E42EA2D32";
shapes = (
{
closed = 1;
nodes = (
(162,0,l),
(240,0,l),
(403,333,ls),
(426.915,381.856,o),
(445,427.663,o),
(445,483,cs),
(445,518,ls),
(445,636.294,o),
(373.783,717,o),
(253,717,cs),
(134.281,717,o),
(60,631.995,o),
(60,516,cs),
(60,481,ls),
(60,373.698,o),
(124.601,289,o),
(237,289,cs),
(262.757,289,o),
(291.738,294.756,o),
(313,310,c)
);
},
{
closed = 1;
nodes = (
(175.968,356,o),
(135,411.846,o),
(135,485,cs),
(135,520,ls),
(135,593.617,o),
(175.129,650,o),
(253,650,cs),
(331.045,650,o),
(370,592.107,o),
(370,519,cs),
(370,484,ls),
(370,412.026,o),
(328.803,356,o),
(253,356,cs)
);
}
);
width = 505;
},
{
layerId = "0E6BC793-ECDE-4AD7-84CA-C7A783A2BC64";
shapes = (
{
closed = 1;
nodes = (
(85,0,l),
(215,0,l),
(341,282,ls),
(367,339,o),
(375,377,o),
(375,438,cs),
(375,544,ls),
(375,657,o),
(317,717,o),
(206,717,cs),
(97,717,o),
(35,656,o),
(35,548,cs),
(35,424,ls),
(35,327,o),
(85,268,o),
(166,268,cs),
(184,268,o),
(196,270,o),
(205,275,c)
);
},
{
closed = 1;
nodes = (
(176,379,o),
(161,397,o),
(161,433,cs),
(161,548,ls),
(161,585,o),
(176,603,o),
(206,603,cs),
(235,603,o),
(249,585,o),
(249,549,cs),
(249,428,ls),
(249,397,o),
(233,379,o),
(206,379,cs)
);
}
);
width = 409;
},
{
layerId = "D32B31B9-0BB7-473D-9726-FC40C81139B8";
shapes = (
{
closed = 1;
nodes = (
(122,0,l),
(197,0,l),
(324,302,ls),
(348.49,360.236,o),
(356,394.97,o),
(356,450,cs),
(356,552,ls),
(356,654.118,o),
(298.268,716,o),
(203,716,cs),
(107.189,716,o),
(48,654.138,o),
(48,554,cs),
(48,438,ls),
(48,342.922,o),
(101.379,285,o),
(189,285,cs),
(212.238,285,o),
(235.972,290.729,o),
(247,299,c)
);
},
{
closed = 1;
nodes = (
(151.468,350,o),
(123,383.45,o),
(123,444,cs),
(123,555,ls),
(123,615.55,o),
(151.468,649,o),
(203,649,cs),
(253.835,649,o),
(282,615.131,o),
(282,554,cs),
(282,440,ls),
(282,382.473,o),
(253.496,350,o),
(203,350,cs)
);
}
);
width = 404;
}
);
unicode = 57;
},
{
glyphname = nine.osf;
layers = (
{
layerId = "8252F75B-64DB-41DD-8CF8-30E5C2E9A516";
shapes = (
{
closed = 1;
nodes = (
(163,-168,l),
(307,-168,l),
(489,139,ls),
(523.644,197.438,o),
(541.331,253.503,o),
(542,307,c),
(542,329,ls),
(542,462.94,o),
(449.969,543,o),
(296,543,cs),
(143.578,543,o),
(51,460.624,o),
(51,325,cs),
(51,303,ls),
(51,180.466,o),
(132.258,100,o),
(256,100,cs),
(282.356,100,o),
(307.247,105.046,o),
(330,115,c)
);
},
{
closed = 1;
nodes = (
(185,329,ls),
(185,391.565,o),
(226.553,429,o),
(296,429,cs),
(365.798,429,o),
(407,392.252,o),
(407,330,cs),
(407,310,ls),
(407,248.426,o),
(365.742,212,o),
(296,212,cs),
(226.202,212,o),
(185,248.748,o),
(185,311,cs)
);
}
);
width = 582;
},
{
layerId = "DC39735F-7E79-401F-A303-677125EC6CF0";
shapes = (
{
closed = 1;
nodes = (
(167,-166,l),
(267,-166,l),
(441,105,ls),
(491.19,183.17,o),
(510,237.145,o),
(510,303,cs),
(510,326,ls),
(510,452.165,o),
(421.354,533,o),
(283,533,cs),
(143.457,533,o),
(55,451.138,o),
(55,322,cs),
(55,297,ls),
(55,180.961,o),
(141.386,95,o),
(258,95,cs),
(295.333,95,o),
(325,101,o),
(347,113,c)
);
},
{
closed = 1;
nodes = (
(147,325,ls),
(147,402.265,o),
(200.26,452,o),
(283,452,cs),
(365.762,452,o),
(418,403.244,o),
(418,326,cs),
(418,302,ls),
(418,224.098,o),
(366.848,176,o),
(284,176,cs),
(200.352,176,o),
(147,224.679,o),
(147,301,cs)
);
}
);
width = 565;
},
{
layerId = "CF6BFDE9-2838-4146-85B5-55FAC6F26460";
shapes = (
{
closed = 1;
nodes = (
(132,-160,l),
(273,-160,l),
(436,147,ls),
(467.094,205.563,o),
(482,256.763,o),
(482,305,cs),
(482,336,ls),
(482,464.045,o),
(401.506,539,o),
(264,539,cs),
(129.262,539,o),
(46,460.322,o),
(46,333,cs),
(46,301,ls),
(46,184.12,o),
(116.628,110,o),
(228,110,cs),
(247.85,110,o),
(265.078,113.313,o),
(280,120,c)
);
},
{
closed = 1;
nodes = (
(212.147,218,o),
(180,252.06,o),
(180,307,cs),
(180,338,ls),
(180,394.162,o),
(212.159,429,o),
(264,429,cs),
(316.074,429,o),
(347,395.465,o),
(347,339,cs),
(347,306,ls),
(347,250.653,o),
(316.202,218,o),
(264,218,cs)
);
}
);
width = 528;
},
{
layerId = "17EBA7C1-94C5-4917-BF04-666E42EA2D32";
shapes = (
{
closed = 1;
nodes = (
(173,-157,l),
(251,-157,l),
(414,161,ls),
(443.685,218.913,o),
(456,261.136,o),
(456,305,cs),
(456,339,ls),
(456,455.668,o),
(381.278,530,o),
(264,530,cs),
(149.144,530,o),
(71,451.856,o),
(71,337,cs),
(71,303,ls),
(71,193.187,o),
(142.365,119,o),
(248,119,cs),
(276.299,119,o),
(306.546,126.96,o),
(324,139,c)
);
},
{
closed = 1;
nodes = (
(191.738,189,o),
(146,235.126,o),
(146,308,cs),
(146,340,ls),
(146,413.794,o),
(191.436,460,o),
(264,460,cs),
(335.93,460,o),
(381,413.389,o),
(381,339,cs),
(381,307,ls),
(381,235.192,o),
(335.199,189,o),
(264,189,cs)
);
}
);
width = 505;
},
{
layerId = "0E6BC793-ECDE-4AD7-84CA-C7A783A2BC64";
shapes = (
{
closed = 1;
nodes = (
(84,-162,l),
(214,-162,l),
(340,118,ls),
(366.033,175.852,o),
(374,212.405,o),
(374,274,cs),
(374,377,ls),
(374,490.314,o),
(315.694,550,o),
(205,550,cs),
(95.861,550,o),
(34,488.863,o),
(34,381,cs),
(34,260,ls),
(34,163.271,o),
(83.772,104,o),
(165,104,cs),
(183.429,104,o),
(195.205,106.114,o),
(204,111,c)
);
},
{
closed = 1;
nodes = (
(175,215,o),
(160,233,o),
(160,269,cs),
(160,381,ls),
(160,417.833,o),
(174.864,436,o),
(205,436,cs),
(233.833,436,o),
(248,418.209,o),
(248,382,cs),
(248,264,ls),
(248,233.116,o),
(232.102,215,o),
(205,215,cs)
);
}
);
width = 409;
},
{
layerId = "D32B31B9-0BB7-473D-9726-FC40C81139B8";
shapes = (
{
closed = 1;
nodes = (
(122,-162,l),
(197,-162,l),
(324,133,ls),
(348.679,190.325,o),
(356,224.186,o),
(356,281,cs),
(356,375,ls),
(356,477.118,o),
(298.268,539,o),
(203,539,cs),
(107.189,539,o),
(48,477.138,o),
(48,377,cs),
(48,269,ls),
(48,173.922,o),
(101.379,116,o),
(189,116,cs),
(212.238,116,o),
(235.972,121.729,o),
(247,130,c)
);
},
{
closed = 1;
nodes = (
(151.468,181,o),
(123,214.45,o),
(123,275,cs),
(123,378,ls),
(123,438.55,o),
(151.468,472,o),
(203,472,cs),
(253.835,472,o),
(282,438.131,o),
(282,377,cs),
(282,271,ls),
(282,213.473,o),
(253.496,181,o),
(203,181,cs)
);
}
);
width = 404;
}
);
},
{
glyphname = colon;
layers = (
{
layerId = "8252F75B-64DB-41DD-8CF8-30E5C2E9A516";
shapes = (
{
closed = 1;
nodes = (
(39,0,l),
(181,0,l),
(181,145,l),
(39,145,l)
);
},
{
closed = 1;
nodes = (
(39,346,l),
(181,346,l),
(181,492,l),
(39,492,l)
);
}
);
width = 220;
},
{
layerId = "DC39735F-7E79-401F-A303-677125EC6CF0";
shapes = (
{
closed = 1;
nodes = (
(49,50,l),
(154,50,l),
(154,160,l),
(49,160,l)
);
},
{
closed = 1;
nodes = (
(49,296,l),
(154,296,l),
(154,406,l),
(49,406,l)
);
}
);
width = 202;
},
{
layerId = "CF6BFDE9-2838-4146-85B5-55FAC6F26460";
shapes = (
{
closed = 1;
nodes = (
(39,0,l),
(181,0,l),
(181,145,l),
(39,145,l)
);
},
{
closed = 1;
nodes = (
(39,346,l),
(181,346,l),
(181,492,l),
(39,492,l)
);
}
);
width = 220;
},
{
layerId = "17EBA7C1-94C5-4917-BF04-666E42EA2D32";
shapes = (
{
closed = 1;
nodes = (
(54,0,l),
(144,0,l),
(144,94,l),
(54,94,l)
);
},
{
closed = 1;
nodes = (
(54,346,l),
(144,346,l),
(144,440,l),
(54,440,l)
);
}
);
width = 198;
},
{
layerId = "0E6BC793-ECDE-4AD7-84CA-C7A783A2BC64";
shapes = (
{
closed = 1;
nodes = (
(30,0,l),
(150,0,l),
(150,135,l),
(30,135,l)
);
},
{
closed = 1;
nodes = (
(30,346,l),
(150,346,l),
(150,481,l),
(30,481,l)
);
}
);
width = 179;
},
{
layerId = "D32B31B9-0BB7-473D-9726-FC40C81139B8";
shapes = (
{
closed = 1;
nodes = (
(42,0,l),
(122,0,l),
(122,91,l),
(42,91,l)
);
},
{
closed = 1;
nodes = (
(42,346,l),
(122,346,l),
(122,437,l),
(42,437,l)
);
}
);
width = 163;
}
);
unicode = 58;
},
{
glyphname = semicolon;
layers = (
{
layerId = "8252F75B-64DB-41DD-8CF8-30E5C2E9A516";
shapes = (
{
closed = 1;
nodes = (
(39,346,l),
(181,346,l),
(181,492,l),
(39,492,l)
);
},
{
closed = 1;
nodes = (
(59,-166,l),
(179,-65,l),
(179,140,l),
(59,140,l)
);
}
);
width = 220;
},
{
layerId = "DC39735F-7E79-401F-A303-677125EC6CF0";
shapes = (
{
closed = 1;
nodes = (
(49,346,l),
(154,346,l),
(154,456,l),
(49,456,l)
);
},
{
closed = 1;
nodes = (
(70,-148,l),
(154,-74,l),
(154,110,l),
(70,110,l)
);
}
);
width = 202;
},
{
layerId = "CF6BFDE9-2838-4146-85B5-55FAC6F26460";
shapes = (
{
closed = 1;
nodes = (
(39,346,l),
(181,346,l),
(181,492,l),
(39,492,l)
);
},
{
closed = 1;
nodes = (
(59,-166,l),
(179,-65,l),
(179,140,l),
(59,140,l)
);
}
);
width = 220;
},
{
layerId = "17EBA7C1-94C5-4917-BF04-666E42EA2D32";
shapes = (
{
closed = 1;
nodes = (
(54,346,l),
(144,346,l),
(144,440,l),
(54,440,l)
);
},
{
closed = 1;
nodes = (
(77,-140,l),
(144,-77,l),
(144,95,l),
(77,95,l)
);
}
);
width = 198;
},
{
layerId = "0E6BC793-ECDE-4AD7-84CA-C7A783A2BC64";
shapes = (
{
closed = 1;
nodes = (
(30,346,l),
(150,346,l),
(150,481,l),
(30,481,l)
);
},
{
closed = 1;
nodes = (
(34,-164,l),
(150,-71,l),
(150,136,l),
(34,136,l)
);
}
);
width = 179;
},
{
layerId = "D32B31B9-0BB7-473D-9726-FC40C81139B8";
shapes = (
{
closed = 1;
nodes = (
(42,346,l),
(122,346,l),
(122,437,l),
(42,437,l)
);
},
{
closed = 1;
nodes = (
(50,-144,l),
(120,-84,l),
(120,95,l),
(50,95,l)
);
}
);
width = 163;
}
);
unicode = 59;
},
{
glyphname = less;
layers = (
{
layerId = "8252F75B-64DB-41DD-8CF8-30E5C2E9A516";
shapes = (
{
closed = 1;
nodes = (
(49,228,l),
(492,54,l),
(492,173,l),
(207,281,l),
(492,389,l),
(492,507,l),
(49,334,l)
);
}
);
width = 541;
},
{
layerId = "DC39735F-7E79-401F-A303-677125EC6CF0";
shapes = (
{
closed = 1;
nodes = (
(54,246,l),
(466,79,l),
(466,165,l),
(167,283,l),
(466,399,l),
(466,485,l),
(54,319,l)
);
}
);
width = 521;
},
{
layerId = "CF6BFDE9-2838-4146-85B5-55FAC6F26460";
shapes = (
{
closed = 1;
nodes = (
(49,228,l),
(492,54,l),
(492,173,l),
(207,281,l),
(492,389,l),
(492,507,l),
(49,334,l)
);
}
);
width = 541;
},
{
layerId = "17EBA7C1-94C5-4917-BF04-666E42EA2D32";
shapes = (
{
closed = 1;
nodes = (
(58,253,l),
(466,86,l),
(466,159,l),
(154,283,l),
(466,407,l),
(466,479,l),
(58,313,l)
);
}
);
width = 524;
},
{
layerId = "0E6BC793-ECDE-4AD7-84CA-C7A783A2BC64";
shapes = (
{
closed = 1;
nodes = (
(33,238,l),
(383,96,l),
(383,198,l),
(160,283,l),
(383,368,l),
(383,469,l),
(33,328,l)
);
}
);
width = 429;
},
{
layerId = "D32B31B9-0BB7-473D-9726-FC40C81139B8";
shapes = (
{
closed = 1;
nodes = (
(41,250,l),
(390,108,l),
(390,176,l),
(126,283,l),
(390,389,l),
(390,458,l),
(41,315,l)
);
}
);
width = 430;
}
);
unicode = 60;
},
{
glyphname = equal;
layers = (
{
layerId = "8252F75B-64DB-41DD-8CF8-30E5C2E9A516";
shapes = (
{
closed = 1;
nodes = (
(50,332,l),
(492,332,l),
(492,447,l),
(50,447,l)
);
},
{
closed = 1;
nodes = (
(50,118,l),
(492,118,l),
(492,233,l),
(50,233,l)
);
}
);
width = 541;
},
{
layerId = "DC39735F-7E79-401F-A303-677125EC6CF0";
shapes = (
{
closed = 1;
nodes = (
(54,327,l),
(466,327,l),
(466,410,l),
(54,410,l)
);
},
{
closed = 1;
nodes = (
(54,156,l),
(466,156,l),
(466,238,l),
(54,238,l)
);
}
);
width = 521;
},
{
layerId = "CF6BFDE9-2838-4146-85B5-55FAC6F26460";
shapes = (
{
closed = 1;
nodes = (
(49,332,l),
(492,332,l),
(492,447,l),
(49,447,l)
);
},
{
closed = 1;
nodes = (
(49,118,l),
(492,118,l),
(492,233,l),
(49,233,l)
);
}
);
width = 541;
},
{
layerId = "17EBA7C1-94C5-4917-BF04-666E42EA2D32";
shapes = (
{
closed = 1;
nodes = (
(58,346,l),
(466,346,l),
(466,415,l),
(58,415,l)
);
},
{
closed = 1;
nodes = (
(58,151,l),
(466,151,l),
(466,218,l),
(58,218,l)
);
}
);
width = 524;
},
{
layerId = "0E6BC793-ECDE-4AD7-84CA-C7A783A2BC64";
shapes = (
{
closed = 1;
nodes = (
(33,333,l),
(383,333,l),
(383,429,l),
(33,429,l)
);
},
{
closed = 1;
nodes = (
(33,135,l),
(383,135,l),
(383,232,l),
(33,232,l)
);
}
);
width = 429;
},
{
layerId = "D32B31B9-0BB7-473D-9726-FC40C81139B8";
shapes = (
{
closed = 1;
nodes = (
(41,344,l),
(390,344,l),
(390,411,l),
(41,411,l)
);
},
{
closed = 1;
nodes = (
(41,153,l),
(390,153,l),
(390,220,l),
(41,220,l)
);
}
);
width = 430;
}
);
unicode = 61;
},
{
glyphname = greater;
layers = (
{
layerId = "8252F75B-64DB-41DD-8CF8-30E5C2E9A516";
shapes = (
{
closed = 1;
nodes = (
(49,54,l),
(492,228,l),
(492,334,l),
(49,507,l),
(49,389,l),
(334,281,l),
(49,173,l)
);
}
);
width = 541;
},
{
layerId = "DC39735F-7E79-401F-A303-677125EC6CF0";
shapes = (
{
closed = 1;
nodes = (
(54,79,l),
(466,246,l),
(466,319,l),
(54,485,l),
(54,399,l),
(353,283,l),
(54,165,l)
);
}
);
width = 521;
},
{
layerId = "CF6BFDE9-2838-4146-85B5-55FAC6F26460";
shapes = (
{
closed = 1;
nodes = (
(49,54,l),
(492,228,l),
(492,334,l),
(49,507,l),
(49,389,l),
(334,281,l),
(49,173,l)
);
}
);
width = 541;
},
{
layerId = "17EBA7C1-94C5-4917-BF04-666E42EA2D32";
shapes = (
{
closed = 1;
nodes = (
(58,86,l),
(466,253,l),
(466,313,l),
(58,479,l),
(58,407,l),
(371,283,l),
(58,159,l)
);
}
);
width = 524;
},
{
layerId = "0E6BC793-ECDE-4AD7-84CA-C7A783A2BC64";
shapes = (
{
closed = 1;
nodes = (
(33,96,l),
(383,238,l),
(383,328,l),
(33,469,l),
(33,368,l),
(255,283,l),
(33,198,l)
);
}
);
width = 429;
},
{
layerId = "D32B31B9-0BB7-473D-9726-FC40C81139B8";
shapes = (
{
closed = 1;
nodes = (
(41,108,l),
(390,250,l),
(390,315,l),
(41,458,l),
(41,389,l),
(305,283,l),
(41,176,l)
);
}
);
width = 430;
}
);
unicode = 62;
},
{
glyphname = question;
layers = (
{
layerId = "8252F75B-64DB-41DD-8CF8-30E5C2E9A516";
shapes = (
{
closed = 1;
nodes = (
(184,198,l),
(311,198,l),
(311,229,ls),
(311,272.74,o),
(321.263,291.7,o),
(352,324,cs),
(411,386,ls),
(452.932,430.064,o),
(477,477.333,o),
(477,534,cs),
(477,648.555,o),
(392.472,717,o),
(251,717,cs),
(106.333,717,o),
(32,651.333,o),
(28,520,c),
(152,520,l),
(153.353,575.475,o),
(183.605,601,o),
(248,601,cs),
(312.45,601,o),
(346,575.667,o),
(346,527,cs),
(346,495.928,o),
(331.174,475.565,o),
(295,438,cs),
(243,384,ls),
(199.478,338.804,o),
(184,311.569,o),
(184,245,cs)
);
},
{
closed = 1;
nodes = (
(180,0,l),
(314,0,l),
(314,129,l),
(180,129,l)
);
}
);
width = 512;
},
{
layerId = "DC39735F-7E79-401F-A303-677125EC6CF0";
shapes = (
{
closed = 1;
nodes = (
(197,187,l),
(287,187,l),
(287,240,ls),
(287,281.185,o),
(294.487,299.487,o),
(323,328,cs),
(392,397,ls),
(436.364,441.364,o),
(454,487.43,o),
(454,543,cs),
(454,651.133,o),
(374.506,717,o),
(244,717,cs),
(111.553,717,o),
(37.685,649.493,o),
(35,526,c),
(124,526,l),
(124,598.667,o),
(163.667,635,o),
(243,635,cs),
(319.758,635,o),
(361,601.797,o),
(361,540,cs),
(361,496.564,o),
(347.34,471.69,o),
(309,434,cs),
(250,376,ls),
(208.46,335.164,o),
(197,306.623,o),
(197,244,cs)
);
},
{
closed = 1;
nodes = (
(189,0,l),
(293,0,l),
(293,105,l),
(189,105,l)
);
}
);
width = 496;
},
{
layerId = "CF6BFDE9-2838-4146-85B5-55FAC6F26460";
shapes = (
{
closed = 1;
nodes = (
(161,198,l),
(287.715,198,l),
(287.715,233.697,ls),
(287.715,274.77,o),
(292.978,292.7,o),
(315,319,cs),
(342.809,352.211,ls),
(387.645,405.755,o),
(427,461.454,o),
(427,535,cs),
(427,649.42,o),
(335.27,717,o),
(227,717,cs),
(99.325,717,o),
(29.976,647.344,o),
(28,520,c),
(152,520,l),
(153.791,569.364,o),
(168.291,601,o),
(223,601,cs),
(269.202,601,o),
(296,577.325,o),
(296,530,cs),
(296,484.647,o),
(263.268,444.692,o),
(229.89,405.138,cs),
(199.598,369.241,ls),
(165.673,329.04,o),
(161,302.033,o),
(161,250,cs)
);
},
{
closed = 1;
nodes = (
(157,0,l),
(291,0,l),
(291,129,l),
(157,129,l)
);
}
);
width = 461;
},
{
layerId = "17EBA7C1-94C5-4917-BF04-666E42EA2D32";
shapes = (
{
closed = 1;
nodes = (
(176,182,l),
(251.118,182,l),
(251.118,239.798,ls),
(251.118,275.223,o),
(257.457,296.2,o),
(281,327,cs),
(306.077,359.807,ls),
(348.416,415.197,o),
(391,474.375,o),
(391,546,cs),
(391,652.32,o),
(320.715,717,o),
(216,717,cs),
(102.044,717,o),
(40.947,650.207,o),
(39,538,c),
(113,538,l),
(113.871,605.339,o),
(142.674,649,o),
(214,649,cs),
(280.455,649,o),
(316,611.896,o),
(316,546,cs),
(316,487.027,o),
(277.305,435.743,o),
(240.335,389.758,cs),
(214,357,ls),
(181.521,316.601,o),
(176,295.273,o),
(176,243,cs)
);
},
{
closed = 1;
nodes = (
(168,0,l),
(259,0,l),
(259,95,l),
(168,95,l)
);
}
);
width = 439;
},
{
layerId = "0E6BC793-ECDE-4AD7-84CA-C7A783A2BC64";
shapes = (
{
closed = 1;
nodes = (
(132,203,l),
(245,203,l),
(245,248,ls),
(245,294,o),
(251,316,o),
(272,346,cs),
(312,404,ls),
(346,453,o),
(358,491,o),
(358,547,cs),
(358,653,o),
(295,716,o),
(189,716,cs),
(75,716,o),
(20,649,o),
(20,509,c),
(139,509,l),
(139,548.83,o),
(150.868,608,o),
(188,608,cs),
(226.512,608,o),
(237,578.973,o),
(237,544,cs),
(237,505,o),
(230,479,o),
(209,446,cs),
(173,389,ls),
(140,337,o),
(132,308,o),
(132,247,cs)
);
},
{
closed = 1;
nodes = (
(132,0,l),
(245,0,l),
(245,130,l),
(132,130,l)
);
}
);
width = 385;
},
{
layerId = "D32B31B9-0BB7-473D-9726-FC40C81139B8";
shapes = (
{
closed = 1;
nodes = (
(145,182,l),
(220,182,l),
(220,247,ls),
(220,288.044,o),
(225.032,306.238,o),
(246,341,cs),
(284,404,ls),
(312.887,451.892,o),
(334,494.88,o),
(334,552,cs),
(334,656.886,o),
(278.622,717,o),
(182,717,cs),
(81.333,717,o),
(31,652.667,o),
(31,524,c),
(105,524,l),
(105,616.051,o),
(126.016,650,o),
(183,650,cs),
(233.667,650,o),
(259,617.333,o),
(259,552,cs),
(259,512.857,o),
(252.904,489.725,o),
(224,442,cs),
(181,371,ls),
(150.652,320.891,o),
(145,296.119,o),
(145,252,cs)
);
},
{
closed = 1;
nodes = (
(142,0,l),
(222,0,l),
(222,99,l),
(142,99,l)
);
}
);
width = 371;
}
);
unicode = 63;
},
